<?xml version="1.0" encoding="UTF-8"?>
<!DOCTYPE svg  PUBLIC '-//W3C//DTD SVG 1.1//EN'  'http://www.w3.org/Graphics/SVG/1.1/DTD/svg11.dtd'>
<svg version="1.1" viewBox="0 0 443 376" xmlns="http://www.w3.org/2000/svg">
 <defs>
  <linearGradient id="aq" x1="59.159" x2="60.174" y1="73.64" y2="98.166" gradientUnits="userSpaceOnUse">
   <stop stop-color="#bfd700" offset=".459"/>
   <stop stop-color="#669700" offset="1"/>
  </linearGradient>
  <linearGradient id="ap" x1="84.78" x2="85.448" y1="89.773" y2="105.32" gradientUnits="userSpaceOnUse">
   <stop stop-color="#bfd700" offset=".459"/>
   <stop stop-color="#669700" offset="1"/>
  </linearGradient>
  <linearGradient id="bb" x1="120.67" x2="121.44" y1="66.536" y2="96.782" gradientUnits="userSpaceOnUse">
   <stop stop-color="#bfd700" offset=".459"/>
   <stop stop-color="#669700" offset="1"/>
  </linearGradient>
  <linearGradient id="ao" x1="65.402" x2="65.92" y1="96.788" y2="114.18" gradientUnits="userSpaceOnUse">
   <stop stop-color="#bfd700" offset=".459"/>
   <stop stop-color="#669700" offset="1"/>
  </linearGradient>
  <linearGradient id="am" x1="189.38" x2="190.02" y1="93.313" y2="120.95" gradientUnits="userSpaceOnUse">
   <stop stop-color="#bfd700" offset=".459"/>
   <stop stop-color="#669700" offset="1"/>
  </linearGradient>
  <linearGradient id="ak" x1="77.294" x2="78.129" y1="63.058" y2="90.451" gradientUnits="userSpaceOnUse">
   <stop stop-color="#bfd700" offset=".459"/>
   <stop stop-color="#669700" offset="1"/>
  </linearGradient>
  <linearGradient id="an" x1="131.07" x2="131.64" y1="91.194" y2="107.48" gradientUnits="userSpaceOnUse">
   <stop stop-color="#bfd700" offset=".459"/>
   <stop stop-color="#669700" offset="1"/>
  </linearGradient>
  <linearGradient id="ar" x1="104.43" x2="105.35" y1="92.124" y2="117.98" gradientUnits="userSpaceOnUse">
   <stop stop-color="#bfd700" offset=".459"/>
   <stop stop-color="#669700" offset="1"/>
  </linearGradient>
  <linearGradient id="ba" x1="161.69" x2="163.1" y1="68.759" y2="99.436" gradientUnits="userSpaceOnUse">
   <stop stop-color="#bfd700" offset=".459"/>
   <stop stop-color="#669700" offset="1"/>
  </linearGradient>
  <linearGradient id="az" x1="36.385" x2="37.224" y1="99.635" y2="115.75" gradientUnits="userSpaceOnUse">
   <stop stop-color="#bfd700" offset=".459"/>
   <stop stop-color="#669700" offset="1"/>
  </linearGradient>
  <linearGradient id="as" x1="166.11" x2="167.06" y1="81.972" y2="106.91" gradientUnits="userSpaceOnUse">
   <stop stop-color="#bfd700" offset=".459"/>
   <stop stop-color="#669700" offset="1"/>
  </linearGradient>
  <linearGradient id="ay" x1="249.96" x2="250.72" y1="125.17" y2="160.78" gradientUnits="userSpaceOnUse">
   <stop stop-color="#bfd700" offset=".459"/>
   <stop stop-color="#669700" offset="1"/>
  </linearGradient>
  <linearGradient id="ax" x1="230.82" x2="231.47" y1="126.89" y2="159.18" gradientUnits="userSpaceOnUse">
   <stop stop-color="#bfd700" offset=".459"/>
   <stop stop-color="#669700" offset="1"/>
  </linearGradient>
  <linearGradient id="at" x1="95.259" x2="96.142" y1="50.607" y2="75.908" gradientUnits="userSpaceOnUse">
   <stop stop-color="#bfd700" offset=".459"/>
   <stop stop-color="#669700" offset="1"/>
  </linearGradient>
  <linearGradient id="av" x1="219.16" x2="220.21" y1="93.623" y2="123.63" gradientUnits="userSpaceOnUse">
   <stop stop-color="#bfd700" offset=".459"/>
   <stop stop-color="#669700" offset="1"/>
  </linearGradient>
  <linearGradient id="au" x1="157.89" x2="158.93" y1="35.286" y2="61.473" gradientUnits="userSpaceOnUse">
   <stop stop-color="#bfd700" offset=".459"/>
   <stop stop-color="#669700" offset="1"/>
  </linearGradient>
  <linearGradient id="aj" x1="101.28" x2="102.45" y1="62.186" y2="101.44" gradientUnits="userSpaceOnUse">
   <stop stop-color="#bfd700" offset=".459"/>
   <stop stop-color="#669700" offset="1"/>
  </linearGradient>
  <linearGradient id="bf" x1="61.184" x2="61.888" y1="129.1" y2="145.2" gradientUnits="userSpaceOnUse">
   <stop stop-color="#bfd700" offset=".459"/>
   <stop stop-color="#669700" offset="1"/>
  </linearGradient>
  <linearGradient id="be" x1="237.22" x2="238.04" y1="112.62" y2="138.27" gradientUnits="userSpaceOnUse">
   <stop stop-color="#bfd700" offset=".459"/>
   <stop stop-color="#669700" offset="1"/>
  </linearGradient>
  <linearGradient id="ai" x1="149.06" x2="150.64" y1="44.274" y2="82.318" gradientUnits="userSpaceOnUse">
   <stop stop-color="#bfd700" offset=".459"/>
   <stop stop-color="#669700" offset="1"/>
  </linearGradient>
  <linearGradient id="bd" x1="130.25" x2="131.37" y1="75.215" y2="106.35" gradientUnits="userSpaceOnUse">
   <stop stop-color="#c0d701" offset=".296"/>
   <stop stop-color="#7da702" offset="1"/>
  </linearGradient>
  <linearGradient id="bc" x1="111.07" x2="111.99" y1="101.03" y2="126.88" gradientUnits="userSpaceOnUse">
   <stop stop-color="#bfd700" offset=".459"/>
   <stop stop-color="#669700" offset="1"/>
  </linearGradient>
  <linearGradient id="bh" x1="222.36" x2="230.92" y1="176.51" y2="321.81" gradientTransform="rotate(.28648)" gradientUnits="userSpaceOnUse">
   <stop stop-color="#c5dd00" offset="0"/>
   <stop stop-color="#6d9900" offset="1"/>
  </linearGradient>
  <linearGradient id="aw" x1="181.05" x2="182.01" y1="78.316" y2="103.25" gradientUnits="userSpaceOnUse">
   <stop stop-color="#bfd700" offset=".459"/>
   <stop stop-color="#669700" offset="1"/>
  </linearGradient>
  <linearGradient id="al" x1="104.53" x2="105.24" y1="118.99" y2="138.65" gradientUnits="userSpaceOnUse">
   <stop stop-color="#bfd700" offset=".459"/>
   <stop stop-color="#669700" offset="1"/>
  </linearGradient>
  <linearGradient id="bg" x1="59.714" x2="61.357" y1="82.726" y2="138.26" gradientUnits="userSpaceOnUse">
   <stop stop-color="#bfd700" offset=".459"/>
   <stop stop-color="#669700" offset="1"/>
  </linearGradient>
  <linearGradient id="bo" x1="185.16" x2="186.3" y1="60.224" y2="84.405" gradientUnits="userSpaceOnUse">
   <stop stop-color="#bfd700" offset=".459"/>
   <stop stop-color="#669700" offset="1"/>
  </linearGradient>
  <linearGradient id="bn" x1="204.41" x2="205.13" y1="75.897" y2="92.285" gradientUnits="userSpaceOnUse">
   <stop stop-color="#bfd700" offset=".459"/>
   <stop stop-color="#669700" offset="1"/>
  </linearGradient>
  <linearGradient id="bp" x1="117.66" x2="118.29" y1="113.34" y2="125.32" gradientUnits="userSpaceOnUse">
   <stop stop-color="#bfd700" offset=".459"/>
   <stop stop-color="#669700" offset="1"/>
  </linearGradient>
  <linearGradient id="bm" x1="149.8" x2="151.15" y1="90.953" y2="127.37" gradientUnits="userSpaceOnUse">
   <stop stop-color="#bfd700" offset=".459"/>
   <stop stop-color="#669700" offset="1"/>
  </linearGradient>
  <linearGradient id="bl" x1="245.91" x2="246.85" y1="85.868" y2="115.9" gradientUnits="userSpaceOnUse">
   <stop stop-color="#bfd700" offset=".459"/>
   <stop stop-color="#669700" offset="1"/>
  </linearGradient>
  <linearGradient id="bi" x1="168.66" x2="169.87" y1="114.58" y2="143.05" gradientUnits="userSpaceOnUse">
   <stop stop-color="#bfd700" offset=".459"/>
   <stop stop-color="#669700" offset="1"/>
  </linearGradient>
  <linearGradient id="bk" x1="204.24" x2="205.39" y1="107.16" y2="136.29" gradientUnits="userSpaceOnUse">
   <stop stop-color="#bfd700" offset=".459"/>
   <stop stop-color="#669700" offset="1"/>
  </linearGradient>
  <linearGradient id="bj" x1="202.04" x2="203.57" y1="123.48" y2="150.82" gradientUnits="userSpaceOnUse">
   <stop stop-color="#bfd700" offset=".459"/>
   <stop stop-color="#669700" offset="1"/>
  </linearGradient>
 </defs>
 <path d="m224.88 323.06c-105.3-0.572-190.48-33.57-190.26-73.702 0.219-40.132 85.756-72.202 191.05-71.629 105.3 0.572 190.48 33.57 190.26 73.702-0.218 40.133-85.755 72.202-191.05 71.629z" fill="url(#bh)"/>
 <path d="m250.72 189.9c-26.748-11.711-236.56 9.713-196.47 69.846 19.582 29.373 104.4 54.291 111.5 33 3.325-9.975-24.929-15.288-28-24.5-4.051-12.154 38.303-21.303 45-28 16.513-16.513-16.53-16.712-7.5-28 9.944-12.43 109-11.833 74-23.5" fill="#add500"/>
 <path d="m216.99 235.96c-4.93-4.094-19.917-8.672-16.736-18.215 7.273-21.82 123.88-6.589 142 0 5.5 2 31.613 9.217 28.5 17-1.323 3.308-16.167 5.444-19.5 6-30.128 5.021-111.32 7.341-137-5.5" fill="#936928"/>
 <path d="m207 230.44c0.539-3.968-5.117-7.597-3.752-11.691 4.263-12.79 48.001-10.719 59.5-10 16 1 32.18 1.863 48 4.5 9.707 1.618 20.011 3.416 29.5 6.5 20 6.5 64.5 25.003 27 43-51.218 24.581-106.89 22.398-160.5 19.5-18.5-1-41.395-22.284-23-37 7.182-5.745 16.382-10.327 23-16" fill="#42f2fd"/>
 <path d="m191.99 213.58c-5.779-7.111-22.039-9.629-32.244-11.33-8.513-1.419-15.5-1.5-25-1-7.418 0.39-17.176 0.279-24.5 1.5-10.828 1.805-40.1 13.42-22.5 27.5 11.991 9.593 73.237 8.421 88 3.5 10.051-3.35 26.871-5.944 17.5-20" fill="#a2be00"/>
 <path d="m93.381 135.12c1.174-9e-3 1.786 1.148 2.783 1.481 2.607 0.869 4.967-1.423 7.5-1 2.328 0.388 3.671 2.612 6 3 2.354 0.392 7.605-1.634 8-4 0.815-4.894-1.316 1.893-0.5-3 0.588-3.532 8.061-5.47-1-10-4.406-2.203-10.505 0.498-15-1-2.044-0.682-3.624-2.585-6-1-3.388 2.258-2.938 5.627-3.5 9-0.173 1.039-2.667 3.833-2.5 4.5 0.181 0.724 3.441 0.483 3.5 0.5 1.657 0.473 2.58 2.553 4 3.5" fill="url(#al)"/>
 <path d="m165.53 97.582c-2.166 2.736 1.755 6.439 4.515 5.059 0.633-0.316 1.184-0.868 1.5-1.5 0.224-0.447-0.5-1.5 0-1.5 0.601 0 0.531 1.124 1 1.5 0.952 0.761 4.87 1.678 6 1 0.904-0.543 2.055-3 1-3-4.5 0 1.949 3.408 2.5 3.5 3.442 0.573-0.527-0.412 3-1 1.897-0.316 5.003 2.166 7 1.5 3.237-1.079-0.745-2.263-0.5-3 0.069-0.205 3.869 0.432 5.5-0.5 2.267-1.295 1.049-3.049 2.5-4.5 1.59-1.59 1.609 0.818 3-1.5 1.8-3-4.619-0.641-3.5-4 0.371-1.113 2.901-4.6 1.5-6-1.155-1.155-3.957 1.181-4.5 1-0.401-0.134 1.508-5-2.5-5-0.96 0-2.846 0.683-3.5 1.5-0.329 0.411 0.028 1.5-0.5 1.5-0.6 0-0.538-1.116-1-1.5-1.145-0.955-2.566-1.591-4-2-3.276-0.936-0.024 0.512-2 1.5-1.485 0.743-5.483-3.512-7.5-2-0.811 0.608 0.514 3-0.5 3-0.707 0-0.867-1.184-1.5-1.5-0.553-0.277-5.531-0.352-6 0-3.056 2.292 2.637 0.954-2 2.5-1.134 0.378-3.592-0.711-4.5 0.5-1.447 1.93 2 3.306 2 3.5 0 0.601-1.124 0.53-1.5 1-0.329 0.411-0.413 0.98-0.5 1.5-0.429 2.578 2.5 3.561 2.5 6 0 1.333-1.333 1.666 0 3 0.746 0.745 2 0.666 3 1" fill="url(#aw)"/>
 <path d="m94.717 114.96c-2.259-2.039-5.094 3.544-2.975 5.24 0.792 0.633 2.68-0.462 3 0.5 0.657 1.97-5.283 2.572-1 4 0.949 0.316 2.2-0.6 3 0 0.422 0.316 0.128 1.127 0.5 1.5 0.522 0.521 3.906 0.945 4.5 0.5 0.811-0.608-0.514-3 0.5-3 0.527 0 0.128 1.127 0.5 1.5 0.365 0.364 2.783 1.38 3.5 1.5 3.369 0.561 2.222-0.789 4-1.5 1.127-0.451 2.296 0.849 3.5 1 4.77 0.596 2.625-0.813 4-1.5 1.112-0.556 3.057 1.866 4.5 1 1.795-1.077 0.039-2.09 2.5-2.5 1.294-0.216 1.619 1.329 3 0.5 0.516-0.309 0.575-1.075 1-1.5 0.85-0.85 2.382-0.97 3-2 1.408-2.347-2.314-2.757-2.5-3.5-0.41-1.641 2.404-1.128 1-3-0.608-0.811-2.437 0.343-3-0.5-1.02-1.531 3.346-3.118 3-4.5-0.36-1.443-2.504 0.244-3-0.5-0.863-1.295 2.73-2.861 1.5-4.5-2.461-3.282-0.511 1.989-3-0.5-0.353-0.354 0.3-1.1 0-1.5-0.459-0.613-3.901-0.859-4.5-0.5-0.515 0.309-0.442 1.277-1 1.5-1.669 0.667-5.353-2.288-7.5-1-0.515 0.309-0.399 1.5-1 1.5s-0.53-1.125-1-1.5c-1.022-0.818-5.02-0.98-6 0-2.204 2.204 1.5 2.959 1.5 4 0 0.815-4.283 0.783-4.5 1-2.215 2.215 2.095 0.302-3 2-3.531 1.177 0.045 2.433-1 4-0.414 0.621-3.646 0.078-4.5 1.5-1.005 1.675-0.046 3 1.5 3" fill="url(#bc)"/>
 <path d="m136.86 105.01c-2.353-1.146-4.795 0.625-7.107 0.24-0.52-0.087-1.088-0.171-1.5-0.5-0.469-0.375-0.399-1.5-1-1.5-1.489 0-2.992 4.754-7.5 2.5-1.106-0.553-3.717-1.521-4.5-2.5-1.389-1.736 0.736-1.588-2-2.5-2.392-0.797-4.294-0.441-6-3-1.826-2.739-2.027-11.473 0.5-14 2-2 1 0.667 3 0 2.378-0.793 4.245-7.124 12.5-8.5 2.534-0.422 3.705 2.735 6 3.5 2.968 0.989 10.279-0.277 12.5 1.5 0.873 0.698 0.627 2.302 1.5 3 4.291 3.433 12.5-4.118 12.5 8 0 4.391-0.011 1.518-1.5 4-1.347 2.245 1.266 5.234-1 7.5-3.246 3.246-9.47 0.828-13.5 1.5-1.477 0.246-3.078 1.026-4.5 1.5" fill="url(#bd)"/>
 <path d="m221.03 122.79c-2.206-4.284 4.003-9.446 8.067-7.414 0.537 0.269 0.81 0.93 1 1.5 0.158 0.474-0.5 1.5 0 1.5s-0.083-1.007 0-1.5c0.139-0.836 0.835-2.469 1.5-3 4.805-3.844 6.176 2.225 8.5 3 1.35 0.45 3.15-0.45 4.5 0 2.743 0.914 0.137 3.023 3 3.5 1.014 0.169 3.393-1.33 4.5-0.5 1.16 0.87 0.435 3.559 1 4.5 0.164 0.275 5.007 4.896 1.5 7-0.429 0.257-1.1-0.3-1.5 0-1.639 1.229 0.456 4.544-1 6-0.373 0.373-1 0.333-1.5 0.5-6.294 2.098-6.759-4.957-9.5-4.5-2.915 0.486-3.496 3.502-7.5 1.5-1.298-0.649-2.545-3.5-4-3.5-1.534 0-2.769 2.115-6 0.5-0.868-0.434-4.202-2.596-3.5-4 0.235-0.472 1.5-1.027 1.5-0.5 0 3.034-5.301-1.633 0.5-5.5" fill="url(#be)"/>
 <path d="m54.565 131.84c-3.979-2.993-1.63 1.054-2.109 1.773-0.631 0.946-4.606-1.395-6 0-2.216 2.216 2.212 9.237 4.5 10 0.57 0.19 4.116 1.23 4.5 1 0.561-0.337 1.07-2.715 2.5-2 0.234 0.117 1.611 3.129 3.5 2.5 0.67-0.224 1.183-0.868 1.5-1.5 0.223-0.447-0.475-1.342 0-1.5 0.57-0.19 0.962 0.731 1.5 1 1.316 0.658 1.597 0.5 3 0.5 5.209 0 2.823-1.932 4-3.5 0.905-1.207 3.317-0.054 4.5-1 0.807-0.646 1.728-3.529 1-4.5-0.633-0.843-2.177-0.342-3-1-2.257-1.805-0.051-4-4-4-3.9 0 0.632-0.474-2 1.5-1.869 1.401-4.268-2.289-6-2-1.186 0.198-1.799 2-3 2-3.017 0 0.017-1-3-1" fill="url(#bf)"/>
 <path d="m49.356 130.64c-1.248 2.3-0.305 7.625 3.025 7.625 2.295 0 0.93-3.572 6.5-4.5 2.17-0.362 6.815 6.123 11.5 3 3.432-2.288 2.813-6.266 5-9 1.748-2.186 5.492-1.394 7.5-3 2.516-2.013 1.146-5.617 3.5-7.5 2.694-2.155 12.485-3.045 10.5-9-1.101-3.304-6.223-3.223-8.5-5.5-2.029-2.03-0.199-5.25-2-7.5-2.049-2.562-5.644-0.18-7.5-2.5-0.329-0.412-0.208-1.062-0.5-1.5-1.987-2.982-7.466-9.173-11.5-8.5-2.738 0.456-2.45 3.65-5 4.5-3.545 1.181-10.942-3.035-13.5-1.5-1.413 0.848-2.109 2.869-4 3.5-2.856 0.952-11.699-3.301-13.5-1.5-1.626 1.626-2 8.999-2 9-1.042 1.388-5.012 1.43-4.5 4.5 0.454 2.725 3.402 2.087 2.5 7.5-0.386 2.313-4.873 6.127-2 9 0.373 0.372 1.089 0.17 1.5 0.5 0.939 0.75 1.15 2.15 2 3 1.149 1.148 2.181 0.861 3 2.5 0.98 1.959-1.278 5.721 0.5 7.5 1.154 1.153 7.51 0.382 9 1.5 1.663 1.247 1.629 6.914 7.5 3" fill="url(#bg)"/>
 <path d="m105.8 122.95c1.263 0.943 2.465 2.051 4.084 2.321 2.16 0.36 3.958-1.16 6-1.5 2.639-0.44 3.754 0.751 6 1.5 0.46 0.153 8.773-0.864 9-1 0.515-0.31 0.81-0.93 1-1.5 1.396-4.188-5.794-2.932-7.5-3.5-2.072-0.691-7.066-7.717-11.5-5.5-2.785 1.392-0.181 1.56-3 2.5-1.453 0.484-3.112-0.611-4.5 0.5-3.481 2.784-0.392 7.5 4.5 7.5" fill="url(#bp)"/>
 <path d="m159.83 117.37c-4.161-0.999-6.894 1.719-10.445 2.903-0.949 0.316-2.142-0.515-3 0-1.703 1.021-1.166 4.609-2 6-0.309 0.515-1.191 0.484-1.5 1-0.294 0.489-0.707 3.877-0.5 4.5 0.735 2.206 2.95 2.766 3.5 3.5 2.509 3.345-7.327 5.779 3 7.5 4.767 0.794 10.479 0.021 14-3.5 0.425-0.425 0.485-1.191 1-1.5 1.589-0.954 10.789 3.855 15.5 1.5 4.037-2.019 3.617-6.77 8-7.5 5.759-0.96 10.852-8.648 8-11.5-2.137-2.137-6.276-2.046-9-2.5-3.184-0.531-9.413-4.029-12.5-3-1.14 0.38-1.925 1.462-3 2-3.872 1.936-9.285 1-13.5 1" fill="url(#bi)"/>
 <path d="m175.68 130.88c-4.233 4.55-5.933 9.013 1.199 11.391 1.362 0.454 4.904 0.177 6 1 1.825 1.369-0.828 4.603 1.5 6 3.262 1.957 12.796-1.383 16.5-2 2.298-0.383 2.993 2.582 5.5 3 1.051 0.175 10.052 0.724 10.5 0.5 2.495-1.248 1.41-4.485 4.5-5 2.932-0.489 6.465 1.511 9.5 0.5 2.093-0.698 7.221-4.632 5.5-7.5-0.6-1.001-2.406-2.219-3-4-1.069-3.208 6.815-9.5-2-9.5-2.976 0-16.878 1.874-18 1.5-1.997-0.666-4.003-2.335-6-3-4.557-1.52-6.875 3.395-10.5 4-2.469 0.411-5.001-0.5-7.5-0.5-3.357 0-7.854-0.647-10.5 2-0.85 0.849-1.061 2.249-2 3-1.719 1.375-5.892 1.973-8 2.5" fill="url(#bj)"/>
 <path d="m209.16 131.17c-4.897 2.075-13.795 1.575-17.775-2.404-0.85-0.85-0.969-2.382-2-3-1.887-1.133-5.691 1.308-7.5-0.5-1.821-1.821-4.017-8.486-1.5-10.5 2.057-1.646 5.412 0.544 7.5-0.5 0.671-0.336 4.032-6.089 9.5-7 5.063-0.844 13.029 3.171 18 4 1.879 0.313 6.006-0.994 7.5 0.5 1.955 1.955-0.268 5.809 1 7.5 1.286 1.714 6.5 1.827 6.5 5.5 0 0.527-0.208 1.061-0.5 1.5-1.29 1.934-3.515 2.218-5 4-1.184 1.42-2.968 4.234-4.5 5-1.413 0.706-2.951 1-4.5 1-1.685 0-6.237 0.262-7.5-1-1.535-1.536-0.119-3-3-3" fill="url(#bk)"/>
 <path d="m229.32 107.85c-9.461-9.386 1.562-6.49 1.562-10.58 0-1.623-3.287-4.284-2-6 0.866-1.155 4.633-0.589 6-1.5 1.681-1.121 4.136-5.864 7-3 0.745 0.745 0.157 2.367 1 3 2.508 1.881 7.79-2.626 10.5-1 2.269 1.361 0.112 4.555 3 6 1.519 0.759 3.522-1.371 4 1.5 0.087 0.52-0.736 1.028-0.5 1.5 1.566 3.131 7-2.611 7 3.5 0 0.5 0.224 1.052 0 1.5-0.316 0.632-1.306 0.82-1.5 1.5-0.549 1.922 3.064 4.414 1.5 6.5-1.49 1.987-5.618 0.372-7.5 1-2.203 0.734-2.54 3.986-5.5 3-1.988-0.663-3.596-2.302-6-1.5-4 1.333 0.833 0.5-2.5 2.5-0.266 0.159-4.307 0.192-4.5 0-0.891-0.892 0.274-3.436-1.5-4.5-2.64-1.585-11 6.381-11-3" fill="url(#bl)"/>
 <path d="m152.71 123.54c-2.341 1.77-5.245-3.017-7.332-1.765-1.373 0.824-2.659 3.893-7 1-1.426-0.951-2.473-3-4.5-3-1.701 0-3.054 1.759-4.5 2-1.315 0.219-8.452-7.358-9-9-1.014-3.042 3.5-0.979 3.5-4 0-1.07-1.885-3.539-1.5-4.5 0.829-2.074 4.764-0.511 6-1.5 2.173-1.739 0.193-5.462 5.5-9 3.131-2.087 4.594 3.743 7.5 2 1.408-0.845 3.282-3.761 5.5-4.5 5.159-1.72 6.941 3.98 10 5 2.648 0.882 6.152-1.975 9-1.5 8.083 1.347 4.442 2.441 7 5 2.534 2.533 8.359 1.423 6.5 7-0.19 0.57-0.81 0.93-1 1.5-0.751 2.254 3.541 2.931 2 5.5-1.302 2.17-4.536 2.035-6 3.5-0.836 0.836-1.855 3.177-3.5 4-1.557 0.778-1.521-0.979-3 0.5-1.254 1.254 0.33 3.393-0.5 4.5-0.417 0.556-3.84 1.396-4.5 1-0.515-0.31-0.485-1.191-1-1.5-1.048-0.629-3.53 0.727-4.5 0-0.843-0.633-0.157-2.368-1-3-2.07-1.553-4.184 1.622-5.5 2.5" fill="url(#bm)"/>
 <path d="m190.1 86.231c2.081-1.039 2.512 2.479 4.279 3.539 1.196 0.717 3.338 0 4.5 0 2.014 0 2.522 2.17 4.5 2.5 1.235 0.205 9.885-1.475 10.5-2.5 1.77-2.951-2.857-0.096 1.5-3 1.442-0.962 6.835-2.442 5-5.5-0.787-1.312-1.94-0.794-3-1.5-1.392-0.929-1.364-1.955-3-2.5-2.243-0.748-2.185 1.886-4.5 1.5-4.169-0.695-9.093-3.969-13.5-2.5-0.57 0.19-0.93 0.81-1.5 1-1.134 0.378-3.592-0.711-4.5 0.5-1.404 1.872 2.5 2.897 2.5 4.5 0 2.52-8.882 3.206-0.5 6" fill="url(#bn)"/>
 <path d="m176.33 80.238c2.172-0.013 3.685 2.101 5.547 3.032 4.277 2.138 8.947 0.851 13-0.5 2.166-0.722 8.827 1.754 10.5 0.5 1.956-1.467-1.534-4.277-0.5-6 1.259-2.098 8.071-2.859 6-7-1.605-3.211-6.492-0.495-9-2-2.004-1.203-2.293-4.098-5-5-2.596-0.866-4.114 2.5-6.5 2.5-3.253 0-5.413-3.971-8.5-5-0.991-0.331-3.43-0.679-4.5-0.5-2.241 0.373-3.839 2.139-6 2.5-2.209 0.368-6.144-0.856-8 1-0.879 0.879-1.425 3.35-2 4.5-5.98 11.96 12.472 9.777 14 11 3.524 2.819-0.852 4 6.5 4" fill="url(#bo)"/>
 <path d="m137.44 75.772c-0.758-0.569-1.743-0.592-2.563-1.002-3.777-1.889-6.752-2.5-11-2.5-0.5 0-1.223 0.416-1.5 0-1.212-1.818 2.55-2.317-1-3.5-1.501-0.501-4.879 0.121-6-1-1.917-1.917 0.699-4.195 1-6 0.164-0.987-0.6-2.2 0-3 3.18-4.24-0.204 3.839 3-1.5 1.621-2.702-3.926-5.763 3.5-7 1-0.167 2.093 0.953 3 0.5 0.85-0.425-6e-3 -4.083 5.5-5 2.341-0.391 6.383 1.186 7.5 1 1.663-0.277 2.591-2.5 4.5-2.5 2.225 0 3.012 3.085 5.5 3.5 2.503 0.417 3.74-1.624 6-2 2.505-0.418 6.495-0.418 9 0 2.928 0.488 1.213 3.571 4 4.5 1.819 0.606 6.246-1.441 7.5-0.5 0.422 0.316 0.127 1.127 0.5 1.5 1.606 1.606 4.511 0.138 6 2 1.898 2.372-1.235 3.796-0.5 6 0.857 2.571 0.976 0.595 2.5 2.5 3.741 4.676-2.822 5.402-4.5 7.5-1.826 2.282 1.324 5.294 0 7.5-2.945 4.908-13.202 2.067-17.5 3.5-0.982 0.327-3.266 2.411-4.5 2-2.004-0.668-1.859-2.941-4.5-2.5-2.472 0.412-4.913 2.431-7.5 2-2.49-0.415-3.456-3.638-5.5-5-1.13-0.754-3.205-1.069-4.5-1.5" fill="url(#ai)"/>
 <path d="m125.57 82.588c0.437-0.273 1.058-0.37 1.312-0.818 0.532-0.94 2.46-13.424-1-14-0.986-0.165-2.142 0.514-3 0-0.515-0.31-0.531-1.125-1-1.5-0.948-0.759-6.188-2.782-7.5-3-3.377-0.563-9.747 2.626-12 1.5-0.892-0.446-2.988-3.105-4.5-2.5-0.196 0.078-3.327 5.327-4 6-0.97 0.97-3.833 1.61-4.5 2.5-0.667 0.889 0.047 3.453-1 4.5-1.819 1.819-4.208-0.896-6 0-3.263 1.631-1.263 3.937-2.5 6-1.127 1.879-3.191 0.573-4 3-0.43 1.289 2.261 10.181 2.5 10.5 0.908 1.21 3.366 0.122 4.5 0.5 2.37 0.79 3.157 3.609 5.5 4 1.892 0.315 5.895-0.963 7.5 0 0.515 0.309 0.531 1.124 1 1.5 1.022 0.817 5.021 0.979 6 0 1.163-1.163-0.311-3.517 1-4.5 0.063-0.048 10.57 2.343 13.5 0 2.796-2.237-2.245-3.673-0.5-6 1.09-1.454 4.62-1.397 6-2.5 2.265-1.812-0.169-3.944 3-5" fill="url(#aj)"/>
 <path d="m82.633 83.527c-9.477-0.535-2.608 5.469-10.252 6.743-5.551 0.925-1.406-1.901-5-2.5-2.093-0.349-2.315 3.092-4.5 2-3.138-1.57-5.258-6.242-2.5-9 0.791-0.791 2.329-0.606 3-1.5 1.389-1.853-1.7-5.501-0.5-7.5 1.836-3.06 4.59-0.654 6-1.5 2.595-1.557 3.276-5.926 6.5-7 3.367-1.123 3.959 2.493 7 3 2.757 0.459 8.212-2.788 10.5-0.5 1.729 1.728-0.613 4.161 0 6 0.54 1.621 5.448 3.551 2.5 6.5-0.79 0.79-1.939 1.146-3 1.5-0.949 0.316-2.293-0.707-3 0s0.515 2.142 0 3c-1.615 2.692-6.674 0.949-9 2.5" fill="url(#ak)"/>
 <path d="m175.88 109.85c-0.888-1.931-0.392-0.204 4e-3 -2.578 1.554-9.327 5.138-2.639 9-6.5 1.374-1.374-0.486-3.309 1.5-4.5 0.918-0.551 3.422 0.179 4.5 0 2.816-0.47 9.141-4.86 12-2 1.249 1.249-0.919 6.483-0.5 9 0.304 1.825 2.139 4.083 1.5 6-0.811 2.432-5.067 3.211-7 4.5-5.825 3.883 1.67-0.67-2 3-0.745 0.745-2.057 0.528-3 1-1.612 0.805-3.006 2.253-4.5 3-0.447 0.223-1.007-0.083-1.5 0-4.867 0.811-6.532-1.096-8-5.5-0.158-0.475 0.3-1.1 0-1.5-1.371-1.828-2 0.873-2-5" fill="url(#am)"/>
 <path d="m119.2 100.47c-0.086 1.694-0.681 3.557 0.901 4.822 1.269 1.016 3.084 0.265 4.5 0.5 3.4 0.567-0.456 0.349 3 1.5 1.873 0.625 1.188-0.5 3-0.5 0.527 0 0.98 0.587 1.5 0.5 3.796-0.632-0.065-0.935 1.5-2.5 1.002-1.002 4.554 1.368 6 0.5 2.167-1.3-0.15-3.35 1-4.5 1.647-1.647 2.443 1.341 3-2 0.086-0.519 0.586-0.98 0.5-1.5-0.396-2.375-2.664-1.43-4-2.5-1.997-1.597 0.3-3.033-2.5-3.5-3.748-0.624-2.235 1.735-3 2.5-1.333 1.333-2.872-1.977-4.5-1-3.153 1.892 0.56 0.92-1 3-1.031 1.374-1.869-0.178-3 0.5-3.334 2 1.5 1.167-2.5 2.5-4.141 1.381-2.905-1.787-5 4.5" fill="url(#an)"/>
 <path d="m244.73 208.17c6.017-0.01 12.032 0.212 18.037 0.575 16 1.001 32.18 1.864 48 4.501 9.707 1.617 20.011 3.416 29.5 6.5 10.188 3.344 20.207 7.394 29.365 13.025 7.129 4.384 16.812 12.765 9.613 21.549-5.4 6.591-19.084 11.828-26.495 14.655-12.762 4.867-26.134 8.485-39.616 10.69-5.018 0.821-10.046 1.614-15.102 2.156-6.738 0.722-13.496 1.28-20.263 1.636-6.772 0.357-13.558 0.334-20.337 0.501-16.906 0.05-33.789-0.827-50.665-1.713-18.5-0.999-41.395-22.284-23-36.999l2.248-1.703c-3.624 5.306-3.62 12.356-1.499 18.248 1.093 2.726 1.544 3.052 3.099 4.871 4.825 4.825 11.244 5.395 22.422 3.879 1.838-0.053 6.595-1.291 7.911-1.098 1.154 0.169 2.273 0.52 3.415 0.755-2.858 1.254-2.273 4.436-2.273 6.989h8.251c0.304 0.053 0.093 0.013 0.627 0.143 0.8 0.202 1.205 0.288 1.805 0.343 0.741 0.067 1.279 0.067 2.422 0.033 0.465-0.014 0.664-0.019 0.895-0.019 19.246 0 38.547 0.359 57.763-1.002l0.123 0.904c0.294 9e-3 0.294 9e-3 0.4 5e-3 0.178-6e-3 0.455-0.024 0.899-0.058 0.829-0.064 2.267-0.184 4.341-0.365 4.475-0.388 11.856-1.05 22.291-1.998 4.195-0.383 8.388-0.976 12.591-1.34 1.527-0.162 2.411-0.261 2.767-0.313 0.092-0.013 0.092-0.013 0.221-0.035 0.055 0.058 0.055 0.058 1.662-0.783l-1.666-6.117c-0.417-0.052-0.417-0.052-0.553-0.053-0.185 0-0.185 0-0.281 5e-3 -0.175 7e-3 -0.441 0.026-0.842 0.058-2.261 0.185-4.52 0.394-6.779 0.602-0.449 0.041-0.898 0.171-1.346 0.124-0.345-0.035-0.637-0.285-0.975-0.364-0.594-0.139-1.656-0.218-2.324-0.277-0.676-0.055-3.736-0.236-4.51-0.296l-1.55-0.151c2.51-0.891 5.199-1.207 7.794-1.75 3.65-0.643 19.819-3.062 19.034-2.94 10.787-1.679 17.973-3.154 23.355-5.032 3.534-1.232 6.142-2.61 7.857-4.336 2.427-2.445 2.986-5.63 1.288-8.688-3.883-6.987-9.588-11.247-17.045-13.336-5.631-1.578-11.415-1.889-20.743-1.569-15.232 0.523-15.891 0.526-20.646-0.338-4.442-0.808-5.911-2.209-9.011-7.352-3.193-5.298-5.717-7.69-10.989-8.648-4.114-0.64-8.303-0.815-12.456-1.004-6.669-0.302-13.35-0.46-20.025-0.539-4.194-0.049-8.389-0.056-12.584-0.084l-9.145 0.05c-7.832 0.123-15.706 0.132-23.491 1.068-1.261 0.21-2.53 0.544-4.14 1.054-0.409 0.129-2.996 0.985-3.718 1.205-1.369 0.498-2.782 0.686-4.221 0.823 7.551-5.394 19.985-5.752 28.732-6.434zm98.018 58.192l0.027 0.024-0.11 0.013z" fill="#00d5ff"/>
 <path d="m274.09 262.9c-25.493 0-46.158-8.407-46.158-18.779 0-10.371 20.665-18.779 46.158-18.779 25.492 0 46.158 8.408 46.158 18.779 0 10.372-20.666 18.779-46.158 18.779z" fill="#73f4fc"/>
 <path d="m274.09 260.79c-21.758 0-39.397-7.464-39.397-16.672 0-9.207 17.639-16.671 39.397-16.671s39.396 7.464 39.396 16.671c0 9.208-17.638 16.672-39.396 16.672z" fill="#42f2fd"/>
 <path d="m274.09 256.04c-18.497 0-33.492-5.34-33.492-11.928 0-6.587 14.995-11.927 33.492-11.927s33.492 5.34 33.492 11.927c0 6.588-14.995 11.928-33.492 11.928z" fill="#73f4fc"/>
 <path d="m274.09 253.23c-16.57 0-30.002-4.082-30.002-9.117s13.432-9.117 30.002-9.117c16.569 0 30.002 4.082 30.002 9.117s-13.433 9.117-30.002 9.117z" fill="#42f2fd"/>
 <path d="m274.09 250.73c-14.272 0-25.841-2.959-25.841-6.609s11.569-6.609 25.841-6.609c14.271 0 25.841 2.959 25.841 6.609s-11.57 6.609-25.841 6.609z" fill="#73f4fc"/>
 <path d="m274.09 247.96c-9.429 0-17.073-1.722-17.073-3.845s7.644-3.844 17.073-3.844 17.073 1.721 17.073 3.844-7.644 3.845-17.073 3.845z" fill="#42f2fd"/>
 <path d="m102.37 167.94c-2.286 3.192-4.198 6.719-5.983 10.289-1.869 3.739-13.301 42.499-12.5 43.5 5.128 6.41 36.652 3.349 42-2 2.442-2.441-2-11.23-2-15 0-16.541 2.645-41.096 17.5-51 3.138-2.091 10.823-3.5 14.5-3.5 5.4 0 7.956-1.424 13.5-0.5 4.084 0.681 11.918 3.32 16 4 11.471 1.912 24.742 0.587 35.5-3 2.314-0.771 22.39-11.11 20-13.5-0.104-0.104-16.902 7.416-18.602 8.018-32.5 11.5-31.06-1.518-53.398-1.518-1.285 0-13.464-0.892-16.102 1.518 1.858-4.751 11.171-8.04 12.602-8.518 18.486-6.161 23.391-3.648 40.5-6.5 10.541-1.756 21.809-12.462 27.5-21 0.962-1.442 2.261-6.956 5-6.5 0.698 0.117 0.912 1.108 1.5 1.5 1.694 1.129 17.446 4.391 15.5 0.5-0.887-1.774-13.5 0.018-13.5-3.5 0-0.991 8.342 0.342 6-2-1.57-1.57-11.716 0.609-13.5 1.5-3.919 1.96-5.487 7.988-8.5 11-10.998 10.999-19.672 16.222-36 13.5-2.175-0.362-8.943 0.557-10.5-1-2.993-2.993 14.833-11.168 14.5-12.5-1.177-4.708-7.92 7.16-10 3-1.507-3.014-5.096 7.122-7 9.5-1.759 2.2-17.594 6.397-21.5 9-3.022 2.015-33.577 19.712-34 19.5-2.203-1.101 5.35-14.549 6-16.5 5.871-17.61 28.66-31.106 43.5-41 6.449-4.298 14.33-7.109 21.5-9.5 4.798-1.599 12 0.364 12-0.5 0-1.904-9.527-1-10.5-1-6.51 0-31.047 14.781-33 14-2.109-0.843-2.509-7.21-4-9-3.868-4.641-4.049-9.299-5-15-0.473-2.841-2.634-4.901-3.5-7.5-0.666-1.999-1.361-5.332-1-7.5 0.036-0.215 1.62-4.5 1-4.5-0.307 0-0.722 4.034-1.5 4.5-3.004 1.803-5.392-3-7-3-1.641 0 0.739 3.45 2 4.5 4.135 3.446 5.767 7.3 7.5 12.5 1.491 4.473 9.608 25.866 7.5 28.5-2.007 2.509-6.013 4.505-9 5.5-1.48 0.494-6.33 3.734-7.5 3.5-0.875-0.175-2.283-6.425-3-7.5-6.052-9.079-15.051-16.525-25-21.5-2.274-1.137-5.537-1.191-7.5-2.5-2.571-1.714-7.697-9-9-9-1.013 0-0.291 2.367 0.5 3 2.469 1.976 4.061 4.561 6.5 7 8.59 8.59 25.632 7.396 32 26.5 2.926 8.779-4.468 16.938-8.5 25-0.471 0.943 0.054 3-1 3-0.709 0-4.563-12.329-5.5-13.5-1.471-1.838-10.512-6.512-7.5-3.5 1.077 1.077 3.262 0.763 4.5 2 3.666 3.666 6.334 14.501 5.5 19.5-0.588 3.533-4.535 7.554-6.5 10.5-1.362 2.044-3.772 8.109-6 9-4.023 1.61-8-22.12-8-25.5 0-1.675-0.525-4.424 0-6 0.07-0.207 2.533-4.233 2-4.5-1.413-0.706-2.843 6.061-3 7-0.069 0.416-0.303 4.5-1 4.5-0.56 0-4.303-4.909-2.5 0.5 0.836 2.506 4.5 8 3 12-3-4.5-7.163-11.469-12-15.5-6.329-5.274-17.244-5.795-22.5-10-0.854-0.683-1.725-7.5-2.5-7.5-3.124 0-1.313 8.209-2.5 9-1.71 1.141-7.924-12.287-10.5-11-0.582 0.292 3.259 5.519 3.5 6 6.211 12.421 7.726 8.955 20 11 6.055 1.01 13.784 6.284 18 10.5 2.242 2.242 11 28.046 11 31.5" fill="#6d3d00"/>
 <path d="m106.78 182.75c-2.5 5.5-9.301 34.498-8.5 35.5 5.128 6.41 22.254 6.831 27.602 1.482 2.442-2.441-2-11.23-2-15 0-16.541 2.645-41.096 17.5-51 3.138-2.091 10.823-3.5 14.5-3.5 5.4 0 7.956-1.424 13.5-0.5 4.084 0.681 11.918 3.32 16 4 11.471 1.912 24.742 0.587 35.5-3 2.314-0.771 22.39-11.11 20-13.5-0.104-0.104-16.902 7.416-18.602 8.018-32.5 11.5-31.06-1.518-53.398-1.518-1.285 0-13.464-0.892-16.102 1.518 1.858-4.751 11.171-8.04 12.602-8.518 18.486-6.161 23.391-3.648 40.5-6.5 10.541-1.756 21.809-12.462 27.5-21 0.962-1.442 2.261-6.956 5-6.5 0.698 0.117 0.912 1.108 1.5 1.5 1.694 1.129 17.446 4.391 15.5 0.5-0.887-1.774-13.5 0.018-13.5-3.5 0-0.991 8.342 0.342 6-2-1.57-1.57-11.716 0.609-13.5 1.5-3.919 1.96-5.487 7.988-8.5 11-10.998 10.999-21.774 18.739-38.102 16.018-14.76 1.199-27.095 5.396-31 8-3.022 2.015-32 21-38 28z" fill="#573100"/>
 <path d="m73.264 100.83c-8e-3 -4.041-2.713-2.215-5.162-3.032-0.571-0.19-0.911-1.117-1.5-1-1.156 0.232-1.382 2.128-2.5 2.5-1.116 0.372-3.684-1.316-4.5-0.5-0.717 0.717 0.216 2.284-0.5 3-1.031 1.031-4 0.142-4 2.5 0 0.601 0.901 0.908 1 1.5 1.01 6.061-2-3.342-2 2.5 0 1.179 1.973 1.446 2.5 2.5 0.454 0.909 0.476 2.386 1.5 3 2.252 1.352 1.04-1.208 2.5-1.5 1.096-0.219 1.897 1.317 3 1.5 3.746 0.625-0.787-0.5 3-0.5 0.934 0 1.959 1.125 3 0.5 0.515-0.309 0.575-1.075 1-1.5 1.374-1.374 3.515-1.018 5.5-3.5 0.421-0.526 1.469-5.53 1-6-0.354-0.353-1.1 0.3-1.5 0-1.709-1.281 0.348-2-3.5-2" fill="url(#ao)"/>
 <path d="m83.182 104.65c-1.741-2.188-3.584 0.983-5.58 0.65-7.665-1.277 3.883-1-3-1-6.119 0-1.533-2.549-2.5-4-0.278-0.416-1.1 0.3-1.5 0-1.327-0.995 1.244-5.79 2.5-6 0.592-0.098 0.91 1.118 1.5 1 0.589-0.117 0.53-1.124 1-1.5 3.777-3.022-0.738 1.743 3-0.5 0.778-0.467 2.599-3.85 4-3.5 4.58 1.146-3.222 1.76 0.5 3 0.995 0.332 3.031-2.744 4.5-2.5 0.592 0.099 0.929 0.81 1.5 1 1.378 0.46 4.861-1.638 6-0.5 0.353 0.354 0 1 0 1.5-0.167 0.5-0.873 1.128-0.5 1.5 0.301 0.302 4.243-1.257 5-0.5 1.121 1.122-0.386 3.629-1.5 4-0.475 0.159-1.342-0.474-1.5 0-1.14 3.42 3.011-0.352 1 3-1.356 2.26-1.366 0.183-3 1-3.531 1.766-2.891 3.5-9 3.5" fill="url(#ap)"/>
 <path d="m53.818 95.775c3.523 5.653 4.971-0.479 5.284-0.479 0.5 0-0.354 1.147 0 1.5 0.29 0.291 3.961 0.59 4.5 0.5 4.143-0.69-0.558 0.058 1.5-2 1.023-1.023 4.822 0.883 6 0 0.811-0.608-0.311-2.391 0.5-3 1.094-0.821 3.818 0.71 5 0 4.444-2.666-1.778-0.333 0-3 0.652-0.978 4.449 0.901 5.5-0.5 0.865-1.154-1.746-3.896-2.5-4.5-0.412-0.329-1.5 0.027-1.5-0.5 0-4 3.5 4.5 1.5-1.5-0.815-2.444-6.356-1.784-5.5-0.5 0.333 0.5 1.382-0.41 1.5-1 0.117-0.589-0.485-1.19-1-1.5-1.048-0.628-3.53 0.728-4.5 0-1.352-1.013 0.351-3.486-1-4.5-1.678-1.258-1.594 1.235-3 1-1.186-0.197-1.815-1.802-3-2-2.892-0.482-0.273 0.164-2.5 1.5-2.814 1.689-0.197-1.621-3-0.5-0.558 0.224-0.81 0.93-1 1.5-0.159 0.475 0.5 1.5 0 1.5-1.691 0-1.599-4.634-5-3.5-1.408 0.47-1.776 1.152-2 2.5-0.083 0.494 0.5 1.5 0 1.5-0.601 0-0.485-1.19-1-1.5-0.429-0.257-1.026 0.159-1.5 0-0.571-0.19-0.93-0.81-1.5-1-6.91-2.303-0.818 5.049-2.5 0-0.92-2.759-6.598 5.506-6 7 0.415 1.038 2.728 0.416 3 1.5 0.299 1.198-3.244 3.283-3 4.5 0.117 0.59 1.19 0.485 1.5 1 2.018 3.364-3.394 3 5 3 4.195 0-2.197 1.301 2 2 5.423 0.904 1.006-3.662 8 1" fill="url(#aq)"/>
 <path d="m88.076 106.06c-2.258-2.038-5.094 3.545-2.974 5.24 0.791 0.634 2.679-0.461 3 0.5 0.656 1.97-5.284 2.573-1 4 0.948 0.317 2.2-0.6 3 0 0.421 0.317 0.127 1.128 0.5 1.5 0.521 0.522 3.906 0.946 4.5 0.5 0.811-0.608-0.514-3 0.5-3 0.527 0 0.127 1.128 0.5 1.5 0.364 0.365 2.782 1.381 3.5 1.5 3.368 0.562 2.221-0.788 4-1.5 1.126-0.45 2.296 0.85 3.5 1 4.769 0.597 2.624-0.812 4-1.5 1.111-0.555 3.057 1.866 4.5 1 1.794-1.077 0.038-2.089 2.5-2.5 1.293-0.215 1.618 1.329 3 0.5 0.515-0.309 0.575-1.075 1-1.5 0.849-0.849 2.381-0.969 3-2 1.408-2.347-2.315-2.756-2.5-3.5-0.411-1.641 2.404-1.127 1-3-0.609-0.811-2.438 0.344-3-0.5-1.021-1.53 3.345-3.117 3-4.5-0.361-1.442-2.504 0.245-3-0.5-0.863-1.294 2.729-2.86 1.5-4.5-2.462-3.281-0.511 1.989-3-0.5-0.354-0.353 0.3-1.1 0-1.5-0.46-0.612-3.902-0.859-4.5-0.5-0.516 0.31-0.442 1.277-1 1.5-1.67 0.668-5.354-2.288-7.5-1-0.516 0.31-0.4 1.5-1 1.5-0.601 0-0.531-1.124-1-1.5-1.022-0.817-5.021-0.979-6 0-2.205 2.205 1.5 2.959 1.5 4 0 0.816-4.284 0.784-4.5 1-2.215 2.215 2.094 0.302-3 2-3.532 1.177 0.044 2.433-1 4-0.415 0.622-3.647 0.078-4.5 1.5-1.005 1.675-0.046 3 1.5 3" fill="url(#ar)"/>
 <path d="m150.59 101.24c-2.166 2.735 1.755 6.439 4.516 5.058 0.632-0.316 1.183-0.867 1.5-1.5 0.223-0.447-0.5-1.5 0-1.5 0.6 0 0.53 1.125 1 1.5 0.951 0.761 4.869 1.678 6 1 0.903-0.542 2.054-3 1-3-4.501 0 1.948 3.409 2.5 3.5 3.441 0.574-0.528-0.412 3-1 1.896-0.316 5.002 2.166 7 1.5 3.236-1.079-0.746-2.262-0.5-3 0.068-0.204 3.868 0.433 5.5-0.5 2.266-1.295 1.048-3.048 2.5-4.5 1.589-1.589 1.609 0.819 3-1.5 1.8-3-4.62-0.641-3.5-4 0.37-1.112 2.9-4.599 1.5-6-1.156-1.155-3.958 1.181-4.5 1-0.402-0.133 1.507-5-2.5-5-0.961 0-2.847 0.684-3.5 1.5-0.33 0.412 0.027 1.5-0.5 1.5-0.601 0-0.539-1.115-1-1.5-1.146-0.954-2.567-1.59-4-2-3.277-0.936-0.025 0.513-2 1.5-1.486 0.743-5.484-3.512-7.5-2-0.811 0.609 0.513 3-0.5 3-0.708 0-0.868-1.183-1.5-1.5-0.554-0.276-5.532-0.351-6 0-3.056 2.292 2.636 0.955-2 2.5-1.135 0.379-3.593-0.71-4.5 0.5-1.448 1.931 2 3.306 2 3.5 0 0.601-1.125 0.531-1.5 1-0.33 0.412-0.414 0.981-0.5 1.5-0.43 2.579 2.5 3.561 2.5 6 0 1.334-1.334 1.667 0 3 0.745 0.746 2 0.667 3 1" fill="url(#as)"/>
 <path d="m88.402 71.333c3.766 5.898 3.662 1.963 4.2 1.963 0.5 0-0.3 1.1 0 1.5 0.632 0.844 1.96 0.827 3 1 3.336 0.557 2.206-1.03 3.5-2 1.323-0.993 4.749 1.168 6-0.5 0.3-0.4-0.354-1.146 0-1.5 0.84-0.84 3.945 0.633 5 0 3.393-2.036-0.761-0.799 1-3 0.793-0.992 2.785-0.809 3.5-2 1.873-3.121-1.5-0.188-1.5-2 0-0.888 3.278-1.869 2-4-1.391-2.318-1.411 0.09-3-1.5-2.089-2.089 1.348-2.85-2.5-4.5-0.92-0.394-2.014-0.164-3 0-0.52 0.087-1.265 0.972-1.5 0.5-0.5-1 1.915-1.962 1.5-3-0.738-1.842-3.638-1.077-4.5 0-0.33 0.412 0.011 1.373-0.5 1.5-0.731 0.183-4.692-2.782-6-3-5.837-0.972-2.004 2.003-3.5 3-0.567 0.378-2.776-1.425-3-1.5-3.379-1.126 0.312 0.938-2.5 1.5-0.549 0.11-4.173-2.596-6-1.5-2.332 0.094-0.123 2.416-1 3-1.512 1.008-2.9-2.605-3.5 1-0.248 1.487-0.119 1.961 1.5 2.5 0.474 0.159 1.5-0.5 1.5 0 0 1.404-3.818 2.305-2.5 4.5 0.575 0.959 2.728 0.416 3 1.5 0.441 1.766-4.53 2.103-2 4 0.96 0.72 3.54-0.72 4.5 0 1.373 1.031-0.179 1.869 0.5 3 1.411 2.353 4.354 1.719 5.5 0" fill="url(#at)"/>
 <path d="m137.47 54.884c-4.508 7.204 2.718 2.809 3.131 2.912 0.488 0.122 1.468 3.524 3.5 2 0.421-0.316-0.027-1.5 0.5-1.5 0.295 0 2.749 2.822 4 3 1.175 0.168 4.53 0.47 5.5-0.5 1.371-1.371-2.5-3.972-2.5-2 0 0.5 1.006-0.082 1.5 0 1 0.167 2 0.334 3 0.5 1.359 0.227 4.655 1.307 6 0.5 3.333-2-1.5-1.166 2.5-2.5 0.82-0.273 4.584 0.624 5 0 1.333-2-2-1.333-2-2 0-0.186 6.141 0.269 6.5 0 3.281-2.461-1.99-0.511 0.5-3 0.883-0.883 6.489 0.473 5.5-2-0.224-0.558-1.5-0.399-1.5-1 0-1.77 4.783-0.645 2.5-3.5-0.826-1.032-3.242-1.79-4.5-2-0.987-0.164-2.684 0.949-3 0-1.14-3.419 3.011 0.353 1-3-1.654-2.756-3.072 0.286-4.5 0-0.59-0.117-0.485-1.19-1-1.5-1.103-0.661-3.398 0.662-4.5 0-0.516-0.309-0.667-1-1-1.5-0.5-0.333-0.963-0.731-1.5-1-0.943-0.471-2.022-1.391-3-1-1.039 0.416-2.561 2.647-1.5 3 0.961 0.321 1.108-2.189 0.5-3-0.667-0.889-2.334-0.444-3 0-1.83 1.22-1.521 4.521 0 3 1.904-1.904-2.686-2.5-3.5-2.5-0.732 0-7.998 1.997-8 2-0.3 0.4 0.474 1.342 0 1.5-3.757 1.253 1.424-2.616-4 1-1.224 0.816-2.601 4.532-1.5 6 0.316 0.422 1.5-0.027 1.5 0.5 0 1.014-3-0.513-3 0.5 0 1.118 3 0.382 3 1.5 0 0.5-4.5 1-4.5 1.5 0 1.272 4.5 1.36 4.5 2 0 0.239-6.982 1.673-1.5 3.5" fill="url(#au)"/>
 <path d="m224.45 99.652c-1.356-1.7 4.372-5.314 5.651-4.356 2.1 1.576-2.068 4.933-2 5 0.547 0.548 2.663-4.011 4 0 0.307 0.922-2.188 3.188-1.5 2.5 1.561-1.561 7.769-2.807 9.5-0.5 2.153 2.872-4.5 1.469-4.5 2.5 0 0.65 7.975-1.354 7.5 1.5-0.427 2.559-6 1.968-6 2 0 1.021 4.328 1.928 3.5 4-1.059 2.646-5-0.391-5 1 0 6.896 2.5-5.395 2.5 1.5 0 2.399-6.332 3.556-8 3-0.571-0.19-1.5-0.399-1.5-1 0-0.241 2.967-0.456 1.5 1.5-0.871 1.161-3.559 0.436-4.5 1-5.743 3.446 4.544-0.522-2.5 3-1.652 0.826-5.56-1.627-6.5-1-0.416 0.278 0.3 1.1 0 1.5-1.903 2.538-5.464-1.492-5.5-1.5-0.59-0.117-0.93 0.81-1.5 1-0.865 0.289-3.804 0.197-4.5-0.5-1.826-1.826 1.149-2.5 1-2.5-8.614 0 4.127 2.161-4 1-1.998-0.285-3.59-5-2-5 2.183 0-2.119 4.143-3.5 0-1.417-4.25 1.793-2.891 3-4.5 1.039-1.385-1.134-5.446 1.5-6.5 2.525-1.01 0.688 2 2.5 2 0.474 0 2.292-5.292 3-6 1.355-1.355 3.465-0.672 4.5-1.5 0.991-0.793 0.484-2.738 1.5-3.5 1.653-1.24 3.858 1.5 4 1.5 0.5 0-0.258-1.071 0-1.5 0.371-0.619 2.304-1.4 3-1.5 5.601-0.8 4.047 1.31 5 2.5 1.044 1.305 3.609 1.073 5 2" fill="url(#av)"/>
 <path d="m218.77 136.37c-4.103-2.02-1.62-9.058 2.829-7.575 0.57 0.19 0.899 1 1.5 1 1.288 0 2.98-2.246 4.5-2.5 3.783-0.63-0.354 2.677 4 0.5 5.601-2.8 4.669 1.67 5.5 2.5 1.364 1.365 8.5-2.096 8.5 2 0 2-4 4-4 6 0 1.202 1.462 1.925 2 3 0.555 1.111 1.285 6.453 0.5 7.5-1.652 2.203-5-1.441-5 0.5 0 1.182 3.959 2.554 2.5 4.5-1.188 1.584-5.027 0.703-6 2-0.882 1.175 0.505 4.502-4 3-2.736-0.911-0.611-0.763-2-2.5-1.151-1.438-2.583-2.164-3.5-4-0.472-0.942-0.342-2.177-1-3-0.376-0.469-0.963-0.731-1.5-1-0.948-0.473-4.5-1.502-4.5-3 0-0.601 1.833-0.5 1.5-1-0.334-0.5-0.942 1.224-1.5 1-3.145-1.257-0.5-6.257-0.5-8 0-3.001-0.5 2e-3 -0.5-3" fill="url(#ax)"/>
 <path d="m237.04 136.37c-4.06-3.916-1.005-11.075 5.057-11.075 0.5 0 1.1-0.3 1.5 0 0.811 0.609-0.514 3 0.5 3 0.5 0-0.3-1.1 0-1.5 0.316-0.421 0.98-0.413 1.5-0.5 3.247-0.541 0.813 3.5 4.5 3.5 1.321 0 5.223-1.457 6.5-0.5 0.343 0.258 0.798 2.602 0.5 3-0.317 0.422-1.667 0-1.5 0.5 0.166 0.5 1-0.333 1.5-0.5 1.762-0.587 3.236-0.206 5-0.5 0.519-0.086 1.028-0.735 1.5-0.5 2.122 1.061-1.599 3.036-0.5 4.5 0.95 1.268 3.374 0.62 4 5 0.292 2.05 0.452 3.524-1.5 4.5-0.907 0.454-3-0.513-3 0.5 0 1.144 3.721 2.697 3 4.5-0.508 1.27-3.657 1.687-2.5 4 0.464 0.929 3.241 2.845 2 4.5-1.617 2.156-5.741-0.879-7.5 0-0.633 0.317-0.868 1.184-1.5 1.5-3.493 1.746-5.752-1.75-7-2.5-2.267-1.36-5.067 0.934-7.5-1.5-2.038-0.404-0.368-2.156-1-3-1.08-1.439-4.912-1.685-6-3.5-0.978-1.629 3.5-6.4 3.5-4.5 0 1.479-3.31 2.144-4-2-0.961-5.764-1.427-5.36 2-10.5" fill="url(#ay)"/>
 <path d="m38.42 113.28c6.786 6.471 9.525-1.932 6.682-0.985-1.347 0.449 1.688 2.984 3 2 3.883-2.912-6.398-4.985 4-3.5 2.175 0.311 4.321-1.797 3-4-0.384-0.639-2.294-1.382-3-1.5-0.494-0.082-1.342 0.475-1.5 0-0.97-2.909 3.636-0.091 0-3-2.389-1.91-5.52-0.5-8-0.5-2.363 0-6.587-2.448-9-1-0.617 0.37-0.877 3 0.5 3 0.291 0-2.174-3.724-3-4-2.388-0.796-5.002 1.502-6.5 3-1.334 1.334-0.5 1.834-2.5 2.5-1.218 0.406-4-1.083-4 1.5 0 2.665 1.461 0.878 2.5 1.5 2.468 1.481-0.712 2.789 1 4.5 3.992 3.992 7.016-0.5 8-0.5 0.5 0-0.3 1.1 0 1.5 0.316 0.422 0.98 0.414 1.5 0.5 4.161 0.694 4.501-1.75 6-2 0.965-0.161 3.002 2 4.5 2" fill="url(#az)"/>
 <path d="m141.06 87.431c-5.821-0.299-14.324-11.892-7.959-16.135 3.638-2.425 1.16 2.5 4.5 2.5 1.53 0 3.253-1.577 4.5 0.5 0.257 0.429-0.416 1.223 0 1.5 1.504 1.003 2.794-3.182 4.5-2.5 5.477 2.191-2.495 0.671 1 3 0.857 0.572 3.836-2.168 4.5-2.5 3.912-1.956 2.411 0.228 3.5 0.5 0.639 0.16 4.046-5.091 6.5-5.5 2-0.333 2.03 1.41 1.5 3-0.19 0.57-1.601 1.5-1 1.5 1.054 0 4.696-3.382 7-2 2.044 1.227 0.531 5.355 1.5 6 0.439 0.294 4.997-0.667 6-0.5 1.784 0.298 2.896 2.233 4.5 2.5 1.708 0.285 6.527-1.963 8 0 1.609 2.146-1.657 1.031-1 3 0.158 0.475 1.006-0.082 1.5 0 1.585 0.265 4.937 2.344 3.5 4.5-1.5 2.25-7.975 3.967-8 4-1.833 2.444 3.438 5.589-1.5 7-1.895 0.542-5.188-1.525-6.5-1-0.558 0.224-0.531 1.125-1 1.5-1.728 1.382-6.074 1.464-8 0.5-1.067-0.533-2.1-1.3-2.5-2.5-0.159-0.474 0.416-1.222 0-1.5-1.01-0.673-2.299 0.829-3.5 1-1.754 0.251-3.396-0.5-5-0.5-1.701 0-1.484 0.995-3 1.5-4.655 1.552-6.693-1.346-9-2.5-1.114-0.556-6 1.3-6-5.5" fill="url(#ba)"/>
 <path d="m120.53 93.952c-4.305-1.502-8.875 1.506-11.99-3.166-0.333-0.5-1.145-0.917-1-1.5 0.128-0.512 1.667 0 1.5-0.5-0.204-0.613-3.05 1.587-4.5 0.5-1.601-1.201 0.188-6.282 1-7.5 2.957-4.436 0.035 0.241 3-0.5 1.174-0.294 0.265-5.177 0.5-6 1.117-3.91 3.993-1.488 5.5-4 2.243-3.738-2.522 0.777 0.5-3 1.836-2.295 3.985-0.165 6-0.5 1.361-0.227 2.755-1.873 4.5-1 4.487 2.243-0.362 0.517 1.5 3 0.561 0.747 4.576 0.719 6 2.5 2.518 3.147-1.291-0.167-0.5 3 0.116 0.463 4.71 0.627 5.5 3 0.95 2.85-2 3.845-2 6 0 0.966 1.795 3.266 2 4.5 0.665 3.99-7.5 5.821-7.5 4.5 0-2.093 5.711 1.929 1 3.5-0.079 0.026-10.373-0.958-10.5-1" fill="url(#bb)"/>
</svg>
