<?xml version='1.0' encoding='utf-8'?>
<svg xmlns="http://www.w3.org/2000/svg" width="184.645mm" height="123.064mm" version="1.1" style="shape-rendering:geometricPrecision; text-rendering:geometricPrecision; image-rendering:optimizeQuality; fill-rule:evenodd; clip-rule:evenodd" viewBox="0 0 18787.58 12521.73"> <defs> <style type="text/css">  .fil0 {fill:#0A1B25} .fil38 {fill:#0A2D34} .fil3 {fill:#0B2532} .fil32 {fill:#0B2A31} .fil25 {fill:#0B2C2F} .fil47 {fill:#0C252C} .fil34 {fill:#0D393A} .fil19 {fill:#0D7971} .fil35 {fill:#117A72} .fil41 {fill:#127C75} .fil30 {fill:#157D75} .fil42 {fill:#1A413E} .fil46 {fill:#1A4342} .fil37 {fill:#1A4646} .fil44 {fill:#2C8679} .fil21 {fill:#2D736A} .fil18 {fill:#327E74} .fil43 {fill:#338579} .fil17 {fill:#3D8D7E} .fil1 {fill:#428F82} .fil36 {fill:#429183} .fil27 {fill:#429285} .fil13 {fill:#449585} .fil2 {fill:#4D9B92} .fil10 {fill:#5AA292} .fil9 {fill:#5FA495} .fil8 {fill:#61A696} .fil11 {fill:#75B6A8} .fil5 {fill:#88C2B5} .fil12 {fill:#8FB16A} .fil45 {fill:#8FB371} .fil26 {fill:#9ABA76} .fil24 {fill:#A5D2C3} .fil7 {fill:#B1CA97} .fil29 {fill:#B4CC9B} .fil31 {fill:#B9D1A2} .fil4 {fill:#BBD5A9} .fil6 {fill:#BFB90E} .fil20 {fill:#C2BA13} .fil33 {fill:#C7D9B2} .fil16 {fill:#C98988} .fil28 {fill:#D7E4C7} .fil48 {fill:#D8E6D9} .fil23 {fill:#DBA51A} .fil40 {fill:#DC8C14} .fil22 {fill:#DC9414} .fil39 {fill:#DE7B60} .fil14 {fill:#E68060} .fil15 {fill:#F7F6DD}  </style> </defs> <g id="Layer_x0020_1"> <metadata id="CorelCorpID_0Corel-Layer"/> <g id="_1629127863280"> <g> <path class="fil0" d="M3794.03 6528.31c-5.97,83.05 21.03,192.63 20.35,285.42 -1.18,160.66 13.59,329.13 8.93,498.09 -2.98,107.98 6.3,190.88 -5.13,307.76l-5.2 284.94c8.78,8.83 150.3,-46.37 165.95,-50.9 20.8,-6 44.31,-4.57 60.99,-13.45 36.35,-36.45 8.42,-1203.8 8.42,-1205.75l2.41 -281c-50.63,7.57 -186.65,132.43 -256.74,174.89z"/> <path class="fil0" d="M3626.95 6629.32c-2.87,40.05 13.02,113.53 15.83,160.79 9.11,153.21 -0.39,366.01 8.6,536.65 2.48,47.21 -2.68,124.37 -4.85,174.38 -2.25,51.59 3.52,119.99 5.29,174.28l-4.52 357.86c22.08,-6.05 19.43,-17.25 47.95,-34.85 23.69,-14.62 6.13,-3.65 21.58,-23.53 9.58,-12.35 7.96,-5.24 21.45,-2.73 17.01,-33.37 35.78,-33.22 61.66,-52.7 0.69,-23.1 -12.28,-43.55 -15.81,-67.37 -4.8,-32.46 0.45,-576.3 1.14,-614.99 2.08,-114.63 -4.87,-232.65 -5.24,-348.67 -0.37,-113.9 -1.67,-238.09 -6.83,-351.59 -12.93,6.22 -15.33,16.98 -28.99,26.48 -11.58,8.04 -26.13,12.35 -39,20.65 -13.89,8.94 -19.39,18.42 -33.86,26.03 -20.01,10.54 -27.38,6.74 -44.4,19.31z"/> </g> <g> <path class="fil1" d="M17093.75 12521.73l1587.82 0c-8.63,-14.23 -38.63,-27.09 -54.84,-38.04l-368.45 -264.05c-34.15,-25.94 -72.55,-50.5 -108.51,-75.91 -47.02,-33.23 -68.62,-55.91 -100.08,-79.28 -35.6,-26.43 -68.11,-50.16 -103.78,-75.47 -22.49,-15.96 -88.64,-67.51 -108.65,-73.3l-5.13 7.71c3.49,2.19 8.73,4.62 12.61,7.05l11.79 8.54c-8.37,21.28 5.91,17.12 -21.82,33.4 -1.3,0.77 -5.22,2.75 -6.45,3.56l-30.73 24.22c-17.47,10.58 -8.84,2.5 -20.78,18.64l-71.21 58.47c-10.9,7.41 -14.07,10.14 -23.65,16.2l-147.66 105.79c-36.01,18.68 -202.28,142.98 -248.51,175.38l-97.53 71.79c-29.99,24.22 -86.66,58.12 -94.44,75.31z"/> <path class="fil1" d="M15604.29 8440.08c3.54,93.63 5.21,184.31 5.56,281.3 0.19,53.3 9.39,254.03 0.68,289.47l11.65 -0.3c0.56,-0.9 1.64,-3.24 1.96,-2.47 0.01,0.04 -4.63,-2.1 31.8,-16.95 13.45,-5.48 24.15,-10.7 36.29,-18.55 39.13,-25.27 69.45,-54.74 97.02,-72.17 47.98,-30.32 69.93,-39.02 80.44,-87.21l43.71 -8.24c-6.53,91.74 -2,183.91 -1.29,275.04 0.91,113.84 -8.83,775.92 18.35,795.56 12.05,8.71 51.94,-28.01 66.44,-39.97 8.98,-7.4 7.11,-7.39 15.2,-14.68 20.8,-18.74 24.36,-10 26.35,-63.61 5.72,-153.11 -1.6,-319.37 -2.2,-473.09 -0.31,-79.4 3.88,-156.14 0.62,-233.9 -5.21,-124.43 24.38,-892.32 -9.12,-936.38 -4.34,-3.23 -325.46,205.38 -349.39,222.74 -19.04,13.82 -40.12,21.07 -42.97,50.86 -3.08,32.2 12.42,62.99 -10.64,80.42 -16.33,-7.43 -2.41,-14.27 -20.47,-27.87z"/> </g> <g> <path class="fil2" d="M13807.72 10718.07c21.41,0.67 27.17,-12.1 40.42,-22.82 109.26,-88.53 199.62,-143.68 317.22,-220.81 39.37,-25.82 41.32,-20.21 40.98,-79.49 -0.45,-78.44 -13.8,-149.95 -11.21,-229.14 2.48,-76.21 -0.82,-162.95 -3.46,-238.88 -7.51,-216.59 2.71,-485.61 -2.22,-708.16 -10.74,7.81 -18.39,21.05 -31.9,32.67l-239.33 179.15c-24.79,17.59 -48.43,34.11 -73.31,51.29 -13.56,9.37 -22.12,14.89 -34.73,24.96 -15.9,12.7 -17.36,13.3 -17.22,41.22 0.44,78.94 8.59,154.16 3.73,234.22 -5.92,97.49 9.42,271.53 7.41,299.02 -1.58,21.5 -6.2,26.67 -4.89,53.35 1.81,36.96 3.35,75.19 5.17,112.14 1.87,37.93 9,86.72 9.64,118.03 1.27,63.45 -27.9,246.72 -6.3,353.25z"/> <path class="fil2" d="M14848.99 8731.34c24.4,13.57 18.26,-7.57 40.27,23.2 32.29,45.15 37.62,71.15 185.02,-35.61 24.84,-18 49.16,-30.02 73.66,-45.89l137.16 -102.07c34.13,-23.07 16.96,-2.37 72.33,-47.05 58.14,-46.92 164.2,-117.52 200.02,-153.75 28.44,-28.76 26.99,-29.94 67.69,-52 82.9,-44.92 257.95,-161.46 322.93,-214.83 14.75,-12.12 18.04,-16.39 33.76,-25.95 12.54,-7.61 28.62,-13.15 38.33,-21.42 17.52,-14.93 8.2,-22.9 35.87,-29.18 40.67,58.87 19.59,195.49 25.95,282.56 13.46,184.2 10.29,505.64 9.6,710.88l5.38 612.65c-0.06,58.26 -7.06,103.31 -9.33,153.24 50.39,-18.94 48.74,-55.1 55.49,-100.56 8.48,-57.14 0.35,-513.24 0.96,-675.27l1.09 -552.87c-0.26,-112.03 -12.53,-213.78 -21.5,-325.2 -8.84,-109.71 -6.3,-222.2 -18.4,-330.34 -23.97,6.22 -181.26,141.56 -227.81,176.19 -31.43,23.38 -55.92,31.94 -81.46,57.9 -61.46,62.47 -190.82,132.8 -274.03,204.15 -86.3,74 -184.23,135.18 -277.76,200.23 -28.37,19.73 -49.19,38.36 -80.49,58.99 -80.33,52.94 -165.13,114.75 -244.7,163.72 -26.15,16.1 -65.39,40.53 -70.03,68.3z"/> </g> <g> <path class="fil3" d="M5884.85 4227.23c17.53,-1.21 13.02,2.32 13.71,-27.78l-4.31 -857.33c-1.34,-100.67 5.53,-204.16 2.77,-303.8l-3.79 -10.12c-34.14,-2.76 -181.22,102.36 -218.59,126.23l-256.96 171.35c-18.37,12.27 -30.25,24 -48.61,36.05l-206.12 142.58c-32.63,22.1 -83.43,45.13 -102.32,71.82 7.45,33.16 62.86,70.18 92.42,91.62l207.86 160.9c155.95,123.16 313.24,234.7 469.08,362.69 19.05,15.64 36.33,23.13 54.86,35.82z"/> <path class="fil3" d="M15813.64 4163.12c-8.41,87.58 11.74,391.53 5.66,528.99 -3.58,80.92 -2.07,80.08 1.76,162.29l236.08 -148.64c79.35,-53.15 150.35,-107.82 230.54,-157.98 63.46,-39.69 72.66,-26.75 72.35,-119.84 -0.21,-64.85 2.88,-129.26 2.03,-194.26 -0.83,-63.79 -4.15,-125.81 -6.08,-189.28 -1.78,-58.03 5.22,-141.27 -0.94,-193.68 -48.17,-9 -237.52,124.45 -275.97,149.97 -45.74,30.35 -88.08,51.5 -131.5,82.65 -22.25,15.96 -40.97,29.32 -65,44.64 -20.51,13.06 -49.32,25.38 -68.95,35.13z"/> </g> <g> <path class="fil4" d="M-0 4743.86l671.02 -466.77c70.39,-50.12 611.67,-423.09 652.71,-483.48l115.73 91.92c47.1,36.09 35.2,21.02 83.41,65.51 20.97,19.34 68.04,46.44 91.18,63.59 13.12,9.72 16.31,15.5 26.75,22.99 14.45,10.37 19.45,7.21 34.52,20.29 90.99,79.01 174.52,127.06 233.98,179.4 17.58,15.48 40.52,30.86 61.16,44.1 24.91,15.97 36.96,27.08 59.23,44.79 22.38,17.81 33.69,27.61 57.93,42.1 24.08,14.41 39.46,27.99 62.71,41.87 23.68,14.13 44.56,23.1 66.36,38.16 19.62,13.53 37.89,39.32 67.48,37.45 15.3,-10.47 8.12,-0.36 15.66,-19.54 -19.39,-24.96 -26.6,-18.35 -41.64,-35.13 -21.11,-23.59 -0.66,-40.09 -31.78,-52.2 -19.5,13.15 -14.55,8.19 -14.92,34.11 -8.74,-1.34 -47.89,-37.18 -58,-44.83l-136.81 -105.53c-38.61,-18.02 -38.32,-25.13 -66.45,-51.7 -20.85,-19.69 -15.2,-8.53 -40.82,-20.12 -17.35,-7.84 -51.51,-44.21 -61.51,-52.2l-102.69 -76.71c-14.2,-10.57 -20.04,-13.24 -35.83,-24.32 -14.47,-10.16 -17.81,-17.08 -31.83,-27.59 -13.5,-10.12 -24.14,-14.51 -35.87,-23.91 -9.91,-7.93 -17.98,-17.94 -27.63,-26.77 -74.31,-68.06 -205.37,-154 -266.36,-207.13 -21.66,-18.88 -42.39,-34.42 -65.98,-53.59 -23.28,-18.91 -45.58,-32.13 -68.6,-51.03l-472.1 -354.88c-23.6,-19.02 -44.35,-33.32 -68.68,-50.68 -78.5,-56.02 -241.83,-187.84 -333.76,-258.83l-266.01 -207.21c-22.58,-16.66 -40.65,-39.91 -72.58,-46.47l0 2014.36z"/> <path class="fil4" d="M15622.18 9010.55l-11.65 0.3c-15.11,153.94 -4.99,326.77 -3.23,487.53 0.57,52 4.04,482.03 9.9,490.34 15.36,-60.58 -7.35,-387.94 1.81,-445.12 8.04,-50.19 6.12,-371.08 5.75,-433.71 -0.55,-91.45 7.34,-72.82 110.76,-120.44 81.2,-37.38 42.65,-16.71 53.58,-4.12 -58.49,39.16 -47.08,26.79 -103.84,56.86 -53.9,28.55 -29.97,45.04 -25.93,107.09 3.3,50.7 -3.83,109.15 0.52,158.81 2.2,25.11 4.8,43.4 4.73,75.73 -0.26,116.54 5.38,285.86 -7.03,388.81 -6.26,51.91 -10.88,171.89 -7.97,228.41 2.3,44.46 1,78.24 33.98,58.56l29.32 -16.44c22.51,-11.45 32.91,-22.23 50.07,-38 24.77,-22.78 46.64,-16.9 62.1,-28.33 2.03,-1.51 32.9,-45.51 35.01,-51.5 18.61,-52.8 -11.22,-262.23 -11.16,-337.3 0.09,-118.7 5.35,-238.45 5.1,-355.45 -0.13,-59.01 -0.92,-118.54 0.66,-177.49 0.78,-29.28 1.12,-60.4 0.59,-89.65 -0.62,-33.69 6.64,-66.06 5.32,-92.78 -18.16,4.3 -32,20.6 -42.31,32.4l-36.93 27.99c-19.35,20.75 -12.44,10.62 -32.51,22.27l-22.02 17.4c-1.2,0.84 -4.85,3.08 -6.17,3.85 -27.09,15.57 -64.38,36.52 -95.91,44.81 -4.33,-6.78 -7.15,7.65 -2.58,-10.83z"/> </g> <g> <path class="fil5" d="M6369.53 6966.27c-2.66,39.9 18.95,37.83 86.47,90.79 158.62,124.44 334.12,251.46 496.3,375.26 190.65,145.52 405.34,310.11 601.05,444.62l203.02 146c37.56,24.62 65.82,45.2 102.81,71.32l504.25 367.35c33.34,24.93 66.86,45.14 101.26,73.32l301.13 221.7c35.94,24.91 66.57,48.8 100.17,74.22 32.63,24.68 69.85,46.51 102.97,71.48 69.21,52.17 129.97,95.02 201.82,146.69 37.32,26.83 67.93,49.7 102.06,72.46l202.09 146.49c25.74,19.92 71.12,65.73 109.75,67.69 21.89,-16.68 20.11,-16.02 48.42,-25.92 23.26,-8.13 28.16,-18.69 42.99,-32.16 16.84,-15.29 20.98,-17.41 46.67,-28.45 33.18,-14.27 15.54,-16.21 37.14,-37.19 14.03,-13.63 35.46,-16.67 47.69,-27.05 15.58,-13.24 7.78,-25.73 32.29,-42.27 18.8,-12.68 41.49,-7.02 60.83,-14.69 23.52,-9.34 21.99,-20.66 36.01,-42.69 19.03,-9.9 22.42,-2.68 43.38,-16.74l66.28 -53.27c44.51,-31.72 20.47,3.09 66.44,-52.81 17.2,-20.91 18.13,-6.59 41.82,-18.38 17.3,-8.62 16.05,-18.74 28.51,-30.91 18.94,-18.51 27.34,-8.41 48.67,-17.04 8.79,-3.55 23.35,-20.63 30.96,-27.97l67.65 -52.12c16.63,-8.72 28.93,-10.44 42.72,-21.77 22.07,-18.12 -0.57,-7.62 64.4,-55.29 12.95,-9.49 23.61,-14.36 37.91,-21.72 44,-22.65 10.7,-28.94 72.06,-52.76l105.31 -78.84c23.41,-19.07 54.05,-25.23 75.47,-44 27.5,-24.09 42.25,-31.67 71.33,-53.23l212.35 -151.29c20.98,-13.49 61.67,-35.24 71.38,-54.04 -10.32,-16.3 -374.7,-289.07 -422.47,-325.73 -71.53,-54.89 -138.33,-105.48 -211.72,-161.81 -40.97,-31.45 -187.66,-136.18 -212.94,-160.73 -69.65,-67.59 -50.96,-39.76 -102.19,-82.03 -36.16,-29.84 -61.62,-54.25 -105.05,-84.27 -20.83,-14.4 -34.18,-23.41 -51.03,-38.53 -42.07,-37.77 -17.02,-14.91 -55.4,-39.05l-356.74 -295.91c-16.31,-14.92 -31.32,-29.78 -50.24,-44.53l-98.31 -87.7c-5.37,-14.42 -63.95,-68.59 -79.65,-82.98 -110.18,-101.04 -147.96,-120.89 -257.96,-210.26 -114.43,-92.97 -237.67,-180.73 -352.33,-275.31 -156.93,-129.48 -362.91,-285.82 -527.39,-413.93l-180.33 -136.09c-35.29,15.52 -74.38,44.62 -106.78,66.23l-207.11 141.62c-309.44,205.4 -610.06,432.37 -922.55,636.43 -69.33,45.28 -138.22,90.72 -206.46,137.14 -67.11,45.64 -140.52,92.86 -207.17,140.65z"/> <path class="fil5" d="M5657.13 1865.8c15.92,5.12 71,48.14 89.78,62.8 23.67,18.47 74.85,49.07 78.65,77.13 54.28,-37.86 157.82,-125.76 214.29,-159.66 133.22,-79.96 314.24,-211.12 449.5,-302.63l440.56 -311.59c135.54,-98.51 300.94,-207.96 443.12,-308.96 37.1,-26.35 71.47,-53.63 110.12,-79.13 24.54,-16.19 102.6,-59.69 111.02,-84.13 -10.36,-12.24 -47.62,-36.2 -63.39,-47.79 -141.92,-104.28 -296.17,-227.51 -438.53,-328.43 -43.05,-30.51 -84.63,-60.61 -126.82,-92.24l-306.01 -241.82c-8.93,-7.63 -20.08,-16.47 -30.46,-24.44 -11.05,-8.49 -21.73,-13.48 -30.5,-24.91l-3296.12 0c8.94,21.09 51.12,47.75 70.38,64.04l215.01 178.54c192.08,156.28 396.38,308.62 590.84,465.11l294.45 233.49c101.17,75.83 192.9,159.78 290.78,237.17 98.5,77.89 199.05,155.44 297.99,230.02 101.6,76.58 196.86,152.3 298.41,229.54l259.42 198.96c13.35,9.78 28.25,13.85 37.51,28.94z"/> </g> <g> <path class="fil6" d="M11133.33 8277.6c56.3,83.84 161.2,150.44 240.19,217.29 131.18,111 255.49,203.86 382.01,310.25 168.55,141.73 342.83,270.59 516.47,405.02 44.86,34.73 84.07,66.2 128.77,100.34 78.29,59.79 741.05,614.71 778.42,612.61 12.39,-0.7 175.81,-126.27 197.08,-143.06 62.69,-49.5 123.22,-96.58 190.81,-147.75 31.91,-24.15 66.13,-46 98.51,-70.94 33.31,-25.66 60.06,-50.73 94.04,-75.38 120.45,-87.38 361.15,-278.04 473.22,-373.35 92.27,-78.47 191.16,-147.59 287.6,-220.47 36.49,-27.58 166.72,-130.39 196.93,-140.7 7.56,-7.2 14.07,-10.97 22.94,-18.09 10.01,-8.05 12.76,-13.23 22.91,-21.76 21.58,-18.13 29.41,-20.23 59.05,-30.74 26.73,-9.48 23.44,-24.84 46.18,-43.31 15.98,-12.99 35.65,-23.72 51.83,-37.75 32.88,-28.53 61.56,-49.58 103.46,-70.48 32.48,-16.2 72.06,-54.88 104.26,-75.5 36.31,-23.26 41.97,-14.71 109.37,-64.76 18.14,-13.47 30.71,-24.62 50.18,-39.59 18.08,-13.9 34.33,-22.72 53.03,-36.61 20.07,-14.91 28.67,-27.66 49.59,-40.1 23.23,-13.83 32.09,-19.11 53.8,-35.81 34.1,-26.22 64.61,-49.7 104.66,-74.61l97.77 -77.01c32.6,-41.7 20.76,-9.21 54.15,-35.06 93.63,-72.46 274.83,-186.99 352.76,-265.02 19.08,-19.11 32.48,-22.42 51.69,-38 26.97,-21.89 3.82,-10.36 50.54,-39.09 70.81,-43.53 141.74,-102.67 220.85,-138.4 15.94,-9.35 5.57,0.55 15.17,-13.85 -10.84,-19.17 -39.74,-31.55 -58.97,-45.37 -70.05,-50.34 -201.36,-172.59 -271.14,-226.95 -151.12,-117.71 -299.38,-236.16 -453.95,-347.89l-109.64 -89.66c-32.65,-29.87 -75.15,-60.38 -112.66,-91.54 -36.66,-30.45 -72.07,-57.41 -109.72,-89.54l-163.54 -135.28c-18.04,-15.98 -34.81,-29.11 -54.42,-45.23 -96.9,-79.68 -294.26,-237.95 -374.6,-322.73 -42.67,-45.04 -18.55,-18.41 -54.23,-44.41 -25.32,-14.78 -58.96,-50.54 -84.24,-64.1 -25.75,-9.35 -84.41,-58.08 -109.45,-76.89 -43.62,-32.79 -55.13,-19.11 -117.74,28.02 -32.69,24.61 -66.88,57.63 -99.09,85.26 -34.32,29.45 -60.86,51.9 -98.5,80.74 -112.69,86.32 -300.37,212.04 -425.96,301.31 -73.21,52.03 -142.74,99.66 -210.44,153.14 -32.46,25.64 -73.4,49.22 -108.98,75.34 -36.33,26.66 -65.37,51.4 -102.55,76.73l-534.53 376.92c-107.88,73.24 -203.44,145.91 -323.52,224.4 -39.19,25.61 -68.09,52.37 -106.59,77.73l-747.19 522.88c-36.07,25.45 -70.87,50.61 -107.09,77.16 -71.75,52.58 -148.64,98.64 -215.88,147.77 -24.07,17.58 -90.26,55.98 -103.6,73.93z"/> <path class="fil6" d="M12648.62 2332.15c-64.49,44.02 -30.02,102.09 11.9,143.97 76.4,76.33 412.9,304.57 543.68,412.6 42.3,34.94 92.06,69.55 136.95,102.15 94.65,68.75 184.39,134.76 273.73,204.44 222.62,173.66 454.53,340.99 679,516.44 46.83,36.6 88.4,69.25 134.58,104.5 46.72,35.65 90.46,68.59 134.5,104.56 28.5,23.27 104.94,89.76 140.35,100.15 18.43,-0.33 208.92,-160.17 239.58,-185.16 122.92,-100.22 281.01,-208.86 409.29,-307.94 125.81,-97.16 206.61,-140.15 332.93,-234.81l244.91 -183.35c27.32,-21.61 52.69,-42.45 81.04,-63.43 109.1,-80.72 214.45,-162.6 322.84,-244.94l253.21 -175.15c47.79,-31.81 103.03,-78.9 164.79,-119.15 33.15,-21.61 54.49,-41.01 83.29,-61.16 36.66,-25.65 51.9,-22.62 85.37,-54.19 32.91,-31.04 402.66,-290.78 422.29,-294.41 -8.13,-41.89 -80.07,-82.62 -124.29,-124.78l-398.27 -338.96c-123.55,-99.18 -270.69,-239.43 -397.14,-339.92 -10.36,-8.23 -122.86,-101.04 -127.03,-112.71 -28.08,-12.87 -90.35,-65.21 -116.25,-87.33l-217.69 -180.74c-19.87,-16.33 -34.48,-28.49 -54.79,-44.83 -20.1,-16.18 -32.58,-32.46 -51.25,-48.39l-267.19 -230.86c-53.58,-43.61 -106.47,-98.82 -153.33,-140.62 -61.55,-54.87 -36.01,-67.99 -116.25,-16.25 -43.68,28.17 -77.58,49.82 -118.35,80.86 -37.26,28.37 -77.74,55.5 -116.14,83.1 -39.11,28.1 -76.65,54.28 -117.19,82 -307.65,210.3 -616.37,445.86 -927.38,661.46l-233.38 165.14c-77.43,53.51 -152.31,109.09 -228.27,165.17l-698.59 496.82c-40.45,28.73 -77.83,53.51 -115.54,83.73 -31.17,24.98 -77.44,64.33 -115.94,82.01z"/> </g> <g> <path class="fil7" d="M9584.67 9335.65c-38.62,-1.96 -84,-47.77 -109.75,-67.69l-202.09 -146.49c-34.13,-22.75 -64.73,-45.62 -102.06,-72.46 -71.86,-51.67 -132.61,-94.53 -201.82,-146.69 -33.12,-24.97 -70.34,-46.79 -102.97,-71.48 -33.6,-25.42 -64.23,-49.31 -100.17,-74.22l-301.13 -221.7c-34.4,-28.18 -67.92,-48.39 -101.26,-73.32l-504.25 -367.35c-36.99,-26.12 -65.25,-46.69 -102.81,-71.32l-203.02 -146c-195.71,-134.5 -410.4,-299.09 -601.05,-444.62 -162.18,-123.8 -337.68,-250.82 -496.3,-375.26 -67.52,-52.96 -89.12,-50.9 -86.47,-90.79 -37.8,21.25 -77.75,48.87 -113.99,71.34l-331.24 216.7c-48.69,34.48 -123.96,77.1 -167.26,111.71 -56.16,44.89 -109.32,74.28 -162.01,112.01 -35.37,25.33 -67.32,51.85 -103.01,76.32l-432.82 299.1c-18.45,12.96 -38.58,24.82 -56.72,37.96 -18.55,13.44 -32.43,25.6 -50.61,38.95 -78.71,57.79 -117.83,96.44 -209.53,159.12 -35.42,24.22 -69.91,50.52 -105.35,74.02 -20.02,13.28 -98.34,56.75 -112.85,71.34 -20.1,20.22 -22.8,31.02 -45.93,48.73l-167.31 106.55c-83.46,48.98 -130.41,95.96 -215.59,148.13 -144.73,88.62 -198.34,136.71 -325.46,222.48 -76.43,51.58 -146.61,96.92 -217.55,150.96l-220.57 143.27c-128.29,78.85 -83.51,78.68 -162.95,115.99l-164.44 109.24c-25.6,15.65 -89.58,55.6 -98.79,78.14l198.09 154.39c63.43,51.41 128.93,103.76 197.51,151.11 133.54,92.18 273.41,203.63 401.18,301.16l402.96 299.27c163.31,120.25 337.53,260.02 499.04,382.56 80.46,61.05 111.28,80.11 198.37,150.25l499.98 376.68c31.07,26.52 70.06,49.91 104.19,75.02l493.67 378.08c44.06,32.97 117.82,78.91 153.19,110.81 76.72,69.17 54.3,18.59 158.32,-51.27 35.55,-23.87 80.4,-43.72 112.4,-72.31 19.45,-17.38 36.08,-19.43 57.7,-36.76 54.35,-43.57 52.13,-40.18 108.85,-75.36 17.68,-10.97 31.16,-24.37 51.21,-38.64 145.23,-103.42 282.29,-205.17 434.1,-302.87 153.56,-98.82 290.89,-206.26 435.15,-306.99 145.63,-101.7 286.23,-203.48 433.28,-303.94l222.3 -151.17c22.96,-13.9 40.35,-18.95 59,-35.88 29.74,-26.97 327.02,-224.15 381.97,-260.35 71.96,-47.41 78.85,-69.78 100.84,-83.49 36.03,-22.46 55.88,-20.79 117.37,-66.99 62.32,-46.83 152.32,-113.67 219.43,-149.63 35.99,-19.28 83.17,-52.24 108.22,-75.73l109.7 -74.73c21.91,-12 36.72,-26.93 54.84,-39.78 21.67,-15.37 35.39,-19.39 56.22,-33.48 22.53,-15.23 33.03,-28.73 52.29,-42.39 50.35,-35.7 116.44,-72.4 158.26,-115.41 38.84,-39.96 81.62,-60.72 99.45,-84.82z"/> <path class="fil7" d="M17891.01 11905.91c-3.9,-15.45 21.93,-29.72 43.38,-42.77 22.93,-13.94 37.08,-26.5 57.61,-42.23 108.08,-82.77 222.61,-175.73 332.42,-255.39 46.96,-34.07 416.21,-309.77 463.17,-324.77l0 -3284.2 -419.98 265.94c-33.29,26.49 -65.44,48.19 -101.36,72.61l-907.18 632.13c-35.23,22.85 -66.68,45.28 -100.54,69 -31.38,21.98 -66.66,45.28 -101.09,68.06l-255.35 178.09c-18.62,12.9 -33.07,21.51 -50.54,34.06l-250.72 177.49c-17.22,11.71 -33.48,22.31 -49.17,35.36 -58.52,48.65 -134.34,92.82 -198.2,140.4l-50.54 39.05c-13.19,13.56 -25.94,26.61 -43.68,41.32 -15.32,12.73 -32.67,23.9 -49.49,35.45 -77.09,52.92 -37.81,41.11 -94.27,75.29 -62.7,37.95 -35.73,-4.95 -101.54,66.04 -12.67,13.67 -86.06,51.25 -109.69,65.89 -21.48,13.31 -28.15,26.06 -45.91,38.61 -32.77,23.17 -72.5,42.65 -104.62,65.1 -80.93,56.58 -78.63,47.68 -159.32,94.72 -20.96,12.21 -35.56,17.05 -57.79,24.59 6.64,18.33 78.11,81.06 97.03,95.3 11.62,8.74 24.75,19.03 36.72,28.03 24.57,18.47 47.04,35.68 74.83,54.45l658.98 486.79c104.98,71.46 196.07,139.55 297.57,210.5l1189.28 855.07z"/> </g> <path class="fil8" d="M-0 2729.5c31.93,6.56 50,29.81 72.58,46.47l266.01 207.21c91.93,70.99 255.26,202.81 333.76,258.83 24.33,17.36 45.09,31.66 68.68,50.68l472.1 354.88c23.02,18.89 45.32,32.12 68.6,51.03 23.6,19.17 44.32,34.71 65.98,53.59 60.99,53.13 192.05,139.07 266.36,207.13 9.65,8.83 17.71,18.84 27.63,26.77 11.73,9.4 22.36,13.79 35.87,23.91 14.02,10.51 17.36,17.43 31.83,27.59 15.78,11.08 21.62,13.75 35.83,24.32l102.69 76.71c10,7.99 44.16,44.35 61.51,52.2 25.62,11.59 19.97,0.43 40.82,20.12 28.13,26.57 27.84,33.68 66.45,51.7l136.81 105.53c-3.62,-9.36 -4.28,-13.72 5.62,-27.07 11.95,-16.11 163.34,-113.16 194.25,-134.68l678.82 -491.84c10.11,-7.41 14.21,-10.42 25.81,-19.13l81.45 -57.98c69.4,-46.26 171.8,-131 244.41,-178.97l445.55 -306.5c55.6,-37.59 99.69,-72.83 165.3,-113.56 17.52,-10.88 41.95,-28.33 56.42,-38.22l988.61 -699.96c66.79,-42.43 197.47,-140.63 273.98,-194.17 38.9,-27.22 72.05,-56.58 108.39,-80.88 32.29,-21.59 188.79,-133.14 215,-163.77l19.99 4.32c-9.26,-15.09 -24.16,-19.16 -37.51,-28.94l-259.42 -198.96c-101.56,-77.24 -196.81,-152.96 -298.41,-229.54 -98.94,-74.57 -199.49,-152.13 -297.99,-230.02 -97.88,-77.39 -189.61,-161.33 -290.78,-237.17l-294.45 -233.49c-194.46,-156.49 -398.76,-308.83 -590.84,-465.11l-215.01 -178.54c-19.26,-16.29 -61.44,-42.95 -70.38,-64.04l-3302.33 0 0 2729.5z"/> <path class="fil9" d="M8019.6 5844.21l180.33 136.09c164.48,128.11 370.46,284.45 527.39,413.93 114.66,94.59 237.9,182.35 352.33,275.31 109.99,89.37 147.77,109.22 257.96,210.26 15.7,14.39 74.28,68.56 79.65,82.98l424.85 329.07c75.09,55.09 88.49,70.24 163.6,120.14l156.53 127.54c58.53,47.47 65.48,47.6 108.47,80.8 36.53,28.22 66.26,54.76 104.88,84.35l431.4 325.7c37.56,27.7 72.55,53.19 107.73,81.49 45.08,36.24 175.73,146.7 218.61,165.73 13.34,-17.95 79.53,-56.35 103.6,-73.93 67.25,-49.14 144.13,-95.19 215.88,-147.77 36.22,-26.55 71.02,-51.71 107.09,-77.16l747.19 -522.88c38.5,-25.36 67.4,-52.12 106.59,-77.73 120.09,-78.49 215.65,-151.16 323.52,-224.4l534.53 -376.92c37.18,-25.33 66.22,-50.07 102.55,-76.73 35.58,-26.12 76.53,-49.69 108.98,-75.34 67.69,-53.48 137.23,-101.11 210.44,-153.14 125.59,-89.28 313.27,-214.99 425.96,-301.31 37.65,-28.84 64.18,-51.29 98.5,-80.74 32.21,-27.63 66.4,-60.64 99.09,-85.26 62.62,-47.13 74.12,-60.82 117.74,-28.02 25.04,18.81 83.7,67.54 109.45,76.89 -10.38,-20.95 -177.02,-146.41 -196.18,-159.5 -174.95,-119.55 -339.13,-245.96 -504.76,-376.77 -156.19,-123.35 -361.18,-261.5 -506.76,-379.87 -113.16,-92.01 -239.2,-181.56 -352.98,-269.5 -184.05,-142.26 -372.67,-274.73 -557.83,-413.42l-406.35 -306c-95.17,-69.52 -205.31,-160.01 -305.09,-227.79 -69.83,-47.43 -135.78,-101.33 -202.65,-151.05 -35.04,-26.05 -69.6,-51.1 -103.3,-75.99 -22.14,-16.35 -85.49,-67.37 -107.15,-74.46l-1123.63 766.21c-64.44,44.53 -136.81,83.1 -210.63,133.02 -36.67,24.82 -68.92,43.24 -106.52,67.77 -107.04,69.78 -319.92,206.46 -414.09,278.36 -64.02,48.88 -134.48,96.15 -202.09,141.6 -138.31,92.96 -273.04,186.63 -408.46,278.86 -139,94.66 -267.92,186.86 -407.38,279.96 -43.04,28.74 -375.15,248.67 -409.02,279.64z"/> <path class="fil10" d="M14628.71 6117.26c35.68,26.01 11.56,-0.63 54.23,44.41 80.34,84.78 277.71,243.05 374.6,322.73 19.61,16.12 36.38,29.24 54.42,45.23l163.54 135.28c37.65,32.13 73.06,59.09 109.72,89.54 37.51,31.17 80.01,61.67 112.66,91.54l109.64 89.66c154.57,111.73 302.83,230.18 453.95,347.89 69.78,54.36 201.09,176.62 271.14,226.95 19.23,13.82 48.14,26.2 58.97,45.37 -9.61,14.4 0.77,4.5 -15.17,13.85 -14.97,22.94 -132.2,115.05 -157.76,136.92 -24.68,21.11 -29.88,24.49 -59.22,39.24 -3.89,63.8 4.69,489.9 18.13,523.97l2.76 -30.28c85.75,95.37 389.74,316.58 484.8,387.91 71.01,53.3 451.87,355.12 512.2,364.63l-3.49 11.49c35.38,-15.42 115.21,-79.92 153.27,-104.57l550.95 -380.28c9.94,-7.14 12.96,-10.31 22.63,-17.23l480.18 -336.67c96.65,-66.29 267.76,-176.42 352.29,-240.23 19.19,-14.48 27.12,-29.13 54.45,-37.13l0 -4632.38c-23.95,4.69 -106.63,64.75 -137.44,83.65l-656.49 439.56c-90.84,57.81 -160.75,113.59 -261.27,177.09l-257.84 180.5c-93.96,70.33 -165.1,124.03 -250.13,188.17 -43.82,33.05 -81.4,65.98 -123.57,95.62 -87.75,61.69 -181.98,117.08 -264.81,173.43 -44.95,30.57 -81.6,63.14 -126.32,92.87 -64.66,42.98 -279.75,178.61 -328.2,219.62 -21.12,17.87 -35.16,31.01 -61.73,47.85 -44.05,27.91 -85.4,60.8 -129.33,89.85l-256.42 181.86c-99.65,78.16 -390.09,271.22 -523.67,352.92 -44.62,27.29 -78.26,63.21 -126.78,92.33 -145.9,87.56 -254.79,168.2 -399.7,258.04 -22.68,14.06 -43.37,28.19 -64.37,45.1 -41.82,33.65 -73.44,64.41 -123.27,96.1 -13.53,8.61 -22.37,11.24 -32.76,21.77 -18.08,18.31 -7.96,24.5 -34.74,25.81z"/> <path class="fil11" d="M7082.56 12521.73l5064.63 0c10.13,-15.82 74.93,-37.71 119.87,-70.45l323.75 -229.24c77.51,-52.24 147.67,-100.65 221.66,-151.77 36.85,-25.47 72.67,-50.75 106.61,-77.68 25.01,-19.84 83.82,-63.43 98.72,-83.5 -62.84,-65.42 -215.58,-174.04 -298.03,-232.9 -51.49,-36.74 -101.41,-74.69 -154.07,-114.74l-138.28 -95.59c-12.28,-9.94 -8.89,-7.14 -15.53,-17.08 -17.88,-5.48 -152.09,-108.97 -177.38,-129.06 -89.37,-70.98 -265.94,-196.46 -356.99,-255.62 -190.88,-124.04 -350.77,-252.48 -539.35,-377.21 -61,-40.34 -115.67,-84.25 -176.78,-127.06l-531.24 -385.17c-61.13,-44.79 -115.39,-85.68 -175.1,-128.72 -58.47,-42.15 -115.73,-87.5 -174.64,-129.07 -30.58,-21.56 -57.42,-43.97 -88.21,-66.21l-265.63 -192.64c-55.06,-39.8 -323.9,-261.76 -353.49,-255.65 -42.65,24.22 -55.4,46.89 -112.23,73.73l-321.9 225.71c-98.55,67.51 -471.92,312.14 -540.79,370.55 -40.56,34.39 -470.31,327.37 -535.8,370.72 -75.44,49.91 -137.42,97.27 -215.79,147.82 -75.71,48.84 -140.11,103.33 -216.18,152.47 -202.99,131.13 -417.68,308.24 -639.15,451.57 -147.2,95.27 -288.69,204.32 -426.23,300.89l-433.53 293.71c19.85,41.75 401.92,323.02 469.27,372.47l240.63 182.77c41.21,30.94 75.78,60.54 119.29,89.86 22.74,15.31 112.8,68.69 121.87,87.09z"/> <path class="fil12" d="M-0 11355.86l0 1165.87 5021.47 0c6.05,-11.17 59.51,-36.02 71.09,-42.71l199 -134.56c158.95,-112.42 379.48,-252.03 524.4,-362.27l249.42 -192.63c-10.77,-15.56 -75.84,-62.85 -95.37,-77.75 -34.4,-26.24 -63.82,-47.42 -100.06,-74.16 -66.56,-49.11 -131.71,-98.82 -199.9,-148.79 -34.8,-25.51 -62.61,-49.88 -97.75,-76.6 -34.74,-26.42 -64.66,-48.68 -99.08,-75.19l-394.61 -302.67c-65.55,-50.68 -140.06,-97.85 -199.74,-148.97 -32.77,-28.07 -63.46,-49.45 -99.09,-75.23l-295.5 -227.54c-124.58,-98.04 -273.74,-202.9 -399.47,-297.9 -39.95,-30.19 -58.41,-45.39 -99.31,-74.8l-400.2 -297.34c-183.2,-133.93 -419.79,-335.1 -596.34,-449.47 -139.91,-90.64 -42.33,-120.28 -281.25,48.35 -122.49,86.45 -218.4,163.87 -354.93,252.87 -65.52,42.71 -120.6,81.24 -180.76,123.08 -113.01,78.6 -250.59,182.23 -357.26,250.34l-365.66 241.82c-173.18,131.81 -440.96,309.53 -629.55,436.34 -150.4,101.13 -307.24,195.04 -456.38,300.87 -29.46,20.91 -62.73,41.79 -93.26,61.11 -48.04,30.42 -238.88,169.22 -269.91,177.94z"/> <path class="fil13" d="M2153.51 4368.18c10.1,7.65 49.26,43.49 58,44.83 0.37,-25.92 -4.58,-20.96 14.92,-34.11 31.12,12.11 10.66,28.61 31.78,52.2 15.04,16.79 22.24,10.17 41.64,35.13 19.21,-2.17 58.31,-45.4 79.02,-60.19 29.55,-21.11 54.11,-43.74 84.41,-65.05 71.45,-50.23 381.56,-262.4 447.48,-294.88 29.78,-14.67 29.11,-3.02 89.67,46.15l180.09 148.66c8.88,8.83 9.16,12.07 18.86,20.85 14.59,13.21 26.29,20.5 40.51,34.37l79.82 69.62c44.33,38.76 95.24,80.12 133.89,119.94l183.34 155.46c55.9,44.83 102.37,90.86 156.36,137.43 54.11,46.65 103.7,88 162,136.83 107.22,89.78 216.17,176.21 323.42,269.35l238.88 204.28c57.28,52.43 178.02,143.83 241.51,201.85 55.08,50.33 95.16,68.85 163.23,136.98 25.02,-0.91 18.54,18.36 18.13,44.67 -0.37,23.29 -0.31,46.6 -0.53,69.9 -0.43,45.35 -1.77,90.87 -0.47,136.18 20.6,2.15 29.23,14.69 44.38,25.42 158.41,112.2 301.23,225.44 456.19,340.55 57.14,42.44 113.04,80.12 171.2,122.7l628.62 462.45c19.32,13.18 32.16,18.94 21.09,49.1 51.03,-14.79 878.16,-581.35 949.71,-630.06l103.59 -70.77c66.64,-49.7 134.39,-97.38 204.9,-143.71 70.77,-46.5 139.4,-93.25 207.12,-141.42 33.97,-24.17 193.01,-122.58 201.86,-150.45l-671.73 -517.41c-55.55,-43.71 -115.69,-83.17 -172.12,-126.79l-507.37 -389.09c-57.95,-43.17 -109.06,-90.08 -166.28,-132.62l-340.72 -256.95c-30.36,-22.05 -54.72,-41.34 -85.75,-63.64l-420.45 -326.69c-27.98,-22.85 -51.37,-44.17 -81.83,-67.56 -56.27,-43.22 -246.17,-155.12 -262.54,-186.14 30.91,12.38 77.49,44.85 113.81,53.62 -28.07,-29.34 -54.73,-31.78 -91.26,-55.82 -31.64,-20.82 -55.41,-41.92 -84.29,-65.02 -49.61,-39.7 -144.19,-79.64 -160.17,-136.62 13.07,-22.19 61.39,-43.45 88.66,-59.59 38.88,-23.02 57.64,-39.11 90,-64.4 54.93,-42.94 119.83,-83.6 179.42,-124.46 154.93,-106.27 291.87,-200.88 459.9,-297.01 35.16,-20.12 77.52,-40.98 78.76,-77.18l-1.62 -304.3c0.63,-100.57 -1.94,-198.55 -3.31,-298.85 -0.57,-41.48 9.14,-107.19 -15.75,-135.4 -16.22,-18.38 -68.57,-60.22 -74.18,-78.77l16.05 -10.21c17.7,-20.22 9.63,-85.25 10.2,-115.85 -3.81,-28.05 -54.99,-58.66 -78.65,-77.13 -18.78,-14.66 -73.86,-57.68 -89.78,-62.8l-19.99 -4.32c-26.21,30.63 -182.71,142.18 -215,163.77 -36.35,24.3 -69.5,53.66 -108.39,80.88 -76.52,53.54 -207.19,151.74 -273.98,194.17l-988.61 699.96c-14.47,9.89 -38.9,27.34 -56.42,38.22 -65.61,40.73 -109.71,75.98 -165.3,113.56l-445.55 306.5c-72.61,47.96 -175.01,132.71 -244.41,178.97l-81.45 57.98c-11.6,8.71 -15.7,11.72 -25.81,19.13l-678.82 491.84c-30.91,21.52 -182.31,118.57 -194.25,134.68 -9.9,13.35 -9.24,17.7 -5.62,27.07z"/> <path class="fil14" d="M7594.17 759.62c-8.41,24.44 -86.48,67.94 -111.02,84.13 -38.65,25.5 -73.03,52.78 -110.12,79.13 -142.19,101.01 -307.58,210.45 -443.12,308.96l-440.56 311.59c-135.26,91.51 -316.28,222.68 -449.5,302.63 -56.46,33.89 -160,121.79 -214.29,159.66 -0.57,30.61 7.51,95.63 -10.2,115.85 25.19,-2.83 54.43,30.51 72,45 22.3,18.41 43,33.25 66.82,52.71 210.7,172.11 456.71,362.3 660.55,534.77 78.01,66.02 180.86,137.46 267.21,210.92 42.8,36.42 85.87,70.78 132.82,106.3l261.7 216.53c94.72,80.06 630.81,515.5 677.87,524.38l155.5 -105.13c52.22,-35.36 98.38,-71.48 150.44,-108.58l455.43 -321.69c27.01,-18.39 49.62,-35.27 75.92,-53.56l372.14 -280.44c99.42,-73.49 206.17,-141.42 307.7,-210.15l530.28 -376.46c27.91,-18.42 49.65,-36.35 75.12,-54.34 81.07,-57.3 146.74,-98.08 228.62,-159.97 11.81,-8.92 23.48,-17.46 40.12,-24.96 35.48,-16.02 26.44,-19.64 44.22,-24.5 -1.67,-29 -1.1,-84.17 -16.55,-103.01 -9.18,-11.19 -20.38,-16.73 -31.03,-29.13 -27.44,-31.93 -40.82,-33.81 -62.39,-57.11l-158.22 -140.71c-23.32,-20.21 -47.25,-37.79 -63.17,-56.3 -30.78,-35.8 -206.8,-180.75 -253.76,-224.28 -30.32,-28.11 -136.62,-110.15 -161.77,-137.14 -22.72,-24.38 -24.9,-15.58 -61.48,-58.03 -11.84,-13.76 -18.5,-16.56 -32.32,-27.56 -42.33,-33.7 -56.05,-52.07 -96.52,-82.64 -15.71,-11.87 -17.52,-16.47 -31.39,-28.38 -8.61,-7.4 -22.24,-17.03 -33.68,-26.14l-65.85 -53.78c-13.7,-10.97 -15.88,-18.47 -29.89,-29.72l-189.76 -168.85c-64.82,-71.3 -110.59,-87.06 -164.17,-134.81l-90.78 -88.49c-41.04,-43.69 -92.17,-78.92 -122.57,-116.54 -10.81,-13.38 -17.12,-17.48 -31.52,-28.19l-191.3 -167.43c-14.28,-12.67 -83.83,-82.24 -87.15,-95.15l-16.91 -19.51c-56.33,3.89 -331.12,217.56 -406.78,270.31l-396.68 269.84z"/> <path class="fil15" d="M13807.72 10718.07c-21.6,-106.52 7.57,-289.79 6.3,-353.25 -0.63,-31.31 -7.76,-80.1 -9.64,-118.03 -1.82,-36.95 -3.36,-75.18 -5.17,-112.14 -1.3,-26.68 3.32,-31.85 4.89,-53.35 2.01,-27.49 -13.33,-201.54 -7.41,-299.02 4.85,-80.06 -3.3,-155.28 -3.73,-234.22 -0.14,-27.92 1.31,-28.52 17.22,-41.22 12.61,-10.07 21.16,-15.59 34.73,-24.96 24.88,-17.19 48.52,-33.7 73.31,-51.29l239.33 -179.15c13.51,-11.62 21.15,-24.86 31.9,-32.67 4.92,222.55 -5.29,491.56 2.22,708.16 2.64,75.93 5.94,162.67 3.46,238.88 -2.58,79.19 10.77,150.7 11.21,229.14 0.34,59.28 -1.62,53.66 -40.98,79.49 -117.59,77.13 -207.96,132.27 -317.22,220.81 -13.25,10.72 -19.01,23.49 -40.42,22.82zm-10180.78 -4088.75c17.02,-12.58 24.39,-8.77 44.4,-19.31 14.47,-7.61 19.97,-17.08 33.86,-26.03 12.87,-8.29 27.42,-12.61 39,-20.65 13.65,-9.49 16.06,-20.26 28.99,-26.48 5.16,113.49 6.46,237.69 6.83,351.59 0.37,116.02 7.32,234.03 5.24,348.67 -0.69,38.69 -5.94,582.53 -1.14,614.99 3.53,23.82 16.5,44.27 15.81,67.37 -25.89,19.47 -44.65,19.32 -61.66,52.7 -13.49,-2.51 -11.86,-9.63 -21.45,2.73 -15.46,19.88 2.11,8.91 -21.58,23.53 -28.52,17.6 -25.87,28.8 -47.95,34.85l4.52 -357.86c-1.77,-54.28 -7.54,-122.69 -5.29,-174.28 2.18,-50.01 7.34,-127.17 4.85,-174.38 -8.98,-170.63 0.51,-383.43 -8.6,-536.65 -2.81,-47.25 -18.7,-120.74 -15.83,-160.79zm167.08 -101.01c70.09,-42.46 206.1,-167.32 256.74,-174.89l-2.41 281c0,1.94 27.92,1169.3 -8.42,1205.75 -16.68,8.88 -40.19,7.45 -60.99,13.45 -15.65,4.53 -157.17,59.73 -165.95,50.9l5.2 -284.94c11.43,-116.88 2.15,-199.79 5.13,-307.76 4.66,-168.96 -10.11,-337.42 -8.93,-498.09 0.68,-92.79 -26.32,-202.37 -20.35,-285.42zm6959.75 -3325.86c82.95,65.6 166.36,126.28 249.24,194.02l242.5 194.69 -123.19 84.95c-31.9,27.43 -86.59,55.75 -125.56,83.61l-488.48 343.3c-26.73,19.25 -235.14,163.12 -247.98,165.48 -19.6,-79.89 -12.79,-283.81 -13.16,-378.5l1.63 -1061.57 505.01 374.02zm-4856.78 -164.14c11.95,14.38 8.78,33.62 17.14,47.86 8.24,-36.03 21.03,-7.8 20.42,-82.64l-0.68 -740.35c40.88,7.35 80.19,50.29 108.25,72.24 99.59,77.88 176.11,148.7 288.28,234.83 157.95,121.28 331.17,254.95 485.06,381.65l194.2 154.39c17.32,14.45 31.32,23.53 47.38,37.32 17,14.58 28.74,26.82 44.29,40.46l95.68 78.53c102.33,95.38 105.29,83.33 194.05,154.66 88.78,71.34 203.19,169.58 286.72,231.39l194.16 149.49c61.94,45.35 63.76,20.9 63.5,111.78 -0.16,58.29 0.73,116.08 1.53,174.33 4.56,338.57 -0.51,696.45 -1.33,1036.01 -0.28,116.18 1.81,232.6 1.13,348.66 -0.56,96.36 14.49,252.06 2.09,338.98 -21.04,-5.79 -15.09,-22.15 -65.69,-53.29 -46.24,-28.45 -153.19,-114.09 -193.81,-150.04 -99.28,-87.87 -277.3,-214.71 -391.2,-301.19 -220.62,-167.52 -435.58,-323.42 -655.13,-495.46l-519.79 -401.58c-54.36,-36.51 -90.21,-51.41 -133.25,-96.02 -18.29,-18.96 -38.08,-36.96 -46.74,-68.7l-14.6 -94.09c-0.16,-1.87 -0.81,-2.4 -1.47,-3.49 -17.43,13.61 -8.82,48.95 -10.86,94.6 -40.48,-3.24 -12.32,0.24 -21.49,-11.41 -18.53,-12.69 -35.82,-20.18 -54.86,-35.82 -155.84,-127.99 -313.13,-239.53 -469.08,-362.69l-207.86 -160.9c-29.56,-21.44 -84.97,-58.46 -92.42,-91.62 18.88,-26.69 69.69,-49.71 102.32,-71.82l206.12 -142.58c18.36,-12.05 30.24,-23.78 48.61,-36.05l256.96 -171.35c37.37,-23.87 184.45,-128.99 218.59,-126.23l3.79 10.12zm3072.07 264.38c50.39,-3.18 156.74,-97.79 217.65,-137.8 59.34,-38.96 103.23,-59.61 155.16,-108.81 48.29,-45.74 -21.4,-117.18 66.26,-197.64 71.13,-65.29 122.5,-94.56 200.91,-147.87 25.77,-17.53 76.41,-71.38 102.92,-70.69 16.6,52.39 12.97,259.34 13.11,338.63l-0.67 458.05c-0.31,49.84 4.4,98.59 4.46,149.61l1.1 174.35c0.6,29.85 -5.16,42.96 -6.15,65.12 -1.59,36 4.41,92.55 4.31,134.09 -1.44,229.32 -3.33,428.32 1.62,654.17 -22.4,10.54 -74.47,51.35 -99.75,70.22l-298.53 209.49c-66.04,46.13 -129.88,94.58 -198.56,140.05 -32.69,21.64 -182.12,124.66 -208.15,131.51 4.62,-407.02 2.87,-776.93 1.11,-1180.53 -0.58,-131.73 3.19,-423.28 -3.14,-518l7.86 -302.93c35.09,5.97 2.51,65.2 38.5,138.98zm-990.28 587.31c-0.62,-46.13 6,-45.37 36.75,-63.33 58.39,-34.1 569.23,-400.19 633.84,-446.99 38.51,-27.89 74.8,-56.15 114.67,-84.57l112.72 -84.53c-5.96,131.59 -0.15,261.91 -0.33,395.52l4.67 1374.7c1.18,249.39 24.79,196.22 -93.03,275.93 -22.21,15.03 -44.02,34.32 -68.06,51.48 -182.68,130.31 -389.86,270.15 -577.47,393.84 -25.41,16.76 -46.22,32.35 -69.87,49.64 -19.01,13.91 -51.92,42.53 -68.55,50.81l-6.19 -14.49c-11.59,-46.92 -12.9,-707.61 -13.48,-827.13l-5.68 -1070.88zm1786.04 -961.29c0.13,-46.63 -2.7,-92.69 -3.47,-139.46 -0.77,-47.17 4.31,-92.84 3.68,-139.47 -1.09,-81.13 -22.34,-66.55 34.11,-107.61l408.28 -293.62c13.76,69.46 1.8,264.31 1.51,346.45l1.24 1504.2c0.04,274.89 25.64,204.58 -81.33,272.01l-194.92 123.89c-23.67,13.77 -47.7,23.72 -70.01,39.58 -23.45,16.69 -36.33,31.17 -76.65,26.14 -32.56,-36.23 -16.76,-195.26 -16.84,-252.43l-5.6 -1379.68zm-3949.46 -807.13l-16.05 10.21c5.61,18.56 57.96,60.4 74.18,78.77 24.89,28.21 15.18,93.92 15.75,135.4 1.36,100.29 3.94,198.28 3.31,298.85l1.62 304.3c-1.24,36.19 -43.6,57.06 -78.76,77.18 -168.03,96.12 -304.96,190.74 -459.9,297.01 -59.58,40.86 -124.48,81.52 -179.42,124.46 -32.36,25.28 -51.12,41.38 -90,64.4 -27.28,16.15 -75.59,37.4 -88.66,59.59 15.98,56.98 110.56,96.92 160.17,136.62 28.88,23.1 52.65,44.2 84.29,65.02 36.53,24.04 63.19,26.48 91.26,55.82 -36.31,-8.77 -82.9,-41.24 -113.81,-53.62 16.36,31.02 206.27,142.92 262.54,186.14 30.45,23.39 53.85,44.71 81.83,67.56l420.45 326.69c31.03,22.3 55.39,41.6 85.75,63.64l340.72 256.95c57.22,42.54 108.33,89.45 166.28,132.62l507.37 389.09c56.43,43.62 116.57,83.08 172.12,126.79l671.73 517.41c-8.85,27.87 -167.89,126.28 -201.86,150.45 -67.72,48.17 -136.36,94.92 -207.12,141.42 -70.51,46.33 -138.27,94.01 -204.9,143.71l-103.59 70.77c-71.55,48.71 -898.69,615.26 -949.71,630.06l-1145.68 786.1c-28.34,18.59 -55.4,36.29 -83.83,55.59 -25.03,16.98 -52.82,50.79 -86.58,50.35 -9.04,-56.32 -3.62,-869.72 -3.37,-947.61 0.78,-234.85 3.85,-478.06 -1.92,-712.25 -1.89,-76.99 2.39,-156.87 -0.1,-232.4 -1.3,-45.31 0.04,-90.83 0.47,-136.18 0.22,-23.3 0.16,-46.61 0.53,-69.9 0.41,-26.31 6.89,-45.57 -18.13,-44.67 -55.56,20.3 -115.82,61.28 -163.9,91.39 -53,33.19 -100.42,65.32 -153.94,100.2l-527.89 353.44c-26.13,20.8 -33.94,34.76 -69.05,55.87 -49.23,29.61 -99.63,80.32 -145.78,108.5 -13.9,8.49 -27.75,12.83 -43.25,21.58l-107.29 76.54c-24.52,19.98 -46.6,32.91 -75.77,53.84 -27.67,19.84 -40.87,39.87 -68.16,56.59 -40.88,25.04 -44.12,8.04 -82.09,46.98 -37.03,37.94 -95.81,58.16 -149.61,104.49l-517.55 358.81c-47.07,35.02 -100.39,72.46 -147.49,106.49 -194.1,140.22 -103.55,136.9 -275.9,0.56 -134.97,-106.77 -245.99,-212.96 -378.96,-318.39l-255.64 -212.54c-270.13,-216.66 -498.62,-413.66 -761.32,-633.36 -110.82,-92.67 -212.81,-168.24 -324.64,-258.07 -95.37,-76.61 -138.7,-73.17 -183.46,-161.14 -19.43,-0.49 -4.51,-2.05 -10.7,3.4 14.47,45.94 48.18,99.26 83.96,118.24 29.93,15.89 41.75,14.28 43.95,55.76 1.74,32.65 0,67.05 0.04,99.95l-0.22 806.89c-0.13,129.88 6.5,279.14 0.65,406.12 -3.09,73.41 2.81,148.39 3.73,221.46 0.49,38.22 1.05,76.43 1.35,114.65 0.36,43.7 -5,70.49 35.12,78.81 4.69,-64.44 0.24,-146.99 -0.14,-213.39l-1.92 -1470.16c5.03,-3.06 -3.07,-1.82 11.96,-4.27l33.34 5.47c33.24,12.84 193.63,151.97 207.46,166.32 44.43,46.13 281.53,234.3 350.55,291.99 23.41,19.57 35.66,30.87 57.84,51.64 17.12,16.04 39.32,31.32 57.25,47.41 76.23,68.34 152.92,124.93 232.08,191.24 78.14,65.46 152.62,130.22 233.13,195.29l232.21 191.05c73.78,66.05 159.93,126.74 236.29,192.19 68.45,58.66 156.92,145.36 229.8,192.57 7.52,127.48 0.65,281.86 0.81,412.49l7.9 821.83c0.77,132.91 9.42,272.43 8.76,403.52 1.92,24.55 48.54,61.95 69.08,79.57 56.06,48.1 214.52,173.38 232.93,219.21 -33.11,66.78 -718.91,504.72 -878,629.9 -39.08,30.75 -87.48,56.94 -130.43,88.66l-256.67 176.79c-43.53,29.22 -87.93,55.52 -130.36,83.85 -78.72,52.54 -98.69,76.18 -190.57,133.2 -48.62,30.16 -137.77,100.68 -191.86,136.86 -52.27,34.97 -222.5,154.19 -263.42,171.81l-703.97 469.55c-22.95,15.31 -79.59,58.06 -102.57,65.67l0 40.63c31.03,-8.72 221.88,-147.52 269.91,-177.94 30.54,-19.32 63.81,-40.2 93.26,-61.11 149.13,-105.83 305.98,-199.75 456.38,-300.87 188.58,-126.81 456.37,-304.54 629.55,-436.34l365.66 -241.82c106.67,-68.1 244.25,-171.73 357.26,-250.34 60.15,-41.84 115.24,-80.36 180.76,-123.08 136.54,-89 232.45,-166.42 354.93,-252.87 238.92,-168.63 141.34,-138.99 281.25,-48.35 176.55,114.37 413.14,315.54 596.34,449.47l400.2 297.34c40.89,29.41 59.36,44.61 99.31,74.8 125.73,95 274.89,199.87 399.47,297.9l295.5 227.54c35.63,25.78 66.32,47.16 99.09,75.23 59.68,51.12 134.19,98.29 199.74,148.97l394.61 302.67c34.42,26.52 64.35,48.77 99.08,75.19 35.14,26.72 62.95,51.09 97.75,76.6 68.19,49.97 133.33,99.67 199.9,148.79 36.24,26.74 65.66,47.91 100.06,74.16 19.53,14.9 84.61,62.19 95.37,77.75l-249.42 192.63c-144.92,110.24 -365.44,249.85 -524.4,362.27l-199 134.56c-11.58,6.7 -65.04,31.54 -71.09,42.71l89.51 0c13.03,-35.79 292.94,-214.92 362.9,-264.06 41.98,-29.48 81.66,-60.21 125.9,-88.3l188.94 -124.83c19.97,-14.47 40.34,-31.05 60.17,-44.42l242.63 -182.04c26.07,10.07 94.9,68.97 117.76,87.75 103.28,84.94 232.42,174.38 346.87,265.72 36.52,29.15 77.08,59.37 117.53,86.71l352.62 263.47 56.26 0c-9.07,-18.4 -99.12,-71.77 -121.87,-87.09 -43.51,-29.31 -78.08,-58.91 -119.29,-89.86l-240.63 -182.77c-67.35,-49.45 -449.42,-330.72 -469.27,-372.47l433.53 -293.71c137.54,-96.57 279.03,-205.63 426.23,-300.89 221.47,-143.32 436.16,-320.44 639.15,-451.57 76.07,-49.15 140.47,-103.63 216.18,-152.47 78.37,-50.55 140.35,-97.91 215.79,-147.82 65.5,-43.35 495.25,-336.32 535.8,-370.72 68.87,-58.41 442.24,-303.04 540.79,-370.55l321.9 -225.71c56.83,-26.84 69.58,-49.51 112.23,-73.73 29.59,-6.12 298.43,215.84 353.49,255.65l265.63 192.64c30.79,22.24 57.63,44.65 88.21,66.21 58.91,41.56 116.18,86.91 174.64,129.07 59.71,43.04 113.97,83.93 175.1,128.72l531.24 385.17c61.11,42.81 115.78,86.71 176.78,127.06 188.57,124.73 348.46,253.16 539.35,377.21 91.05,59.16 267.62,184.64 356.99,255.62 25.3,20.09 159.5,123.58 177.38,129.06l23.5 6.98c1.07,-22.01 2.76,-11.01 0.15,-30.87l-541.04 -397.42c-86.91,-38.9 -545.31,-371.21 -656.85,-449.31 -16.48,-11.54 -28.29,-20.79 -45.5,-34.13 -16.19,-12.53 -35.35,-18.38 -43.92,-37.88 -34.35,-8.77 -521.79,-366.58 -587.16,-416.94 -100.09,-77.12 -191.21,-138.32 -291.55,-211.66l-486.48 -360.38c-21.64,-15.86 -185.45,-138.89 -171.67,-159.68 21.88,-18.41 46.78,5.18 66.74,-28.23 27.87,-46.62 -6.34,-17.49 45.64,-48.46 34.44,-20.51 79.04,-52.48 108.25,-81.39l171.53 -112.18c82.9,-52.72 24.57,-14.6 53.86,-45.71 10.48,-11.12 39.58,-11.64 61.78,-33.07 33.54,-32.37 19.77,-15.36 59.22,-35.03l109.08 -80.6c11.74,-7.37 19.45,-8.48 29.67,-15.15 16.94,-11.06 10.55,-13.03 23,-26.76 22.77,-25.13 57.37,-2.45 117.38,-71.6 29.13,-33.56 25.89,-23.03 63.88,-35.84 25.41,-23.69 16.08,-49.35 63.1,-60.98 27.11,-6.7 121.92,-79.69 153.69,-101.08 36.78,-24.76 20.27,-36.54 73.62,-55.3 43.51,-15.3 8.2,-26.11 66.71,-58.23 30.4,-16.69 52.3,-36.99 77.76,-51.67 17.43,-10.04 23.85,-8.73 38.99,-20.62 28.21,-22.17 88.21,-63.68 121.05,-70.62 9.24,8.57 37.39,34.85 40.7,48.2 20.71,10.84 157.03,128.68 185.65,152.53l374.46 303.03c31.75,24.51 141.5,101.36 162.08,131.33l16.43 19.98c0.83,0.89 2.22,2.36 2.9,3.09 0.7,0.74 2.03,2.05 2.96,3.14 30.98,17.13 49.05,34.76 76.24,54.87l386.72 290.78c53.16,42.02 98.29,80.95 151.36,122.48 103.94,81.29 204.86,156.77 304.07,238.92l226.2 182.2c24.67,19.42 51.54,44.82 74.56,61.18 13.53,10.92 21.61,18.12 28.65,35.06l19.31 -2.44c29.78,-2.05 114.98,-76.03 145.5,-96.95 134.99,-92.54 229.05,-168.81 354.46,-268.1 18.26,-14.46 44.94,-51.55 71.94,-50.11 11.94,77.55 3.98,232.67 3.71,317.75l5.77 632.57c0.51,46.13 -7.13,298.44 -1.8,316.78 3.01,1.28 11.24,-5.45 19.76,-11.59 16.28,-11.74 82.43,-87.85 121.72,-117.73 11.52,-8.76 16.65,-14.54 26.66,-23.29 8.17,-7.15 17.97,-14.28 28.16,-21.72l262.48 -165.8c11.02,-6.87 19.52,-13.61 23.09,-24.56l0.38 -1242.13c-1.09,-57.76 -13.82,-41.51 78.65,-110.33 75.84,-56.45 137.75,-116.33 215.83,-167.87 72.72,-48.01 193.09,-147.72 219.41,-163.91 -5.66,-10.54 -14.93,-17.83 -26.97,-20.91 -30.21,10.31 -160.44,113.12 -196.93,140.7 -96.44,72.88 -195.33,142 -287.6,220.47 -112.07,95.31 -352.77,285.97 -473.22,373.35 -33.97,24.64 -60.72,49.71 -94.04,75.38 -32.39,24.94 -66.61,46.79 -98.51,70.94 -67.59,51.17 -128.12,98.25 -190.81,147.75 -21.27,16.79 -184.69,142.36 -197.08,143.06 -37.36,2.11 -700.13,-552.82 -778.42,-612.61 -44.71,-34.14 -83.91,-65.61 -128.77,-100.34 -173.65,-134.42 -347.92,-263.29 -516.47,-405.02 -126.52,-106.39 -250.83,-199.25 -382.01,-310.25 -78.99,-66.85 -183.89,-133.44 -240.19,-217.29 -42.88,-19.03 -173.53,-129.49 -218.61,-165.73 -35.19,-28.3 -70.18,-53.8 -107.73,-81.49l-431.4 -325.7c-38.62,-29.59 -68.36,-56.14 -104.88,-84.35 -42.99,-33.2 -49.94,-33.33 -108.47,-80.8l-156.53 -127.54c-75.11,-49.9 -88.51,-65.05 -163.6,-120.14l-424.85 -329.07 98.31 87.7c18.93,14.74 33.93,29.61 50.24,44.53l356.74 295.91c38.38,24.15 13.33,1.28 55.4,39.05 16.85,15.12 30.2,24.14 51.03,38.53 43.43,30.02 68.88,54.43 105.05,84.27 51.23,42.27 32.54,14.44 102.19,82.03 25.28,24.55 171.97,129.28 212.94,160.73 73.39,56.33 140.19,106.92 211.72,161.81 47.76,36.66 412.15,309.43 422.47,325.73 -9.71,18.8 -50.4,40.55 -71.38,54.04l-212.35 151.29c-29.08,21.55 -43.82,29.13 -71.33,53.23 -21.42,18.76 -52.06,24.93 -75.47,44l-105.31 78.84c-61.36,23.82 -28.06,30.11 -72.06,52.76 -14.31,7.37 -24.96,12.23 -37.91,21.72 -64.97,47.67 -42.33,37.17 -64.4,55.29 -13.8,11.33 -26.1,13.05 -42.72,21.77l-67.65 52.12c-7.61,7.34 -22.17,24.42 -30.96,27.97 -21.33,8.63 -29.73,-1.47 -48.67,17.04 -12.46,12.17 -11.21,22.29 -28.51,30.91 -23.69,11.78 -24.62,-2.53 -41.82,18.38 -45.97,55.9 -21.94,21.09 -66.44,52.81l-66.28 53.27c-20.96,14.06 -24.35,6.84 -43.38,16.74 -14.02,22.04 -12.48,33.35 -36.01,42.69 -19.33,7.67 -42.02,2.01 -60.83,14.69 -24.5,16.53 -16.71,29.03 -32.29,42.27 -12.23,10.38 -33.66,13.41 -47.69,27.05 -21.6,20.98 -3.96,22.92 -37.14,37.19 -25.69,11.04 -29.83,13.16 -46.67,28.45 -14.82,13.47 -19.73,24.03 -42.99,32.16 -28.32,9.9 -26.54,9.24 -48.42,25.92 -17.83,24.09 -60.61,44.86 -99.45,84.82 -41.82,43.02 -107.92,79.71 -158.26,115.41 -19.26,13.65 -29.76,27.16 -52.29,42.39 -20.83,14.08 -34.54,18.1 -56.22,33.48 -18.12,12.85 -32.94,27.79 -54.84,39.78l-109.7 74.73c-25.05,23.49 -72.23,56.45 -108.22,75.73 -67.11,35.96 -157.11,102.81 -219.43,149.63 -61.49,46.2 -81.34,44.54 -117.37,66.99 -22,13.71 -28.89,36.08 -100.84,83.49 -54.94,36.19 -352.23,233.37 -381.97,260.35 -18.65,16.93 -36.04,21.98 -59,35.88l-222.3 151.17c-147.05,100.46 -287.65,202.24 -433.28,303.94 -144.26,100.73 -281.59,208.17 -435.15,306.99 -151.8,97.7 -288.87,199.45 -434.1,302.87 -20.05,14.28 -33.53,27.68 -51.21,38.64 -56.73,35.17 -54.5,31.79 -108.85,75.36 -21.62,17.33 -38.25,19.38 -57.7,36.76 -32,28.59 -76.85,48.44 -112.4,72.31 -104.02,69.86 -81.6,120.44 -158.32,51.27 -35.38,-31.9 -109.14,-77.84 -153.19,-110.81l-493.67 -378.08c-34.13,-25.11 -73.12,-48.5 -104.19,-75.02l-499.98 -376.68c-87.09,-70.15 -117.91,-89.2 -198.37,-150.25 -161.51,-122.54 -335.73,-262.31 -499.04,-382.56l-402.96 -299.27c-127.77,-97.53 -267.64,-208.98 -401.18,-301.16 -68.58,-47.34 -134.08,-99.69 -197.51,-151.11l-198.09 -154.39c9.21,-22.55 73.19,-62.49 98.79,-78.14l164.44 -109.24c79.45,-37.31 34.67,-37.15 162.95,-115.99l220.57 -143.27c70.94,-54.04 141.12,-99.38 217.55,-150.96 127.12,-85.76 180.73,-133.85 325.46,-222.48 85.17,-52.17 132.13,-99.15 215.59,-148.13l167.31 -106.55c23.13,-17.7 25.83,-28.51 45.93,-48.73 14.51,-14.59 92.83,-58.06 112.85,-71.34 35.44,-23.5 69.93,-49.81 105.35,-74.02 91.71,-62.68 130.82,-101.32 209.53,-159.12 18.18,-13.35 32.06,-25.51 50.61,-38.95 18.13,-13.15 38.27,-25 56.72,-37.96l432.82 -299.1c35.69,-24.47 67.64,-51 103.01,-76.32 52.69,-37.73 105.85,-67.11 162.01,-112.01 43.29,-34.62 118.57,-77.23 167.26,-111.71l331.24 -216.7c36.24,-22.47 76.19,-50.09 113.99,-71.34 66.66,-47.79 140.06,-95 207.17,-140.65 68.24,-46.42 137.13,-91.86 206.46,-137.14 312.48,-204.06 613.1,-431.02 922.55,-636.43l207.11 -141.62c32.4,-21.61 71.49,-50.71 106.78,-66.23 33.87,-30.97 365.98,-250.89 409.02,-279.64 139.46,-93.1 268.38,-185.31 407.38,-279.96 135.43,-92.23 270.16,-185.9 408.46,-278.86 67.6,-45.44 138.06,-92.71 202.09,-141.6 94.17,-71.9 307.05,-208.58 414.09,-278.36 37.61,-24.52 69.85,-42.95 106.52,-67.77 73.82,-49.92 146.19,-88.49 210.63,-133.02l1123.63 -766.21c21.66,7.09 85.01,58.11 107.15,74.46 33.7,24.89 68.25,49.94 103.3,75.99 66.87,49.71 132.81,103.62 202.65,151.05 99.78,67.78 209.92,158.27 305.09,227.79l406.35 306c185.16,138.69 373.79,271.16 557.83,413.42 113.78,87.94 239.82,177.49 352.98,269.5 145.57,118.38 350.57,256.52 506.76,379.87 165.63,130.81 329.81,257.22 504.76,376.77 19.16,13.1 185.81,138.55 196.18,159.5 25.27,13.56 58.92,49.32 84.24,64.1 26.78,-1.31 16.66,-7.5 34.74,-25.81 10.39,-10.53 19.23,-13.17 32.76,-21.77 49.83,-31.7 81.45,-62.45 123.27,-96.1 21,-16.9 41.69,-31.03 64.37,-45.1 144.91,-89.83 253.8,-170.48 399.7,-258.04 48.52,-29.12 82.16,-65.04 126.78,-92.33 133.58,-81.69 424.01,-274.76 523.67,-352.92l256.42 -181.86c43.94,-29.05 85.29,-61.94 129.33,-89.85 26.57,-16.84 40.61,-29.99 61.73,-47.85 48.45,-41.01 263.54,-176.64 328.2,-219.62 44.72,-29.73 81.37,-62.3 126.32,-92.87 82.83,-56.35 177.07,-111.74 264.81,-173.43 42.17,-29.64 79.74,-62.58 123.57,-95.62 85.03,-64.13 156.18,-117.84 250.13,-188.17l257.84 -180.5c100.52,-63.49 170.43,-119.27 261.27,-177.09l656.49 -439.56c30.81,-18.89 113.49,-78.96 137.44,-83.65l0 -60.55c-20.23,6.29 -68.83,43.87 -89.28,58.31 -22.73,16.07 -65.64,44.74 -91.94,55.43l-323.95 220.96c-112.03,74.86 -216.77,147.31 -325.27,222.67l-643.69 446.17 -74.59 65.73c-48.26,42.34 -184.73,134.84 -238.61,170.09 -31.16,20.38 -50.55,44.69 -78.53,60.89 -32.47,18.81 -50.21,33.69 -80.94,53.72 -29.23,19.07 -52.41,31.7 -79.92,54.29 -24.18,19.85 -56.34,32.13 -83.56,51.05 -13.27,9.22 -27.65,20.92 -40.51,29.31 -17.14,11.2 -27.83,12.01 -44.83,24.64l-118.57 85.97c-17.26,10.45 -24.35,10.87 -40.47,24.07 -66.85,54.77 -124.27,85.19 -160.58,113.36 -14.79,11.48 -17.59,18.94 -37.56,32.29l-280.53 192.39c-76.47,64.23 -308.58,216.4 -400.61,277.12 -58.46,38.56 -104.76,75.02 -156.57,112.29 -103.96,74.77 -219.22,140.09 -329.52,213.31 -38.71,25.69 -306.25,219.49 -319.59,222.53 -27.08,-73.01 -7.34,-646.6 -7.21,-776.24l1.66 -991.18c-0.31,-76.68 -14.01,-147.38 20.75,-179.2l441.69 -350.3c38.54,-26.37 82.66,-54.06 118.21,-81.01 39.6,-30.03 65.92,-55.73 112.69,-81.88 30.1,-16.82 32.08,-22.57 52.52,-46.71 22.58,-26.67 32,-21.1 63.38,-36.07l118.85 -80.76c39.98,-26.37 79.92,-54.8 115.74,-83.52 35.62,-28.57 76.98,-51.14 114.8,-79.4l111.83 -87.45c37.21,-27.2 73,-62.6 110.82,-88.4 21.09,-14.4 50.54,-18.83 64.59,-34.89 25.08,-28.66 2.94,-31.21 48.96,-50.75 25.37,-10.77 38.01,-27.94 56.33,-43.28 18.73,-15.71 37.22,-25.75 54.79,-39.92 36.82,-29.67 -0.81,-11.23 56.88,-42.89 20.37,-11.18 30.83,-27.31 56.23,-43.25 77.83,-48.85 157.25,-118.69 236.69,-161.86 67.29,-36.57 44.01,-52.54 112.14,-82.17 32.39,-14.08 31.28,-26.8 53.97,-45.38 20.6,-16.87 44.47,-13.71 66.88,-32.77 10.06,-8.56 14.94,-16.09 26.24,-23.61 44.81,-29.78 7.75,2.24 88.96,-60.49 18.14,-14.02 39.62,-25.76 59.73,-39.95 70.29,-49.56 100.39,-84.86 175.81,-116.96 10.41,-17.58 27.61,-33.93 44.85,-45.67 29.82,-20.27 27.85,-16.84 16.14,-57.97 -19.63,3.63 -389.39,263.37 -422.29,294.41 -33.47,31.57 -48.71,28.54 -85.37,54.19 -28.81,20.16 -50.14,39.55 -83.29,61.16 -61.76,40.25 -117,87.34 -164.79,119.15l-253.21 175.15c-108.39,82.35 -213.75,164.22 -322.84,244.94 -28.36,20.98 -53.72,41.82 -81.04,63.43l-244.91 183.35c-126.31,94.66 -207.11,137.65 -332.93,234.81 -128.28,99.07 -286.36,207.71 -409.29,307.94 -30.66,24.99 -221.15,184.84 -239.58,185.16 -35.41,-10.39 -111.85,-76.88 -140.35,-100.15 -44.05,-35.97 -87.78,-68.91 -134.5,-104.56 -46.18,-35.25 -87.76,-67.9 -134.58,-104.5 -224.47,-175.45 -456.38,-342.79 -679,-516.44 -89.34,-69.68 -179.08,-135.68 -273.73,-204.44 -44.88,-32.6 -94.65,-67.21 -136.95,-102.15 -130.78,-108.03 -467.28,-336.26 -543.68,-412.6 -41.92,-41.88 -76.39,-99.95 -11.9,-143.97 -9.38,2.95 -10.07,4.9 -16.75,8.94 -13.31,8.06 -1.81,3.61 -20.46,11.09 -5.9,12.29 -53.25,27.68 -33.95,72.37 11.52,26.7 34.87,34.78 48.28,72.82 15.02,12.35 31.38,28.52 45.36,42.88 54.64,56.16 285.65,214.15 349.72,262.93l401.43 300.85c266.87,203.07 528.7,402.74 797.25,602.31l397.46 304.83c50.93,40.71 86.02,46.19 88.31,92.61 2.74,55.42 0.47,118.63 -0.06,174.7 -1.11,116.24 0.25,232.42 0.15,348.67l-4.8 1220.29c-0.04,29.91 -0.09,59.49 1.03,89.41 0.95,25.54 8.24,53.07 6.52,75.24 -87.63,39.99 -86.26,42.83 -124.08,14.39l-202.35 -151.36c-32.34,-25.28 -66.55,-49.59 -100.4,-73.95 -135.58,-97.58 -273.27,-200.77 -401.61,-305.64 -64.28,-52.51 -136.65,-99.53 -204.2,-149.46l-1007.09 -761c-32.02,-32.1 -20.59,-99.47 -19.68,-157.15 0.93,-57.83 1.05,-116.5 0.3,-174.33 -6.07,-464.39 -4.56,-949.04 -2.49,-1414.55 0.26,-58.54 13.55,-294.33 -20.53,-328.93l1.71 161.46c2.15,312.98 -1.29,626.35 -0.67,939.49 0.21,105.36 5.45,900.29 -4.07,933.33 -19.62,-0.12 -288.73,-198.66 -326.06,-225.42 -55.42,-39.72 -104.82,-80.84 -158.76,-120.14 -53.19,-38.77 -103.9,-79.1 -156.28,-117.64 -54.63,-40.19 -99.99,-79.63 -157.76,-121.17 -56.45,-40.6 -103.88,-76.51 -159.91,-119.02 -36.5,-27.69 -304.41,-224.75 -313.03,-238.89 -16.89,-9.89 -6.93,-5.71 -27.61,-13.25 -47.83,-17.44 -120.9,-81.02 -161.88,-111.99 -59.01,-44.59 -114.47,-89.01 -173,-135.87 -114.86,-91.94 -236.48,-180.25 -344.51,-273.12 -81.83,-70.33 -173.08,-136 -261.94,-201.19 -30.94,-22.7 -55.4,-44.81 -85.91,-68.51 -53,-41.18 -50.71,-16.47 -51.49,-103.6 -0.78,-87.44 -1.73,-414.16 4.85,-460.32 44.17,-17.2 50,-12.65 75.89,-52.49 28.38,-43.69 22.43,-35.46 82.06,-42.24 -0.85,-20.2 -11.89,-24.79 -17.76,-47.18 -17.78,4.86 -8.74,8.49 -44.22,24.5 -16.64,7.5 -28.31,16.04 -40.12,24.96 -81.88,61.89 -147.55,102.68 -228.62,159.97 -25.47,18 -47.21,35.93 -75.12,54.34l-530.28 376.46c-101.54,68.73 -208.28,136.66 -307.7,210.15l-372.14 280.44c-26.29,18.29 -48.9,35.17 -75.92,53.56l-455.43 321.69c-52.06,37.1 -98.22,73.22 -150.44,108.58l-155.5 105.13c-47.06,-8.88 -583.15,-444.32 -677.87,-524.38l-261.7 -216.53c-46.96,-35.52 -90.03,-69.88 -132.82,-106.3 -86.34,-73.45 -189.19,-144.9 -267.21,-210.92 -203.84,-172.47 -449.85,-362.66 -660.55,-534.77 -23.82,-19.45 -44.52,-34.3 -66.82,-52.71 -17.57,-14.49 -46.8,-47.83 -72,-45z"/> <path class="fil16" d="M2299.83 4466.24c-7.54,19.18 -0.36,9.07 -15.66,19.54l-321.95 230.83c-187.59,128.91 -358.11,253.13 -553.95,382.48l-781.54 523.45c-37.51,23.73 -86.55,47.9 -136.1,57.15 44.76,87.97 88.08,84.53 183.46,161.14 111.83,89.82 213.83,165.39 324.64,258.07 262.71,219.7 491.2,416.71 761.32,633.36l255.64 212.54c132.97,105.42 243.99,211.62 378.96,318.39 172.35,136.34 81.81,139.66 275.9,-0.56 47.1,-34.04 100.42,-71.47 147.49,-106.49l517.55 -358.81c53.81,-46.33 112.59,-66.54 149.61,-104.49 37.97,-38.94 41.21,-21.94 82.09,-46.98 27.29,-16.73 40.5,-36.75 68.16,-56.59 29.17,-20.93 51.25,-33.85 75.77,-53.84l107.29 -76.54c15.51,-8.75 29.35,-13.1 43.25,-21.58 46.14,-28.17 96.55,-78.89 145.78,-108.5 35.1,-21.11 42.92,-35.07 69.05,-55.87l527.89 -353.44c53.52,-34.88 100.94,-67.01 153.94,-100.2 48.08,-30.11 108.34,-71.09 163.9,-91.39 -68.07,-68.12 -108.15,-86.65 -163.23,-136.98 -63.49,-58.02 -184.24,-149.42 -241.51,-201.85l-238.88 -204.28c-107.25,-93.14 -216.2,-179.57 -323.42,-269.35 -58.29,-48.83 -107.89,-90.18 -162,-136.83 -53.99,-46.57 -100.46,-92.6 -156.36,-137.43l-183.34 -155.46c-38.65,-39.82 -89.56,-81.19 -133.89,-119.94l-79.82 -69.62c-14.21,-13.87 -25.92,-21.16 -40.51,-34.37 -9.71,-8.78 -9.98,-12.02 -18.86,-20.85l-180.09 -148.66c-60.56,-49.18 -59.89,-60.83 -89.67,-46.15 -65.91,32.48 -376.03,244.65 -447.48,294.88 -30.3,21.31 -54.86,43.94 -84.41,65.05 -20.71,14.78 -59.81,58.02 -79.02,60.19z"/> <path class="fil17" d="M11099.06 1131.64l92.46 78.98c29.86,25.23 62.28,49.77 94.61,74.78l577.93 448.13c65.5,50.41 128.05,96.67 190.14,148.57l386.41 301.04c53.32,39.64 93.54,65.7 144.84,109.18 21.65,18.34 39.15,24.18 25.97,59.88 18.65,-7.48 7.15,-3.03 20.46,-11.09 6.67,-4.04 7.37,-5.99 16.75,-8.94 38.5,-17.68 84.78,-57.03 115.94,-82.01 37.71,-30.22 75.09,-55 115.54,-83.73l698.59 -496.82c75.96,-56.08 150.83,-111.66 228.27,-165.17l233.38 -165.14c311.01,-215.6 619.73,-451.16 927.38,-661.46 40.54,-27.72 78.07,-53.9 117.19,-82 38.4,-27.59 78.88,-54.73 116.14,-83.1 40.76,-31.04 74.66,-52.69 118.35,-80.86 80.24,-51.74 54.7,-38.62 116.25,16.25 46.86,41.8 99.75,97.01 153.33,140.62l267.19 230.86c18.67,15.93 31.16,32.21 51.25,48.39 20.31,16.34 34.92,28.5 54.79,44.83l217.69 180.74c25.9,22.12 88.17,74.46 116.25,87.33l97.39 -73.13c31.77,-25.27 63.29,-51.68 98.08,-76.12 50.99,-35.82 107.36,-70.44 150.36,-108.87 35.57,-31.78 161.27,-105.93 253.55,-184.75l862.78 -621.35c17.88,-12.26 33.97,-23.87 52.54,-37.11 22.93,-16.34 92.95,-56.94 105.08,-79.56l-5201.4 0 -398.28 282.62c-32.13,24.98 -66.15,46.57 -99.69,69.7l-1049.9 738.09c-17.28,12.02 -41.01,20.65 -49.52,40.2l-18.06 1.03z"/> <path class="fil18" d="M13061.05 11941.83c21.68,-0.28 77.43,49.98 98.68,66.38 104.48,80.7 201.24,141.93 304.42,218.52 22.36,16.61 390.84,270.16 403.88,294.99l3225.73 0c7.78,-17.19 64.46,-51.09 94.44,-75.31l97.53 -71.79c46.24,-32.4 212.5,-156.69 248.51,-175.38l147.66 -105.79c9.57,-6.05 12.75,-8.79 23.65,-16.2l71.21 -58.47c11.94,-16.14 3.31,-8.06 20.78,-18.64l30.73 -24.22c1.23,-0.81 5.15,-2.79 6.45,-3.56 27.73,-16.28 13.44,-12.13 21.82,-33.4l-11.79 -8.54c-3.88,-2.43 -9.12,-4.86 -12.61,-7.05l5.13 -7.71 -1028.74 -746.91c-140.85,-105.22 -303.91,-214.98 -442.37,-319.7l-292.04 -215.95c-100.16,-72.17 -191.65,-142.84 -292.05,-216.02 -43.52,-31.72 -251.79,-205.04 -301.72,-204.96 -9.55,24.79 12.84,6.06 -22.57,35.8 -60.96,51.19 -49.33,36.54 -115.03,79.19 -52.49,34.08 -96.87,71.17 -151.91,107.23 -50.81,33.27 -108.03,70.54 -158.7,100.33 -66.27,38.94 -386.71,266.42 -460.41,321.37 -131.15,97.77 -317.49,220.36 -458.76,323.24 -150.44,109.54 -299.26,222.12 -450.28,326.73l-303.18 214.79c-24.9,17.26 -275.54,193.19 -298.43,221.02z"/> <path class="fil19" d="M8414.54 238.98c3.32,12.9 72.87,82.48 87.15,95.15l191.3 167.43c14.4,10.71 20.72,14.81 31.52,28.19 30.4,37.63 81.53,72.85 122.57,116.54l90.78 88.49c53.58,47.75 99.35,63.51 164.17,134.81l189.76 168.85c14.01,11.25 16.2,18.75 29.89,29.72l65.85 53.78c11.44,9.11 25.07,18.74 33.68,26.14 13.87,11.9 15.68,16.5 31.39,28.38 40.47,30.58 54.19,48.94 96.52,82.64 13.82,11 20.47,13.81 32.32,27.56 36.58,42.45 38.76,33.65 61.48,58.03 25.15,26.98 131.45,109.03 161.77,137.14 46.97,43.53 222.98,188.48 253.76,224.28 15.91,18.51 39.85,36.09 63.17,56.3l158.22 140.71c21.57,23.3 34.95,25.18 62.39,57.11 10.65,12.4 21.86,17.94 31.03,29.13 15.46,18.84 14.89,74.01 16.55,103.01 5.86,22.4 16.9,26.98 17.76,47.18 -59.64,6.78 -53.68,-1.46 -82.06,42.24 -25.89,39.85 -31.72,35.3 -75.89,52.49 -6.58,46.15 -5.64,372.87 -4.85,460.32 0.77,87.13 -1.52,62.42 51.49,103.6 30.5,23.7 54.97,45.81 85.91,68.51 88.87,65.19 180.12,130.86 261.94,201.19 108.04,92.87 229.66,181.18 344.51,273.12 58.53,46.86 113.98,91.28 173,135.87 40.98,30.96 114.05,94.55 161.88,111.99 20.69,7.54 10.72,3.36 27.61,13.25 2.69,-41.93 32.33,-48.83 66.69,-68.95 28.49,-16.67 60.98,-37.22 85.74,-53.58 205.31,-135.6 438.17,-311.45 640.87,-459.87 126.31,-92.5 277.92,-204.1 404.78,-287.61l78.46 -60.54 -1.71 -161.46 -0.23 -12.75c-13.41,-38.04 -36.76,-46.12 -48.28,-72.82 -19.29,-44.7 28.05,-60.08 33.95,-72.37 13.19,-35.7 -4.31,-41.54 -25.97,-59.88 -51.3,-43.48 -91.52,-69.54 -144.84,-109.18l-386.41 -301.04c-62.09,-51.89 -124.64,-98.16 -190.14,-148.57l-577.93 -448.13c-32.33,-25.01 -64.74,-49.54 -94.61,-74.78l-92.46 -78.98 -340.23 -264.97c-9.13,-7.58 -13.21,-10.89 -21.91,-18.02 -11.96,-9.81 -14.75,-11.43 -25.24,-19.54l-341.11 -261.5c-17,-13.13 -30.89,-21.74 -48.1,-36.58l-225.8 -177.67c-55.91,-48.05 -140.88,-104.74 -182.31,-141.4l-88.63 -70.64c-32.24,-22.59 -62.02,-46.52 -95.15,-69.31 -19.96,-13.73 -80.77,-51.23 -90.76,-72.02l-933.41 0c-4.6,25.21 0.35,12.17 -17.58,23.93 -8,5.25 -15.92,9.28 -20.95,12.97 -13.6,9.98 -24.12,18.84 -37.08,27.79l-75.93 53.76c-14.61,9.78 -24.95,18.88 -38.96,30.29 -9.21,7.5 -9.27,8.51 -19.49,15.64 -6.76,4.71 -12.25,7.97 -18.22,11.88 -27.53,18.01 -40.25,38.48 -63.66,62.71z"/> <path class="fil20" d="M-0 9610.39c30.75,8.57 208.28,177.65 271.2,229.37l272.12 231.1c13.39,12.17 16.13,17.69 30.7,29.05l103.43 85.71c22.69,20.62 121.41,99.15 129.44,119.26 9.12,22.83 13.33,293.52 14.7,358.99 1.83,87.17 1.59,55.88 -15.05,116.13 40.92,-17.62 211.15,-136.84 263.42,-171.81 54.09,-36.18 143.24,-106.71 191.86,-136.86 91.88,-57.02 111.84,-80.66 190.57,-133.2 42.43,-28.33 86.83,-54.63 130.36,-83.85l256.67 -176.79c42.95,-31.73 91.35,-57.92 130.43,-88.66 159.09,-125.18 844.89,-563.12 878,-629.9 -18.41,-45.83 -176.86,-171.11 -232.93,-219.21 -20.53,-17.62 -67.15,-55.02 -69.08,-79.57 -34.87,-1.03 -240.97,-170.27 -285.38,-203.45l-1919.83 -1495.31c-72.77,16.62 -67.54,16.24 -104.53,-26.75 -25.75,-29.91 -49.28,-48.45 -74.62,-74.68 -26.02,-26.91 -55.54,-45.27 -79.86,-69.6 -21.41,-21.42 -52.01,-59.91 -81.63,-68.04l0 2488.07z"/> <path class="fil21" d="M16296.14 1180.88c4.17,11.67 116.68,104.48 127.03,112.71 126.45,100.49 273.59,240.74 397.14,339.92l398.27 338.96c44.22,42.15 116.16,82.89 124.29,124.78 11.71,41.13 13.69,37.7 -16.14,57.97 -17.24,11.73 -34.44,28.08 -44.85,45.67l-7.58 43.82c43.09,55.42 15.44,26.66 68.13,77.17 27.78,26.62 53.6,44.17 82.16,67.24 55.47,44.79 109.97,85.24 168.13,130.66l938.04 710.62c34.25,23.89 80.09,45.24 75.59,77.95 26.3,-10.69 69.21,-39.37 91.94,-55.43 20.44,-14.44 69.05,-52.02 89.28,-58.31l0 -3194.58 -871.66 0c-12.13,22.62 -82.14,63.22 -105.08,79.56 -18.57,13.24 -34.67,24.85 -52.54,37.11l-862.78 621.35c-92.28,78.82 -217.98,152.97 -253.55,184.75 -43,38.43 -99.37,73.06 -150.36,108.87 -34.79,24.44 -66.31,50.84 -98.08,76.12l-97.39 73.13z"/> <path class="fil22" d="M12625.97 2510.13c34.09,34.59 20.8,270.39 20.53,328.93 -2.07,465.51 -3.58,950.16 2.49,1414.55 0.75,57.82 0.63,116.49 -0.3,174.33 -0.92,57.68 -12.34,125.05 19.68,157.15l1007.09 761c67.55,49.93 139.93,96.95 204.2,149.46 128.34,104.86 266.03,208.06 401.61,305.64 33.84,24.36 68.06,48.67 100.4,73.95l202.35 151.36c37.82,28.44 36.46,25.6 124.08,-14.39 1.72,-22.17 -5.58,-49.7 -6.52,-75.24 -1.12,-29.91 -1.07,-59.49 -1.03,-89.41l4.8 -1220.29c0.1,-116.25 -1.26,-232.43 -0.15,-348.67 0.53,-56.07 2.8,-119.28 0.06,-174.7 -2.29,-46.42 -37.38,-51.9 -88.31,-92.61l-397.46 -304.83c-268.55,-199.57 -530.38,-399.24 -797.25,-602.31l-401.43 -300.85c-64.07,-48.78 -295.08,-206.78 -349.72,-262.93 -13.98,-14.36 -30.34,-30.52 -45.36,-42.88l0.23 12.75z"/> <path class="fil23" d="M15772.28 4948.37c-6.95,-100.75 3.75,-205.44 1.39,-306.28 -2.24,-95.64 -14.65,-207.07 -9.67,-298.84 5.29,-97.19 2.67,-202.83 -2.03,-298.73 -4.69,-95.81 4.02,-206.65 6.17,-303.95 1.4,-63.32 -5.07,-247.39 36.62,-278.26l200.86 -107.88c159.8,-108.65 130.21,-85.6 292.49,-170.63 47.18,-24.73 57.78,-82.85 91.99,-49.37 17.03,16.66 2.93,46.17 1.08,68.07l8.29 227.01c2.92,100.86 9.55,195.64 4,295.95 -11.5,207.81 7.01,411.56 -2.03,617.77 -8.76,199.7 22.12,180.11 -75.87,237.72 -82.14,48.3 -198.21,126.42 -279.19,183.84l-180.48 128.3c-20.92,14.98 -66.06,58.64 -93.61,55.26zm1541.16 -750.24c-39.49,1.25 -30.93,-57.92 -31.47,-93.01 -7.03,-455.09 -1.14,-916.63 -8.29,-1370.66 -1.28,-81.24 -0.67,-162.93 -2.8,-244.06 -3.81,-145.15 -2.89,-106.17 3.42,-245.71l7.58 -43.82c-75.43,32.1 -105.52,67.4 -175.81,116.96 -20.11,14.18 -41.59,25.93 -59.73,39.95 -81.21,62.73 -44.15,30.71 -88.96,60.49 -11.3,7.52 -16.18,15.05 -26.24,23.61 -22.41,19.07 -46.28,15.9 -66.88,32.77 -22.69,18.58 -21.58,31.3 -53.97,45.38 -68.13,29.63 -44.85,45.6 -112.14,82.17 -79.44,43.17 -158.86,113.01 -236.69,161.86 -25.4,15.94 -35.86,32.07 -56.23,43.25 -57.69,31.65 -20.05,13.22 -56.88,42.89 -17.57,14.16 -36.06,24.21 -54.79,39.92 -18.31,15.34 -30.96,32.52 -56.33,43.28 -46.02,19.55 -23.88,22.09 -48.96,50.75 -14.05,16.06 -43.5,20.49 -64.59,34.89 -37.82,25.8 -73.61,61.2 -110.82,88.4l-111.83 87.45c-37.82,28.26 -79.18,50.82 -114.8,79.4 -35.82,28.71 -75.76,57.14 -115.74,83.52l-118.85 80.76c-31.38,14.97 -40.8,9.4 -63.38,36.07 -20.44,24.15 -22.43,29.89 -52.52,46.71 -46.76,26.15 -73.09,51.85 -112.69,81.88 -35.55,26.95 -79.67,54.64 -118.21,81.01l-441.69 350.3c-34.76,31.82 -21.05,102.52 -20.75,179.2l-1.66 991.18c-0.12,129.64 -19.86,703.23 7.21,776.24 13.34,-3.03 280.88,-196.84 319.59,-222.53 110.3,-73.22 225.56,-138.54 329.52,-213.31 51.81,-37.27 98.12,-73.73 156.57,-112.29 92.03,-60.71 324.14,-212.88 400.61,-277.12l280.53 -192.39c19.96,-13.35 22.76,-20.81 37.56,-32.29 36.31,-28.17 93.73,-58.59 160.58,-113.36 16.12,-13.21 23.21,-13.62 40.47,-24.07l118.57 -85.97c17,-12.64 27.69,-13.44 44.83,-24.64 12.86,-8.39 27.24,-20.1 40.51,-29.31 27.22,-18.92 59.38,-31.2 83.56,-51.05 27.51,-22.6 50.69,-35.23 79.92,-54.29 30.73,-20.03 48.47,-34.91 80.94,-53.72 27.98,-16.2 47.37,-40.51 78.53,-60.89 53.89,-35.25 190.35,-127.75 238.61,-170.09l74.59 -65.73z"/> <path class="fil24" d="M5897.01 3038.31c2.76,99.64 -4.11,203.13 -2.77,303.8l4.31 857.33c-0.68,30.1 3.83,26.57 -13.71,27.78 9.17,11.65 -18.99,8.17 21.49,11.41 2.03,-45.64 -6.57,-80.98 10.86,-94.6 0.65,1.09 1.3,1.62 1.47,3.49l14.6 94.09c8.66,31.75 28.45,49.75 46.74,68.7 43.04,44.61 78.89,59.51 133.25,96.02l519.79 401.58c219.55,172.04 434.5,327.94 655.13,495.46 113.9,86.48 291.92,213.32 391.2,301.19 40.62,35.95 147.58,121.59 193.81,150.04 50.6,31.14 44.65,47.5 65.69,53.29 12.4,-86.91 -2.65,-242.62 -2.09,-338.98 0.68,-116.06 -1.41,-232.48 -1.13,-348.66 0.82,-339.56 5.89,-697.43 1.33,-1036.01 -0.79,-58.25 -1.69,-116.04 -1.53,-174.33 0.25,-90.88 -1.57,-66.43 -63.5,-111.78l-194.16 -149.49c-83.53,-61.81 -197.94,-160.05 -286.72,-231.39 -88.76,-71.33 -91.72,-59.28 -194.05,-154.66l-95.68 -78.53c-15.55,-13.63 -27.29,-25.87 -44.29,-40.46 -16.07,-13.79 -30.07,-22.87 -47.38,-37.32l-194.2 -154.39c-153.9,-126.7 -327.12,-260.38 -485.06,-381.65 -112.17,-86.13 -188.68,-156.95 -288.28,-234.83 -28.06,-21.95 -67.37,-64.9 -108.25,-72.24l0.68 740.35c0.61,74.84 -12.18,46.61 -20.42,82.64 -8.36,-14.24 -5.2,-33.49 -17.14,-47.86z"/> <path class="fil25" d="M608.31 7170.05c-17.69,0.55 -23.02,9.8 -37.1,20.86 -70.52,55.39 -133.09,83.73 -206.86,141.76 -14.59,11.48 -21.15,10.86 -23.71,28.72l1919.83 1495.31c44.4,33.18 250.51,202.42 285.38,203.45 0.66,-131.09 -7.99,-270.61 -8.76,-403.52l-7.9 -821.83c-0.16,-130.64 6.71,-285.01 -0.81,-412.49 -72.88,-47.21 -161.35,-133.91 -229.8,-192.57 -76.36,-65.45 -162.51,-126.14 -236.29,-192.19l-232.21 -191.05c-80.5,-65.07 -154.99,-129.83 -233.13,-195.29 -79.16,-66.31 -155.85,-122.9 -232.08,-191.24 -17.94,-16.09 -40.13,-31.37 -57.25,-47.41 -22.18,-20.77 -34.43,-32.07 -57.84,-51.64 -69.02,-57.69 -306.11,-245.86 -350.55,-291.99 -13.83,-14.35 -174.22,-153.48 -207.46,-166.32l-33.34 -5.47c-15.03,2.45 -6.93,1.21 -11.96,4.27l1.92 1470.16c0.39,66.4 4.83,148.95 0.14,213.39 -40.12,-8.31 -34.77,-35.1 -35.12,-78.81 -0.31,-38.22 -0.86,-76.43 -1.35,-114.65 -0.93,-73.07 -6.83,-148.05 -3.73,-221.46z"/> <path class="fil26" d="M-0 4743.86l0 2378.45c29.62,8.13 60.23,46.62 81.63,68.04 24.33,24.33 53.85,42.68 79.86,69.6 25.35,26.23 48.87,44.77 74.62,74.68 36.99,42.99 31.76,43.37 104.53,26.75 2.55,-17.87 9.12,-17.25 23.71,-28.72 73.77,-58.03 136.33,-86.37 206.86,-141.76 14.08,-11.06 19.4,-20.31 37.1,-20.86 5.85,-126.98 -0.78,-276.24 -0.65,-406.12l0.22 -806.89c-0.04,-32.9 1.7,-67.3 -0.04,-99.95 -2.2,-41.48 -14.01,-39.87 -43.95,-55.76 -35.79,-18.99 -69.5,-72.3 -83.96,-118.24 6.2,-5.44 -8.73,-3.89 10.7,-3.4 49.55,-9.25 98.6,-33.42 136.1,-57.15l781.54 -523.45c195.84,-129.34 366.36,-253.57 553.95,-382.48l321.95 -230.83c-29.59,1.86 -47.86,-23.92 -67.48,-37.45 -21.81,-15.06 -42.68,-24.02 -66.36,-38.16 -23.25,-13.88 -38.62,-27.46 -62.71,-41.87 -24.24,-14.49 -35.54,-24.3 -57.93,-42.1 -22.27,-17.71 -34.32,-28.82 -59.23,-44.79 -20.65,-13.24 -43.58,-28.62 -61.16,-44.1 -59.46,-52.34 -142.99,-100.39 -233.98,-179.4 -15.07,-13.07 -20.08,-9.92 -34.52,-20.29 -10.44,-7.49 -13.63,-13.27 -26.75,-22.99 -23.14,-17.16 -70.21,-44.25 -91.18,-63.59 -48.22,-44.49 -36.31,-29.42 -83.41,-65.51l-115.73 -91.92c-41.04,60.4 -582.31,433.36 -652.71,483.48l-671.02 466.77z"/> <path class="fil27" d="M11894.51 11027.46l541.04 397.42 563.14 400.6c21.96,17.41 96.38,79.13 111.71,11.18 18.75,-83.05 8.99,-276.2 8.95,-370.87 -0.09,-254.11 2.17,-507.98 3.16,-762.07l-1.87 -767.01c-23.03,-16.36 -49.89,-41.76 -74.56,-61.18l-226.2 -182.2c-99.21,-82.15 -200.13,-157.63 -304.07,-238.92 -53.07,-41.52 -98.2,-80.45 -151.36,-122.48l-386.72 -290.78c-27.19,-20.12 -45.26,-37.74 -76.24,-54.87 -17.33,3.8 -12,0.53 -12.99,23.35l-2.69 1509.81c0.55,103.69 -11.43,433.38 8.69,508.02z"/> <path class="fil28" d="M15622.18 9010.55c-4.57,18.48 -1.75,4.05 2.58,10.83 31.53,-8.29 68.82,-29.24 95.91,-44.81 1.31,-0.76 4.97,-3 6.17,-3.85l22.02 -17.4c20.07,-11.65 13.16,-1.53 32.51,-22.27l36.93 -27.99c10.31,-11.79 24.15,-28.09 42.31,-32.4 1.32,26.72 -5.94,59.09 -5.32,92.78 0.53,29.25 0.19,60.37 -0.59,89.65 -1.58,58.95 -0.79,118.48 -0.66,177.49 0.25,117 -5.01,236.75 -5.1,355.45 -0.06,75.07 29.77,284.5 11.16,337.3 -2.12,5.98 -32.98,49.99 -35.01,51.5 -15.46,11.43 -37.33,5.55 -62.1,28.33 -17.17,15.77 -27.56,26.56 -50.07,38l-29.32 16.44c-32.99,19.68 -31.68,-14.09 -33.98,-58.56 -2.91,-56.52 1.71,-176.5 7.97,-228.41 12.41,-102.95 6.77,-272.26 7.03,-388.81 0.07,-32.34 -2.53,-50.62 -4.73,-75.73 -4.34,-49.66 2.78,-108.11 -0.52,-158.81 -4.04,-62.05 -27.97,-78.54 25.93,-107.09 56.76,-30.07 45.35,-17.69 103.84,-56.86 -10.93,-12.59 27.61,-33.26 -53.58,4.12 -103.43,47.62 -111.31,28.99 -110.76,120.44 0.37,62.63 2.29,383.52 -5.75,433.71 -9.16,57.17 13.55,384.53 -1.81,445.12l-4.26 97.44c-56.24,35.42 -197.65,129.44 -244.5,166.94 -27.91,22.34 -53.13,36.72 -83.09,56.23 -21.72,14.14 -21.38,13.63 -38.51,31.26 -27.64,28.44 -177.18,109.76 -215.49,133.61 -20.32,12.66 -63.69,48.34 -87.14,48.86 -8,-98.38 -2.56,-235.83 -1.25,-337.32 1.48,-114.04 -0.41,-229.49 -0.76,-343.68 -0.71,-228.97 0.32,-458.45 -1.84,-687.35l0.6 -254.19c0.37,-39.78 6.87,-45.71 28.66,-62.33l73.8 -50.71c15.3,-9.38 20.26,-7.55 31.23,-13.51 14.2,-7.72 3.58,-9.83 47.33,-37.43 53.77,-33.94 66.95,-47.37 111.65,-82.91 20.45,-16.27 17.61,-2.24 42.28,-21.97l98.91 -75.62c24.54,-19.8 27.83,-15.77 53.88,-30.55 18.35,-10.42 25.48,-28.89 42.93,-41.96 15.69,-11.75 37.13,-19.74 53.98,-30.58 21.81,-14.01 59.31,-76.71 78.69,-12.86 18.06,13.6 4.14,20.44 20.47,27.87 23.07,-17.43 7.56,-48.22 10.64,-80.42 2.85,-29.79 23.93,-37.05 42.97,-50.86 23.93,-17.36 345.04,-225.97 349.39,-222.74 33.5,44.07 3.91,811.95 9.12,936.38 3.26,77.77 -0.93,154.51 -0.62,233.9 0.6,153.71 7.92,319.97 2.2,473.09 -1.99,53.61 -5.56,44.87 -26.35,63.61 -8.09,7.3 -6.22,7.29 -15.2,14.68 -14.5,11.96 -54.4,48.68 -66.44,39.97 -27.18,-19.64 -17.44,-681.72 -18.35,-795.56 -0.71,-91.13 -5.24,-183.3 1.29,-275.04l-43.71 8.24c-10.51,48.19 -32.47,56.89 -80.44,87.21 -27.56,17.43 -57.89,46.9 -97.02,72.17 -12.15,7.84 -22.84,13.06 -36.29,18.55 -36.43,14.86 -31.79,16.99 -31.8,16.95 -0.33,-0.76 -1.4,1.58 -1.96,2.47zm-773.19 -279.21c4.64,-27.78 43.88,-52.21 70.03,-68.3 79.57,-48.96 164.37,-110.78 244.7,-163.72 31.31,-20.63 52.13,-39.27 80.49,-58.99 93.53,-65.05 191.45,-126.23 277.76,-200.23 83.21,-71.35 212.58,-141.68 274.03,-204.15 25.54,-25.96 50.03,-34.51 81.46,-57.9 46.55,-34.63 203.84,-169.97 227.81,-176.19 12.1,108.14 9.55,220.63 18.4,330.34 8.97,111.43 21.24,213.18 21.5,325.2l-1.09 552.87c-0.61,162.04 7.52,618.13 -0.96,675.27 -6.76,45.46 -5.11,81.62 -55.49,100.56 2.27,-49.93 9.27,-94.97 9.33,-153.24l-5.38 -612.65c0.69,-205.24 3.87,-526.68 -9.6,-710.88 -6.36,-87.07 14.72,-223.69 -25.95,-282.56 -27.67,6.28 -18.35,14.26 -35.87,29.18 -9.71,8.27 -25.79,13.81 -38.33,21.42 -15.72,9.55 -19.01,13.83 -33.76,25.95 -64.99,53.38 -240.04,169.91 -322.93,214.83 -40.7,22.06 -39.26,23.24 -67.69,52 -35.82,36.23 -141.88,106.84 -200.02,153.75 -55.37,44.68 -38.21,23.98 -72.33,47.05l-137.16 102.07c-24.5,15.87 -48.82,27.89 -73.66,45.89 -147.41,106.77 -152.74,80.76 -185.02,35.61 -22.01,-30.77 -15.87,-9.63 -40.27,-23.2zm-131.61 20.1c12.05,3.08 21.32,10.37 26.97,20.91 -26.32,16.19 -146.69,115.9 -219.41,163.91 -78.08,51.54 -139.99,111.42 -215.83,167.87 -92.47,68.81 -79.74,52.56 -78.65,110.33l-0.38 1242.13c-3.57,10.95 -12.07,17.69 -23.09,24.56l-262.48 165.8c-10.2,7.45 -19.99,14.57 -28.16,21.72 -10.01,8.75 -15.14,14.53 -26.66,23.29 -39.3,29.88 -105.44,105.99 -121.72,117.73 -8.52,6.14 -16.75,12.87 -19.76,11.59 -0.91,1.06 -2.12,1.39 -2.55,3.33 -7.89,35.44 -387.75,267.01 -419.17,369.9 -19.71,64.55 -16.05,158.39 51.95,192.72 21.83,-7.42 176.25,-103.41 203.55,-121.49 68.29,-45.24 116.59,-91.04 185.74,-138.03 64.97,-44.15 126.13,-90.6 190.18,-133.5l910.32 -623.78c38.97,-23.61 12.66,-33.48 39.31,-45.99 11.8,17.81 0.56,158.19 0.34,190.05 -0.47,68.79 2.16,61.61 -85.94,113.51 -107.87,63.55 -131.07,96.94 -234.3,169.17l-817.23 582.46c-139.05,104.46 -331.6,227.89 -478.86,328.03l-122.12 81.91c-6.15,-62.97 -1.13,-162.29 -0.98,-229.14 0.16,-76.37 0.44,-152.76 0.65,-229.12 1.08,-382.24 2.59,-758.31 -3.73,-1140.61 -0.83,-50.29 -16.09,-185.29 3.27,-221.37l-19.31 2.44c-7.04,-16.94 -15.12,-24.15 -28.65,-35.06l1.87 767.01c-1,254.09 -3.26,507.96 -3.16,762.07 0.04,94.67 9.8,287.82 -8.95,370.87 -15.33,67.95 -89.75,6.23 -111.71,-11.18l-563.14 -400.6c2.6,19.86 0.92,8.86 -0.15,30.87l-23.5 -6.98c6.63,9.94 3.25,7.14 15.53,17.08l138.28 95.59c52.66,40.05 102.58,78 154.07,114.74 82.45,58.85 235.18,167.48 298.03,232.9 -14.9,20.07 -73.71,63.65 -98.72,83.5 -33.94,26.92 -69.76,52.21 -106.61,77.68 -73.99,51.12 -144.15,99.53 -221.66,151.77l-323.75 229.24c-44.94,32.74 -109.74,54.63 -119.87,70.45l121.87 0c5.95,-34.94 55.67,-64.15 83.25,-84.63l305.21 -212.9c66.53,-44.83 246.95,-162.12 303.85,-209.23 20.31,-16.81 77.77,-68.78 99.69,-73.14 22.89,-27.83 273.53,-203.76 298.43,-221.02l303.18 -214.79c151.03,-104.61 299.85,-217.19 450.28,-326.73 141.27,-102.88 327.61,-225.47 458.76,-323.24 73.7,-54.94 394.14,-282.43 460.41,-321.37 50.67,-29.78 107.89,-67.05 158.7,-100.33 55.05,-36.06 99.42,-73.16 151.91,-107.23 65.7,-42.65 54.07,-28 115.03,-79.19 35.41,-29.73 13.01,-11.01 22.57,-35.8 49.93,-0.07 258.2,173.25 301.72,204.96 100.41,73.18 191.89,143.84 292.05,216.02l292.04 215.95c138.46,104.72 301.52,214.48 442.37,319.7l1028.74 746.91c20,5.79 86.16,57.34 108.65,73.3 35.67,25.31 68.18,49.03 103.78,75.47 31.46,23.37 53.06,46.05 100.08,79.28 35.96,25.41 74.36,49.97 108.51,75.91l368.45 264.05c16.21,10.96 46.21,23.81 54.84,38.04l64.43 0c-10.69,-17.79 -220.68,-148.43 -271.54,-185.14 -143.85,-103.81 -344.19,-261.96 -479.68,-352.48l-103.76 -78.19 -1189.28 -855.07c-101.5,-70.95 -192.59,-139.04 -297.57,-210.5l-658.98 -486.79c-27.79,-18.76 -50.25,-35.98 -74.83,-54.45 -11.98,-9 -25.1,-19.29 -36.72,-28.03 -18.92,-14.23 -90.38,-76.97 -97.03,-95.3 22.23,-7.54 36.83,-12.38 57.79,-24.59 80.69,-47.04 78.39,-38.14 159.32,-94.72 32.12,-22.45 71.85,-41.93 104.62,-65.1 17.76,-12.56 24.43,-25.31 45.91,-38.61 23.63,-14.64 97.02,-52.23 109.69,-65.89 65.8,-70.98 38.84,-28.08 101.54,-66.04 56.46,-34.19 17.19,-22.37 94.27,-75.29 16.82,-11.55 34.17,-22.72 49.49,-35.45 17.75,-14.71 30.49,-27.76 43.68,-41.32l50.54 -39.05c63.86,-47.59 139.68,-91.76 198.2,-140.4 15.69,-13.04 31.95,-23.65 49.17,-35.36l250.72 -177.49c17.47,-12.55 31.92,-21.15 50.54,-34.06l255.35 -178.09c34.43,-22.78 69.71,-46.08 101.09,-68.06 33.86,-23.72 65.31,-46.14 100.54,-69l907.18 -632.13c35.93,-24.42 68.07,-46.12 101.36,-72.61l419.98 -265.94 0 -69.05c-27.33,8 -35.26,22.65 -54.45,37.13 -84.52,63.81 -255.64,173.94 -352.29,240.23l-480.18 336.67c-9.67,6.92 -12.69,10.08 -22.63,17.23l-550.95 380.28c-38.05,24.64 -117.89,89.15 -153.27,104.57 -4.82,7.26 -49.32,35.82 -61.21,44.73l-309.32 213.65c-41.35,26.15 -82.19,54.89 -124.22,84.94 -81.52,58.29 -170.28,115.05 -248.63,174.84 -20.19,15.4 -39.66,28.72 -61.15,43.39 -20.86,14.23 -39.59,28.59 -61.81,42.62 -93.89,59.29 -79.48,93.35 -109.78,97.97 -21.4,-40.97 -17.84,-616.23 -17.01,-710.43l-3.13 -725.47c-13.44,-34.08 -22.02,-460.17 -18.13,-523.97 29.33,-14.75 34.53,-18.13 59.22,-39.24 25.56,-21.88 142.8,-113.98 157.76,-136.92 -79.11,35.73 -150.04,94.87 -220.85,138.4 -46.72,28.73 -23.57,17.21 -50.54,39.09 -19.21,15.59 -32.61,18.89 -51.69,38 -77.93,78.03 -259.13,192.56 -352.76,265.02 -33.39,25.85 -21.55,-6.63 -54.15,35.06l-97.77 77.01c-40.05,24.91 -70.56,48.39 -104.66,74.61 -21.7,16.7 -30.57,21.98 -53.8,35.81 -20.92,12.44 -29.53,25.19 -49.59,40.1 -18.7,13.89 -34.95,22.71 -53.03,36.61 -19.47,14.97 -32.04,26.12 -50.18,39.59 -67.4,50.05 -73.06,41.5 -109.37,64.76 -32.2,20.61 -71.78,59.3 -104.26,75.5 -41.9,20.9 -70.58,41.95 -103.46,70.48 -16.18,14.03 -35.85,24.76 -51.83,37.75 -22.74,18.48 -19.45,33.83 -46.18,43.31 -29.64,10.51 -37.46,12.61 -59.05,30.74 -10.15,8.54 -12.9,13.72 -22.91,21.76 -8.87,7.12 -15.38,10.89 -22.94,18.09z"/> <path class="fil29" d="M11148.25 10506.14l22.19 1.84c5.69,-177.08 -2.24,-362.93 -2.85,-536.42 -0.63,-179.35 1.82,-358.97 0.03,-538.12 -0.38,-37.36 4.24,-85.6 4.33,-129.31l0.05 -403.45c-2.76,-88.77 1.85,-179.61 0.5,-268.96l-15.49 -258.56c-3.31,-13.35 -31.46,-39.63 -40.7,-48.2 -32.84,6.95 -92.85,48.45 -121.05,70.62 -15.14,11.89 -21.56,10.58 -38.99,20.62 -25.46,14.68 -47.35,34.98 -77.76,51.67 -58.51,32.12 -23.2,42.93 -66.71,58.23 -53.35,18.76 -36.83,30.55 -73.62,55.3 -31.78,21.39 -126.59,94.38 -153.69,101.08 -47.02,11.63 -37.69,37.29 -63.1,60.98 -37.99,12.81 -34.75,2.28 -63.88,35.84 -60.01,69.15 -94.61,46.47 -117.38,71.6 -12.44,13.73 -6.05,15.7 -23,26.76 -10.22,6.67 -17.93,7.78 -29.67,15.15l-109.08 80.6c-39.45,19.67 -25.68,2.67 -59.22,35.03 -22.2,21.43 -51.3,21.95 -61.78,33.07 -29.28,31.1 29.04,-7.01 -53.86,45.71l-171.53 112.18c-29.21,28.91 -73.81,60.88 -108.25,81.39 -51.98,30.97 -17.78,1.84 -45.64,48.46 -19.95,33.4 -44.86,9.82 -66.74,28.23 -13.78,20.79 150.03,143.81 171.67,159.68l486.48 360.38c100.35,73.34 191.46,134.54 291.55,211.66 65.36,50.36 552.81,408.17 587.16,416.94z"/> <path class="fil30" d="M7978.8 3890l5.68 1070.88c0.58,119.53 1.89,780.22 13.48,827.13l6.19 14.49c16.63,-8.28 49.54,-36.9 68.55,-50.81 23.65,-17.3 44.46,-32.89 69.87,-49.64 187.61,-123.7 394.79,-263.53 577.47,-393.84 24.04,-17.16 45.85,-36.45 68.06,-51.48 117.82,-79.7 94.21,-26.54 93.03,-275.93l-4.67 -1374.7c0.17,-133.61 -5.64,-263.93 0.33,-395.52l-112.72 84.53c-39.88,28.43 -76.16,56.68 -114.67,84.57 -64.61,46.79 -575.45,412.89 -633.84,446.99 -30.75,17.96 -37.37,17.2 -36.75,63.33z"/> <path class="fil31" d="M11099.06 1131.64l18.06 -1.03c8.52,-19.56 32.24,-28.18 49.52,-40.2l1049.9 -738.09c33.55,-23.13 67.56,-44.72 99.69,-69.7l398.28 -282.62 -3074.69 0c9.99,20.79 70.8,58.29 90.76,72.02 33.13,22.79 62.9,46.72 95.15,69.31l88.63 70.64c41.42,36.66 126.39,93.36 182.31,141.4l225.8 177.67c17.21,14.84 31.09,23.45 48.1,36.58l341.11 261.5c10.49,8.11 13.29,9.73 25.24,19.54 8.7,7.13 12.78,10.44 21.91,18.02l340.23 264.97z"/> <path class="fil32" d="M8969.08 3302.69c-35.99,-73.78 -3.41,-133.01 -38.5,-138.98l-7.86 302.93c6.34,94.72 2.56,386.27 3.14,518 1.76,403.6 3.51,773.51 -1.11,1180.53 26.03,-6.85 175.46,-109.87 208.15,-131.51 68.68,-45.47 132.53,-93.92 198.56,-140.05l298.53 -209.49c25.27,-18.86 77.35,-59.68 99.75,-70.22 -4.95,-225.85 -3.06,-424.85 -1.62,-654.17 0.09,-41.53 -5.9,-98.09 -4.31,-134.09 0.99,-22.16 6.75,-35.27 6.15,-65.12l-1.1 -174.35c-0.06,-51.03 -4.76,-99.78 -4.46,-149.61l0.67 -458.05c-0.13,-79.29 3.49,-286.24 -13.11,-338.63 -26.51,-0.69 -77.15,53.15 -102.92,70.69 -78.41,53.32 -129.77,82.58 -200.91,147.87 -87.66,80.46 -17.97,151.9 -66.26,197.64 -51.93,49.21 -95.82,69.85 -155.16,108.81 -60.92,40.01 -167.27,134.62 -217.65,137.8z"/> <path class="fil33" d="M11148.25 10506.14c8.57,19.51 27.73,25.36 43.92,37.88 17.22,13.34 29.02,22.59 45.5,34.13 111.54,78.09 569.93,410.41 656.85,449.31 -20.12,-74.63 -8.14,-404.32 -8.69,-508.02l2.69 -1509.81c1,-22.82 -4.33,-19.56 12.99,-23.35 -0.93,-1.1 -2.26,-2.4 -2.96,-3.14 -0.68,-0.73 -2.07,-2.21 -2.9,-3.09l-16.43 -19.98c-20.57,-29.97 -130.33,-106.82 -162.08,-131.33l-374.46 -303.03c-28.62,-23.85 -164.95,-141.7 -185.65,-152.53l15.49 258.56c1.35,89.35 -3.26,180.19 -0.5,268.96l-0.05 403.45c-0.09,43.71 -4.71,91.95 -4.33,129.31 1.79,179.15 -0.66,358.77 -0.03,538.12 0.61,173.48 8.54,359.34 2.85,536.42l-22.19 -1.84z"/> <path class="fil34" d="M17313.44 4198.13l643.69 -446.17c108.51,-75.36 213.25,-147.81 325.27,-222.67l323.95 -220.96c4.5,-32.71 -41.34,-54.06 -75.59,-77.95l-938.04 -710.62c-58.16,-45.42 -112.66,-85.87 -168.13,-130.66 -28.56,-23.07 -54.39,-40.62 -82.16,-67.24 -52.7,-50.51 -25.04,-21.74 -68.13,-77.17 -6.31,139.54 -7.22,100.56 -3.42,245.71 2.13,81.13 1.52,162.82 2.8,244.06 7.15,454.03 1.26,915.58 8.29,1370.66 0.54,35.09 -8.02,94.26 31.47,93.01z"/> <path class="fil35" d="M6260.95 6978.88c11.07,-30.17 -1.77,-35.93 -21.09,-49.1l-628.62 -462.45c-58.16,-42.58 -114.06,-80.26 -171.2,-122.7 -154.95,-115.11 -297.77,-228.35 -456.19,-340.55 -15.15,-10.72 -23.78,-23.27 -44.38,-25.42 2.49,75.53 -1.79,155.4 0.1,232.4 5.77,234.19 2.71,477.4 1.92,712.25 -0.25,77.89 -5.67,891.29 3.37,947.61 33.76,0.45 61.55,-33.36 86.58,-50.35 28.43,-19.29 55.49,-37 83.83,-55.59l1145.68 -786.1z"/> <path class="fil36" d="M13168.62 9969.34c-19.35,36.08 -4.1,171.07 -3.27,221.37 6.33,382.29 4.81,758.36 3.73,1140.61 -0.21,76.36 -0.49,152.75 -0.65,229.12 -0.15,66.85 -5.17,166.17 0.98,229.14l122.12 -81.91c147.25,-100.14 339.8,-223.58 478.86,-328.03l817.23 -582.46c103.23,-72.23 126.43,-105.62 234.3,-169.17 88.1,-51.9 85.47,-44.72 85.94,-113.51 0.22,-31.86 11.47,-172.24 -0.34,-190.05 -26.65,12.52 -0.34,22.38 -39.31,45.99l-910.32 623.78c-64.05,42.9 -125.21,89.35 -190.18,133.5 -69.16,47 -117.45,92.8 -185.74,138.03 -27.3,18.08 -181.73,114.07 -203.55,121.49 -68,-34.33 -71.66,-128.17 -51.95,-192.72 31.42,-102.89 411.28,-334.46 419.17,-369.9 0.44,-1.93 1.65,-2.27 2.55,-3.33 -5.33,-18.34 2.31,-270.64 1.8,-316.78l-5.77 -632.57c0.26,-85.08 8.22,-240.2 -3.71,-317.75 -26.99,-1.43 -53.67,35.65 -71.94,50.11 -125.41,99.29 -219.46,175.56 -354.46,268.1 -30.52,20.92 -115.72,94.9 -145.5,96.95z"/> <path class="fil37" d="M11351.14 3602.13c8.63,14.14 276.54,211.2 313.03,238.89 56.03,42.51 103.46,78.42 159.91,119.02 57.77,41.54 103.13,80.98 157.76,121.17 52.38,38.54 103.08,78.88 156.28,117.64 53.94,39.3 103.34,80.41 158.76,120.14 37.33,26.76 306.44,225.29 326.06,225.42 9.52,-33.04 4.28,-827.97 4.07,-933.33 -0.62,-313.14 2.82,-626.5 0.67,-939.49l-78.46 60.54c-126.86,83.51 -278.47,195.11 -404.78,287.61 -202.71,148.42 -435.56,324.27 -640.87,459.87 -24.77,16.36 -57.25,36.91 -85.74,53.58 -34.36,20.12 -64,27.01 -66.69,68.95z"/> <path class="fil38" d="M15617.2 9988.73c-5.86,-8.31 -9.33,-438.34 -9.9,-490.34 -1.76,-160.76 -11.88,-333.6 3.23,-487.53 8.71,-35.44 -0.49,-236.17 -0.68,-289.47 -0.35,-96.99 -2.01,-187.67 -5.56,-281.3 -19.38,-63.85 -56.89,-1.15 -78.69,12.86 -16.85,10.84 -38.29,18.82 -53.98,30.58 -17.45,13.07 -24.58,31.54 -42.93,41.96 -26.05,14.77 -29.33,10.74 -53.88,30.55l-98.91 75.62c-24.66,19.73 -21.83,5.7 -42.28,21.97 -44.7,35.53 -57.88,48.96 -111.65,82.91 -43.75,27.6 -33.13,29.71 -47.33,37.43 -10.97,5.96 -15.92,4.13 -31.23,13.51l-73.8 50.71c-21.79,16.63 -28.3,22.55 -28.66,62.33l-0.6 254.19c2.16,228.9 1.13,458.38 1.84,687.35 0.36,114.19 2.24,229.64 0.76,343.68 -1.31,101.5 -6.75,238.94 1.25,337.32 23.45,-0.52 66.82,-36.2 87.14,-48.86 38.31,-23.85 187.85,-105.17 215.49,-133.61 17.13,-17.62 16.79,-17.11 38.51,-31.26 29.96,-19.51 55.18,-33.88 83.09,-56.23 46.86,-37.51 188.27,-131.52 244.5,-166.94l4.26 -97.44z"/> <path class="fil39" d="M9764.83 2928.71l5.6 1379.68c0.08,57.17 -15.72,216.2 16.84,252.43 40.31,5.03 53.19,-9.45 76.65,-26.14 22.31,-15.86 46.35,-25.81 70.01,-39.58l194.92 -123.89c106.97,-67.43 81.37,2.88 81.33,-272.01l-1.24 -1504.2c0.3,-82.14 12.25,-276.98 -1.51,-346.45l-408.28 293.62c-56.45,41.06 -35.2,26.49 -34.11,107.61 0.63,46.63 -4.46,92.3 -3.68,139.47 0.77,46.76 3.6,92.83 3.47,139.46z"/> <path class="fil40" d="M-0 11315.23c22.99,-7.61 79.62,-50.36 102.57,-65.67l703.97 -469.55c16.64,-60.25 16.88,-28.96 15.05,-116.13 -1.37,-65.48 -5.59,-336.16 -14.7,-358.99 -8.03,-20.12 -106.75,-98.64 -129.44,-119.26l-103.43 -85.71c-14.57,-11.36 -17.31,-16.88 -30.7,-29.05l-272.12 -231.1c-62.92,-51.73 -240.46,-220.81 -271.2,-229.37l0 1704.84z"/> <path class="fil41" d="M7594.17 759.62l396.68 -269.84c75.65,-52.75 350.45,-266.42 406.78,-270.31l16.91 19.51c23.41,-24.23 36.13,-44.7 63.66,-62.71 5.97,-3.92 11.47,-7.17 18.22,-11.88 10.22,-7.13 10.28,-8.14 19.49,-15.64 14.01,-11.41 24.35,-20.51 38.96,-30.29l75.93 -53.76c12.95,-8.94 23.47,-17.81 37.08,-27.79 5.03,-3.69 12.95,-7.72 20.95,-12.97 17.93,-11.76 12.98,1.28 17.58,-23.93l-2107.96 0c8.77,11.43 19.45,16.42 30.5,24.91 10.39,7.97 21.53,16.81 30.46,24.44l306.01 241.82c42.2,31.62 83.77,61.72 126.82,92.24 142.36,100.92 296.61,224.14 438.53,328.43 15.77,11.59 53.03,35.55 63.39,47.79z"/> <path class="fil42" d="M10248.78 2828.43l-1.63 1061.57c0.37,94.69 -6.44,298.61 13.16,378.5 12.84,-2.36 221.26,-146.22 247.98,-165.48l488.48 -343.3c38.97,-27.86 93.66,-56.18 125.56,-83.61l123.19 -84.95 -242.5 -194.69c-82.88,-67.73 -166.29,-128.42 -249.24,-194.02l-505.01 -374.02z"/> <path class="fil43" d="M16177.56 8269.86l3.13 725.47c-0.82,94.2 -4.39,669.45 17.01,710.43 30.3,-4.63 15.88,-38.69 109.78,-97.97 22.22,-14.03 40.95,-28.39 61.81,-42.62 21.49,-14.66 40.96,-27.98 61.15,-43.39 78.35,-59.79 167.1,-116.54 248.63,-174.84 42.02,-30.05 82.87,-58.79 124.22,-84.94l309.32 -213.65c11.89,-8.91 56.39,-37.46 61.21,-44.73l3.49 -11.49c-60.33,-9.51 -441.19,-311.33 -512.2,-364.63 -95.05,-71.33 -399.04,-292.54 -484.8,-387.91l-2.76 30.28z"/> <path class="fil44" d="M5110.98 12521.73l1915.32 0 -352.62 -263.47c-40.46,-27.34 -81.01,-57.56 -117.53,-86.71 -114.45,-91.34 -243.59,-180.78 -346.87,-265.72 -22.85,-18.78 -91.69,-77.68 -117.76,-87.75l-242.63 182.04c-19.83,13.37 -40.2,29.96 -60.17,44.42l-188.94 124.83c-44.23,28.09 -83.91,58.82 -125.9,88.3 -69.96,49.15 -349.87,228.28 -362.9,264.06z"/> <path class="fil45" d="M17891.01 11905.91l103.76 78.19c135.49,90.53 335.83,248.68 479.68,352.48 50.86,36.71 260.85,167.36 271.54,185.14l41.59 0 0 -1280.97c-46.96,15 -416.21,290.7 -463.17,324.77 -109.81,79.66 -224.34,172.62 -332.42,255.39 -20.53,15.73 -34.68,28.29 -57.61,42.23 -21.45,13.04 -47.27,27.32 -43.38,42.77z"/> <path class="fil46" d="M12269.05 12521.73l1598.97 0c-13.03,-24.84 -381.51,-278.39 -403.88,-294.99 -103.17,-76.59 -199.94,-137.82 -304.42,-218.52 -21.25,-16.4 -76.99,-66.67 -98.68,-66.38 -21.93,4.35 -79.39,56.33 -99.69,73.14 -56.9,47.11 -237.31,164.4 -303.85,209.23l-305.21 212.9c-27.58,20.47 -77.3,49.68 -83.25,84.63z"/> <path class="fil47" d="M15819.02 4099.74c28.21,-2.59 92.4,-52.65 116.35,-68.6 36.4,-24.23 81.42,-45.46 115.13,-69.05 36.78,-25.73 69.99,-51.15 110.4,-73.94 197.67,-111.53 192.65,-62.34 194.22,-167.49 1.18,-79.21 -4.63,-498.32 -18.1,-522.74 -17.02,4.15 -63.92,44.71 -81.08,58.18l-247.99 160.46c-191.74,114.22 -194.93,75.82 -196.82,209.46l1.29 283.91c0.37,50.82 -12.68,148.69 6.61,189.8z"/> <path class="fil48" d="M15813.64 4163.12c19.63,-9.76 48.43,-22.07 68.95,-35.13 24.02,-15.31 42.75,-28.67 65,-44.64 43.42,-31.16 85.76,-52.3 131.5,-82.65 38.44,-25.52 227.8,-158.97 275.97,-149.97 6.16,52.41 -0.84,135.65 0.94,193.68 1.93,63.46 5.25,125.49 6.08,189.28 0.84,65 -2.25,129.42 -2.03,194.26 0.31,93.09 -8.89,80.15 -72.35,119.84 -80.2,50.15 -151.19,104.82 -230.54,157.98l-236.08 148.64c-3.83,-82.21 -5.34,-81.37 -1.76,-162.29 6.08,-137.45 -14.07,-441.41 -5.66,-528.99zm5.38 -63.38c-19.29,-41.12 -6.25,-138.98 -6.61,-189.8l-1.29 -283.91c1.89,-133.64 5.09,-95.24 196.82,-209.46l247.99 -160.46c17.17,-13.47 64.06,-54.03 81.08,-58.18 13.47,24.42 19.28,443.53 18.1,522.74 -1.57,105.15 3.45,55.96 -194.22,167.49 -40.4,22.79 -73.62,48.21 -110.4,73.94 -33.71,23.59 -78.73,44.82 -115.13,69.05 -23.95,15.95 -88.15,66.01 -116.35,68.6zm-46.74 848.63c27.55,3.38 72.69,-40.28 93.61,-55.26l180.48 -128.3c80.98,-57.42 197.05,-135.54 279.19,-183.84 98,-57.61 67.11,-38.01 75.87,-237.72 9.05,-206.22 -9.46,-409.96 2.03,-617.77 5.56,-100.31 -1.08,-195.09 -4,-295.95l-8.29 -227.01c1.85,-21.9 15.95,-51.41 -1.08,-68.07 -34.21,-33.49 -44.81,24.64 -91.99,49.37 -162.28,85.03 -132.69,61.99 -292.49,170.63l-200.86 107.88c-41.69,30.86 -35.22,214.94 -36.62,278.26 -2.15,97.29 -10.86,208.14 -6.17,303.95 4.7,95.9 7.33,201.54 2.03,298.73 -4.99,91.77 7.43,203.19 9.67,298.84 2.36,100.83 -8.34,205.52 -1.39,306.28z"/> </g> </g> </svg>