<?xml version="1.0" encoding="UTF-8"?>
<svg enable-background="new 0 0 595.28 841.89" viewBox="0 0 595.28 841.89" xmlns="http://www.w3.org/2000/svg">
 <defs>
  <linearGradient id="e" x1="77.196" x2="158.41" gradientUnits="userSpaceOnUse">
   <stop stop-color="#fff" offset="0"/>
   <stop stop-color="#e6e6e6" offset="1"/>
  </linearGradient>
  <linearGradient id="a" x2="0" y1="242.33" y2="182.6" gradientUnits="userSpaceOnUse">
   <stop stop-color="#fff" offset="0"/>
   <stop stop-color="#f8f8f8" offset=".375"/>
   <stop stop-color="#e3e3e3" offset=".9848"/>
   <stop stop-color="#e3e3e2" offset="1"/>
  </linearGradient>
  <linearGradient id="d" x1="32.842" x2="202.77" gradientUnits="userSpaceOnUse">
   <stop stop-color="#ed6d74" offset="0"/>
   <stop stop-color="#eb6970" offset=".0377"/>
   <stop stop-color="#d84c50" offset=".3335"/>
   <stop stop-color="#cc383c" offset=".6027"/>
   <stop stop-color="#c42d31" offset=".8338"/>
   <stop stop-color="#c1292e" offset="1"/>
  </linearGradient>
  <linearGradient id="c" x1="117.81" x2="117.81" y1="532.16" y2="425.12" gradientUnits="userSpaceOnUse">
   <stop stop-color="#b4262b" offset="0"/>
   <stop stop-color="#c63036" offset=".1986"/>
   <stop stop-color="#d93d44" offset=".4735"/>
   <stop stop-color="#e5454d" offset=".7433"/>
   <stop stop-color="#e94950" offset="1"/>
  </linearGradient>
  <linearGradient id="b" x1="391.5" x2="472.71" gradientUnits="userSpaceOnUse">
   <stop stop-color="#fff" offset="0"/>
   <stop stop-color="#e6e6e6" offset="1"/>
  </linearGradient>
  <linearGradient id="g" x1="347.14" x2="517.07" gradientUnits="userSpaceOnUse">
   <stop stop-color="#a6dbf5" offset="0"/>
   <stop stop-color="#279ccf" offset="1"/>
  </linearGradient>
  <linearGradient id="f" x2="0" y1="532.16" y2="425.12" gradientUnits="userSpaceOnUse">
   <stop stop-color="#29a2d7" offset="0"/>
   <stop stop-color="#3cacde" offset=".135"/>
   <stop stop-color="#54bbe9" offset=".4158"/>
   <stop stop-color="#61c5f0" offset=".7022"/>
   <stop stop-color="#65c8f3" offset="1"/>
  </linearGradient>
 </defs>
 <path d="m250.153,217.03-.033.003h-26.506v-26.541c0-4.489-3.64-8.128-8.128-8.128s-8.128,3.639-8.128,8.128v26.541h-26.506l-.033-.003c-4.49,0-8.129,3.643-8.129,8.131s3.639,8.131 8.129,8.131h26.539v26.538c0,4.488 3.639,8.128 8.128,8.128s8.128-3.64 8.128-8.128v-26.538h26.539c4.49,0 8.131-3.643 8.131-8.131s-3.641-8.131-8.131-8.131z" fill="#353634"/>
 <path d="m165.91 368.05v-144.83c0-26.571-21.539-48.11-48.11-48.11s-48.11 21.539-48.11 48.11v144.83c-26.682 16.256-44.502 45.62-44.502 79.151 0 51.149 41.466 92.613 92.612 92.613s92.613-41.464 92.613-92.613c1e-3 -33.53-17.818-62.894-44.503-79.15z" fill="#f2f2f2"/>
 <path d="m117.8 182.6c-22.426 0-40.607 18.185-40.607 40.612v223.98h81.217v-223.98c0-22.427-18.183-40.612-40.61-40.612z" fill="url(#e)"/>
 <path d="m156.08 212.47c0 16.493-17.139 29.859-38.282 29.859s-38.279-13.367-38.279-29.859c0-16.499 17.138-29.871 38.279-29.871s38.282 13.373 38.282 29.871z" fill="url(#a)"/>
 <path d="m202.77 447.2a84.963 84.963 0 1 0 -169.93 0 84.963 84.963 0 1 0 169.93 0" fill="#c1292e"/>
 <path d="m158.41 372.55v-74.681s-17.799-10.873-40.606-10.873-40.611 10.873-40.611 10.873v74.681c-26.425 14.407-44.354 42.433-44.354 74.645 0 46.925 38.038 84.963 84.961 84.963s84.966-38.038 84.966-84.963c0-32.212-17.933-60.238-44.356-74.645z" fill="url(#d)"/>
 <path d="m187.75 478.64a69.948 53.52 0 1 0 -139.9 0 69.948 53.52 0 1 0 139.9 0" fill="url(#c)"/>
 <path d="m565.769,217.03-.036.003h-69.266l-.035-.003c-4.489,0-8.131,3.643-8.131,8.131s3.642,8.131 8.131,8.131h69.337c4.488,0 8.124-3.643 8.124-8.131s-3.636-8.131-8.124-8.131z" fill="#3f403f"/>
 <path d="m480.21 368.05v-144.83c0-26.571-21.535-48.11-48.108-48.11s-48.107 21.539-48.107 48.11v144.83c-26.682 16.253-44.503 45.62-44.503 79.151 0 51.149 41.464 92.613 92.61 92.613s92.608-41.464 92.608-92.613c0-33.53-17.816-62.897-44.5-79.15z" fill="#f2f2f2"/>
 <path d="m432.1 182.6c-22.428 0-40.604 18.185-40.604 40.612v223.98h81.211v-223.98c0-22.427-18.178-40.612-40.607-40.612z" fill="url(#b)"/>
 <path d="m470.38 212.47c0 16.493-17.137 29.859-38.279 29.859s-38.281-13.367-38.281-29.859c0-16.499 17.141-29.871 38.281-29.871s38.279 13.373 38.279 29.871z" fill="url(#a)"/>
 <path d="m472.71 372.55v-74.678s-22.5-10.873-40.605-10.873-40.606 10.873-40.606 10.873v74.681c-26.427 14.407-44.359 42.433-44.359 74.645 0 46.925 38.038 84.963 84.963 84.963 46.926 0 84.964-38.038 84.964-84.963-1e-3 -32.215-17.93-60.244-44.357-74.648z" fill="url(#g)"/>
 <path d="m502.05 478.64a69.95 53.52 0 1 0 -139.9 0 69.95 53.52 0 1 0 139.9 0" fill="url(#f)"/>
 <path d="m69.693 363.5c0-10.502 21.518-19 48.11-19" fill="none" stroke="#fff" stroke-miterlimit="10" stroke-width="8"/>
 <path d="m69.693 333.9c0-10.502 21.518-19 48.11-19" fill="none" stroke="#fff" stroke-miterlimit="10" stroke-width="8"/>
 <path d="m387.5 366.8c0-10.502 21.518-19 48.109-19" fill="none" stroke="#fff" stroke-miterlimit="10" stroke-width="8"/>
 <path d="m387.5 337.2c0-10.502 21.518-19 48.109-19" fill="none" stroke="#fff" stroke-miterlimit="10" stroke-width="8"/>
</svg>
