<?xml version="1.0" encoding="UTF-8"?>
<svg width="583.32" height="636.43" version="1.1" viewBox="0 0 583.32203 636.43" xmlns="http://www.w3.org/2000/svg">
 <g transform="translate(0 -415.93)" fill="#1f89ef" shape-rendering="auto">
  <path d="m262.16 415.93v78.658l-60.881-35.15-30.715 53.197 91.596 52.883v336.08l-91.596 52.883 30.715 53.197 60.881-35.15v79.83h61.43v-80.818l58.93 34.023 30.713-53.197-89.643-51.756v-334.11l89.643-51.756-30.713-53.197-58.93 34.023v-79.646h-61.43z" color="#000000" color-rendering="auto" image-rendering="auto" solid-color="#000000" style="isolation:auto;mix-blend-mode:normal"/>
  <path d="m423.06 518.31v105.77l-291.05 168.04-91.598-52.883-30.713 53.197 60.883 35.15-69.135 39.916 30.713 53.199 69.99-40.408v68.045h61.428v-103.51l289.34-167.05 89.643 51.756 30.715-53.197-58.93-34.023 68.975-39.822-30.715-53.199-68.119 39.328v-70.299l-61.428-2e-3z" color="#000000" color-rendering="auto" image-rendering="auto" solid-color="#000000" style="isolation:auto;mix-blend-mode:normal"/>
  <path d="m99.85 518.07v70.299l-69.135-39.914-30.715 53.199 69.99 40.408-58.93 34.023 30.713 53.197 89.645-51.756 289.34 167.05v103.51h61.428v-68.045l68.975 39.822 30.715-53.199-68.121-39.33 60.883-35.15-30.713-53.197-91.596 52.883-291.05-168.04v-105.77h-61.428z" color="#000000" color-rendering="auto" image-rendering="auto" solid-color="#000000" style="isolation:auto;mix-blend-mode:normal"/>
 </g>
</svg>
